<svg xmlns="http://www.w3.org/2000/svg"><defs><font id="/fonts/calligraffittiregular" horiz-adv-x="1402"><font-face units-per-em="2048" ascent="1638" descent="-410"/><glyph horiz-adv-x="0"/><glyph horiz-adv-x="682"/><glyph horiz-adv-x="594"/><glyph horiz-adv-x="594"/><glyph horiz-adv-x="594"/><glyph unicode="!" horiz-adv-x="472" d="M226 16q0 34 6 56t48 22q20 0 38-14t18-36q0-10-12-26v-4q0-4 1-8t1-8q-14-10-19-21t-27-11q-20 0-37 15t-17 35zm40 402q0 108 19 212t39 210q20 116 44 229t46 227q8 40 15 77t13 75q4 16 5 33t5 33q6 20 28 20 8 0 20-8t12-18q0-40-3-78t-7-78q-14-134-35-266t-43-264q-16-100-28-198t-26-198l-5-40-6-49-7-47-8-36q-4-10-14-15t-20-5q-22 0-28 18-10 38-13 82t-3 84zM292-4q0-2 1-3t1-3v8z"/><glyph unicode="&quot;" horiz-adv-x="422" d="M368 1222q10 52 33 115t51 107q10 16 32 34t40 18q16 0 29-11t13-29q0-38-22-72-8-12-17-25t-17-27q-42-74-92-140-2 0-5-1t-5-1q-4 0-20 14t-20 18zm164 0q10 52 33 115t49 107q10 16 32 34t40 18 31-11 13-29q0-38-22-72-8-12-17-25t-17-27q-42-74-92-140-2 0-5-1t-5-1q-6 0-21 14t-19 18z"/><glyph unicode="#" horiz-adv-x="1692" d="M82 456q0 20 20 26 28 8 58 10t58 6q70 10 141 17t143 11q58 126 122 247t130 243q-70-2-141-4t-141-6q-34-2-67-4t-67-2q-12 0-19 12t-7 22q0 20 22 26 30 8 67 11t69 7q84 10 167 18t167 14q40 72 83 143t91 141q12 20 26 41t30 39q6 8 20 8 12 0 24-7t12-21q0-16-20-64t-47-102-53-103-36-69q130 6 258 7t258-1q40 70 80 137t86 133q12 18 25 38t27 38q8 8 20 8t25-7 13-21q0-16-20-62t-46-100-51-102-35-66q20 0 64-3t91-7 88-8 57-10q22-6 22-32 0-22-20-28-24-8-73-13t-104-6-106-1h-81q-132-232-258-468 86-2 170-7t168-15q12-2 26-3t26-5q22-6 22-32 0-22-22-28-20-6-58-11t-80-7-81-3-63-1q-40 0-82 1t-82 3q-38-74-75-147t-73-149q-16-34-32-71T982-4q-10-12-24-12-10 0-22 7t-12 19q0 6 12 37t29 74 39 94 41 96 34 80 21 47q-78 4-155 4H676l-114-2q-38-74-75-147t-73-149q-16-34-32-71T346 2q-10-12-24-12-10 0-22 7t-12 19q0 6 11 37t28 73 38 92 40 94 34 79 21 47q-58-4-117-5t-117-5q-30-2-59-4t-59-2q-12 0-19 12t-7 22zm530 78q134 8 268 9t268 1q58 120 119 236t123 234q-196 6-388 6H880q-70-120-137-241T612 534z"/><glyph unicode="$" horiz-adv-x="1066" d="M164 518q0 32 7 70t21 75 33 71 41 58q8 12 20 12 32 0 32-32 0-6-4-14-34-52-56-107t-22-121q0-102 65-168t159-92q26 162 65 323t79 321q-42 38-66 91t-24 109q0 36 14 77t42 67q24 22 66 43t74 31q16 58 28 115t26 115q4 22 9 58t13 52q6 20 26 20 10 0 19-8t9-18q0-22-5-47t-9-47q-10-56-19-111t-19-109q24 4 48 5t50 3q12 52 25 105t23 107q4 18 9 51t11 49q8 20 26 20 10 0 19-8t9-18q0-22-4-46t-8-46q-10-54-19-107t-19-107h64q54 0 106 5t104 23q2 0 4 1t4 1q14 0 23-11t9-23q0-14-16-26-28-18-68-30t-85-20-88-13-77-7q-22-102-45-202t-47-202q34-28 68-59t62-67 45-77 17-87q0-62-30-122t-78-110-106-88-114-56q-10-46-16-92T680 6q-4-22-5-47t-7-47-28-22-28 24q-4 22-4 49v49q0 40 2 80t6 80q-34-6-80-2-6-44-13-87T510-6q-4-18-5-40t-5-42q-10-22-30-22-22 0-28 24-4 22-4 49v49q0 44 3 87t7 85q-58 16-110 46t-91 73-61 97-22 118zm388-260h4q40 0 72 8 22 136 53 270t65 266q-18 14-35 26t-35 26q-34-150-66-298t-58-298zm72 850q0-28 14-62l40 158q-54-34-54-96zm80-138q18-14 35-28t33-28q22 84 44 169t44 171q-24-4-48-7t-48-9q-16-68-30-134t-30-134zm24-670q34 16 71 44t67 64 49 76 19 80q0 62-36 102t-78 78q-26-112-49-222t-43-222z"/><glyph unicode="%" horiz-adv-x="1316" d="M266-22q0 4 4 12 44 64 89 125t89 123q92 132 180 264t172 268q70 114 134 232t132 234q30 54 63 112t73 106q6 12 20 12t25-10 11-24q0-2-4-13t-8-24-9-25-5-14q-66-170-157-327T886 716Q698 420 474 142q-40-46-78-94t-78-94q-8-8-18-8-12 0-23 9t-11 23zm2 1174q0 54 17 106t49 95 75 77 95 52h2q14 10 35 14t33 4q42 0 79-19t66-50 45-71 16-80q0-60-20-118t-56-105-88-76-116-29q-42 0-84 14t-75 39-53 62-20 85zm88 30l2-22q2-56 41-82t89-26q44 0 78 18t57 48 35 67 12 77q0 70-38 116t-110 46q-22-12-46-28-50-38-86-94t-34-120zM824 106q0 116 65 202t171 130q18 8 34 12t36 4q42 0 79-19t66-50 45-70 16-79q0-60-20-118t-56-105-88-76-116-29q-42 0-84 13t-75 39-53 63-20 83zm90 8q2-54 41-80t91-26q42 0 76 18t57 47 35 67 12 78q0 70-38 116t-110 46q-34-18-64-43t-53-57-36-69-11-75v-22z"/><glyph unicode="&amp;" horiz-adv-x="1214" d="M102 394q0 104 53 188t133 150 173 119 173 99q-4 34-10 67t-6 67q0 68 17 135t50 127 82 109 113 77q18 8 37 13t39 5q68 0 117-44t49-114q0-48-15-96t-40-93-56-85-63-72q-44-44-93-78t-101-66q32-172 88-337t144-317q74 76 120 171t46 203q0 28-4 54t-10 54v8q0 12 8 21t20 9q24 0 30-24 10-28 14-65t4-67q0-124-52-234t-138-196q40-60 81-114t87-108q10-10 10-24 0-12-8-21t-20-9q-16 0-47 29t-64 66-62 73-39 50Q872 54 765 12T544-30q-36 0-78 6T383-6t-78 30-67 42q-34 26-59 65t-42 84-26 91-9 88zm94-6q0-32 6-68t19-71 32-66 43-51q50-40 119-60t133-20q102 0 197 37t173 99Q818 338 753 504T652 846q-64-36-143-80T361 666 244 541t-48-153zm532 702q0-42 6-80 38 22 74 48t66 58q24 24 49 57t46 69 34 74 13 72-18 44-48 10q-14 0-22-6-98-56-149-144t-51-202z"/><glyph unicode="'" horiz-adv-x="258" d="M368 1222q10 50 33 114t51 108q10 16 32 34t40 18q16 0 29-11t13-29q0-38-22-72-8-12-17-25t-17-27q-42-74-92-140-2 0-5-1t-5-1q-4 0-20 14t-20 18z"/><glyph unicode="(" horiz-adv-x="568" d="M246 490q0 156 49 310t137 286 213 233 277 149h4q14 0 23-11t9-25q0-10-10-20-34-28-71-51t-73-51q-118-90-216-198T426 868q-46-100-68-206t-22-214q0-124 28-235T448-6q2-4 2-12 0-12-11-21t-23-9-20 12q-38 50-66 116t-47 136-28 141-9 133z"/><glyph unicode=")" horiz-adv-x="580" d="M-102-24q0 12 8 18 34 32 67 62t65 64q132 134 243 286t185 326q32 72 49 148t17 154q0 90-26 176t-82 158q-10 16-23 29l-27 27-4 8-2 8q0 12 10 24t24 12q4 0 12-4 114-66 171-182t57-244q0-106-30-212t-81-208-119-199-146-184T106 82-56-52q-10-6-14-6-14 0-23 11t-9 23z"/><glyph unicode="*" horiz-adv-x="516" d="M246 1298q0 20 23 27t39 7q20 0 45-11t50-27 47-34 36-32v37l-2 37q0 18-3 36t-3 38q0 12 2 26t8 27 15 22 25 9q0-2 2-2h4q28-12 42-45t14-61q0-32-3-64t-11-62l50 36q10 8 23 21t28 25 31 20 30 8q4 0 23-11t21-15v-12q0-48-32-73t-66-47q-22-14-45-25t-47-21q18-14 35-28t35-28q10-10 27-21t33-24 28-28 12-31q0-10-6-19t-10-17q-18-6-34-6-26 0-54 17t-54 42-48 52-36 49q-10-20-22-37t-24-37q-10-16-20-35t-22-35-27-28-37-12-28 21-6 37q0 22 13 48t32 51 40 47 37 36q-22 12-46 25t-46 25q-12 8-26 13t-28 13q-32 14-56 44-8 16-8 32z"/><glyph unicode="+" horiz-adv-x="984" d="M204 786q0 8 5 17t15 13q14 6 41 10t56 5 57 2 46 1q48 0 96-1t96-3q2 70 4 138t6 138q2 22 2 58t4 56q4 10 12 15t18 5 18-5 12-15q6-22 7-56t3-58q4-70 7-138t7-138q70-2 139-4t139-6q22-2 57-2t55-4q10-4 16-12t6-18-5-19-15-11q-22-6-57-7t-57-3q-70-4-138-8t-138-6q0-42 2-84t2-84q0-22-1-53t-5-63-10-62-16-50q-4-8-13-12t-17-4-17 4-13 14q-6 16-10 43t-6 56-3 56-1 45q0 48 2 96l4 96q-42-2-84-3t-82-1q-22 0-54 1t-64 5-62 10-48 16q-18 8-18 30z"/><glyph unicode="," horiz-adv-x="234" d="M-102-192q10 50 30 95t30 91l-20 20-10 26q0 34 6 56t48 22q16 0 27-7t21-17q20-20 30-35t10-45-13-62-32-63-40-59-39-50q0-2-4-2-2 0-4-2-6 0-21 14t-19 18z"/><glyph unicode="-" horiz-adv-x="1006" d="M204 786q0 8 5 17t15 13q16 6 42 10t55 5 57 2 46 1q52 0 102-2t102-2q86 0 170-3t170-7h33l38-1 37-2 30-3q22-8 22-30 0-10-5-19t-15-11q-24-6-68-8t-72-4q-84-6-169-9t-171-5q-46 0-90-2t-88-2q-22 0-53 1t-64 5-62 10-49 16q-8 4-13 13t-5 17z"/><glyph unicode="." horiz-adv-x="234" d="M-40 16q0 34 6 56t48 22q18 0 37-14t19-36q0-10-12-26l-2-4q4-8 4-16-14-10-19-21T14-34q-20 0-37 15t-17 35z"/><glyph unicode="/" horiz-adv-x="574" d="M-122 44q0 10 4 14 46 62 94 123t94 125q100 132 194 263t186 269q76 114 146 232t142 234q34 56 71 112t77 106q10 10 20 10 16 0 25-10t11-24q-74-196-182-371T534 780Q432 630 322 488T94 208q-40-48-81-95t-85-93q-6-8-18-8t-22 10-10 22z"/><glyph unicode="0" horiz-adv-x="1016" d="M184 574q0 140 34 285t101 274 167 235 230 172q26 12 52 17t54 5q90 0 144-49t83-121 39-155 10-151q0-82-9-161t-25-159q-2-12-4-26t-6-26q0-4-1-5t-1-3v-6q0-46-11-102t-29-113-39-110-41-95q-24-52-55-104t-70-97-88-78-109-45q-10-2-22-3t-22-1q-106 0-179 66T269 180t-65 203-20 191zm102 12q0-162 58-312 12-32 33-69t50-69 63-53 74-21q48 0 90 27t77 67 63 86 48 82q34 60 60 124t48 128q10 34 19 68t23 66q0 2 1 3t1 3v4l2 4q6 80 18 160t12 160q0 48-6 121t-26 142-59 119-105 50q-42 0-78-18-112-56-199-154t-146-217-90-250-31-251z"/><glyph unicode="1" horiz-adv-x="628" d="M20 16q0 10 7 19t11 15q48 10 111 20t109 24q40 188 86 373t98 371q36 128 70 256t82 254q-38-22-90-39t-96-17q-4 0-15 16t-11 22q0 10 12 18 42 22 82 45t80 51q16 10 27 22t23 26q12 12 39 32t45 20q4 0 22-13t18-17q0-16-6-34t-14-32q-26-164-75-322t-95-316q-52-176-105-348T330 114q10 2 32 2t45-7 23-37q0-6-2-8-22-28-54-44T304-5t-77-11-71-2q-28 0-59 1T38-8Q20-4 20 16z"/><glyph unicode="2" horiz-adv-x="1188" d="M-40 12l12 16v-8l8 10h-8l324 354q98 106 208 195t218 183q108 90 196 187t154 223q14 26 22 51t8 55q0 40-14 76t-39 64-60 44-75 16q-16 0-27-2t-25-4q-18-4-35-5t-33-5q-92-18-174-68t-140-122q-14-18-25-35t-23-35q-12-16-26-16-12 0-21 9t-9 21q0 10 2 14 38 70 95 129t126 101 147 66 158 24q126 0 204-70t78-200q0-74-34-146-48-102-114-186T896 789 736 645 570 506q-84-72-154-146T270 206h14q40 2 81-7t81-25q56-22 129-54t150-61 150-49 133-20q84 0 146 29t122 87q12 12 24 12t21-9 9-21-6-20q-56-88-153-130t-197-42q-62 0-136 19T687-39 538 18 406 70q-28 10-58 19t-62 9q-66 0-129-43T54-40l-2 28q-10-2-19-4t-19-2q-16 0-25 6T-32 4h2z"/><glyph unicode="3" horiz-adv-x="1176" d="M-102 400q0 14 10 21t22 7q14 0 24-12 16-28 31-55t31-53q32-52 72-103t86-93 100-74T390-8q46-10 86-10 116 0 222 56t188 146 131 202 49 226q0 20-2 39t-4 41q-2 18-4 35t-10 33q-14 38-42 65t-63 42-74 22-77 7q-34 0-63-6t-57-6q-10 0-20 12t-10 22q0 18 16 24 16 10 30 15t30 13q60 28 115 63t101 81q20 20 45 44t45 51 34 57 14 60q0 76-44 102t-112 26q-34 0-69-5t-69-13q-80-18-151-58t-129-94q-14-12-25-24t-23-24q-12-8-16-8-12 0-24 10t-12 22q0 8 6 14 44 60 102 111t126 87 143 56 151 20q14 0 27-1t27-1q46 0 82-19t61-50 38-71 13-82q0-52-22-103t-57-98-78-85-85-64q66-12 113-45t77-81 43-106 13-120q0-132-56-263T970 124 752-45t-260-65q-112 0-203 44T125 48-3 208t-97 182q-2 2-2 10z"/><glyph unicode="4" horiz-adv-x="1158" d="M184 592q0 4 2 4 22 58 55 116t71 114 78 110 76 106q62 90 118 182t108 188q22 40 41 79t41 79q6 12 20 12 10 0 23-10t13-20l-2-8q-4-10-7-20t-7-19-4-11q-50-136-115-262T550 986q-46-68-88-136t-90-132q56 12 112 12 62 0 121-11t117-27q26-8 51-13t51-7q24 82 56 171t72 175 89 165 107 143q6 8 18 8t24-9 12-23v-6q-18-46-39-90t-43-90q-50-108-100-217t-88-223q70 12 135 45t117 83q12 10 23 23t23 25q6 8 16 8 16 0 25-12t11-26q-70-98-163-167t-219-79q-36-120-75-236t-79-236Q726 48 708-8t-40-112q-8-14-24-14-10 0-22 9t-12 19l4 14q2 12 6 28t8 30 6 18q38 150 79 297t85 297q-82 6-155 24t-157 18q-42 0-73-4t-60-11-58-19-65-28h-6q-12 0-26 11t-14 23z"/><glyph unicode="5" horiz-adv-x="1092" d="M286 876q0 12 15 53t35 88 39 90 27 59q34 68 67 135t67 137q10 18 23 50t25 48q4 6 22 16t28 14q8 0 15-2t13-4q58-12 116-20t118-8q40 0 80 5t80 11q12 2 37 7t52 11 50 10 31 4q10 0 20-13t10-21q0-18-18-24-40-16-86-28t-88-22q-112-28-216-28-50 0-99 5t-99 13q0-10-13-44t-33-81-46-101-50-102-43-85-27-51q76 34 157 45t163 11q72 0 136-31t111-83 74-119 27-137q0-76-22-144t-59-130-85-118-100-106Q738 88 623 5T384-144q-2-2-10-2-14 0-22 11t-8 23q0 10 10 20 32 24 65 45t67 45q78 58 151 120t139 132q40 42 81 91t74 103 53 112 20 118q0 72-25 123t-69 84-101 49-123 16q-94 0-180-26t-168-72q-8-4-14-4-10 0-24 11t-14 21z"/><glyph unicode="6" horiz-adv-x="1144" d="M266 578q0 52 3 114t15 112q30 128 102 244t166 217 204 186 218 151q8 4 12 4 14 0 22-11t8-23-8-20l-76-56-74-58q-74-60-144-128t-130-144-108-160-78-176q86 74 173 105t197 47q16 2 29 4t29 2q56 0 112-22t102-59 75-88 29-111q0-24-5-44t-13-42q-10-36-21-72t-27-70q-78-176-216-309T558-52q-4-4-8-4-12-8-20-8-10 0-16 6Q446 0 399 74t-77 158-43 172-13 174zm106 38q0-158 41-314T540 12l138 132q96 90 181 189t137 219q10 24 17 48t15 48q6 16 10 30t4 30q0 42-22 77t-56 59-74 38-78 14q-120 0-234-44T378 724q-6-54-6-108z"/><glyph unicode="7" horiz-adv-x="998" d="M226 1452q0 10 5 18t15 12q38 8 86 9t88 3q106 6 211 8t211 6q84 4 164 13t162 21q36 4 82 11t82 7q10 0 22-16t12-26-4-14q-38-50-77-97t-79-93q-96-116-192-230T828 850Q718 700 634 537T492 198q-12-40-24-77t-22-77q-6-24-11-48t-11-46q-6-18-26-18-10 0-22 8t-12 18q0 12 4 34t8 46 9 46 9 36q48 214 136 412t214 376q102 142 210 277t236 253q-102-26-209-29t-211-3q-88 0-174 3t-174 7q-32 2-62 2t-62 2h-25l-25 2q-10 2-16 11t-6 19z"/><glyph unicode="8" horiz-adv-x="1120" d="M144 320q0 110 36 214t99 193 147 161 180 122q-56 26-88 70t-32 108q0 52 26 92 56 84 137 137t175 83q2 0 13 3l22 6 21 6 12 3q12 0 21-11t9-21q0-20-16-26-18-8-37-13t-37-15q-70-28-138-78t-104-118q-14-24-14-48t11-42 29-30 40-18 42-6q104 0 191 60t133 150q10 22 22 54t12 58q0 18-14 31t-34 22-41 15-33 12q-18 6-18 26 0 10 8 22t18 12q40 0 79-7t70-25 50-49 19-79q0-20-4-38t-10-36q-6-16-12-33t-14-33q-18-40-47-76t-65-66-76-54-78-38q108-98 176-229t68-279q0-106-38-200T955 143 799 17 608-54q-34-8-69-12t-71-4q-20 0-40 2t-40 6Q328-50 282-9t-77 95-46 116-15 118zm94 12q0-56 12-103t40-95q34-56 77-79t107-23q100 0 193 37t165 102 115 154 43 193q0 136-63 258T776 998l-60-6q-96-42-182-110T382 729 277 543t-39-211z"/><glyph unicode="9" horiz-adv-x="1102" d="M266 834q0 24 5 44t11 42q10 36 22 72t28 70q76 174 215 308t305 224q2 2 4 2t4 2q12 8 20 8 10 0 14-6 68-58 116-132t78-158 43-173 13-175q0-52-4-113t-14-111q-30-130-102-246T858 276 653 91 434-60q-2-4-12-4-12 0-21 11t-9 23q0 10 10 20l76 56 74 58q74 60 144 128t130 144 108 159 78 177q-88-74-174-105t-196-47q-16-2-29-4t-29-2q-56 0-113 22t-102 59-74 88-29 111zm102 0q0-42 22-77t56-59 74-38 78-14q120 0 234 44t200 128q4 28 4 54v54q0 158-40 314t-126 290q-34-34-70-66t-70-66q-94-90-179-189T414 990q-10-24-17-48t-17-48q-4-16-8-30t-4-30z"/><glyph unicode=":" horiz-adv-x="214" d="M122 120q0 34 7 55t47 21q20 0 39-13t19-35q0-10-4-16l-8-12-2-4q4-8 4-16-14-10-19-21t-27-11q-20 0-38 16t-18 36zm0 408q0 34 7 56t47 22q20 0 39-14t19-36q0-10-4-16l-8-12-2-2q4-12 4-16-14-12-19-23t-27-11q-20 0-38 16t-18 36zm68-430q0-2 1-3t1-3v8zm0 408l2-4v6q-2 0-2-2z"/><glyph unicode=";" horiz-adv-x="254" d="M102-88q10 50 31 94t31 92q-12 8-21 18t-9 26q0 34 6 56t48 22q16 0 26-7t20-17q20-18 31-34t11-44q0-30-13-62T231-7t-41-60-38-51q-2 0-5-2t-5-2q-4 0-20 14t-20 20zm34 616q0 34 6 56t48 22q20 0 38-14t18-36q0-10-4-16l-8-12v-2q0-4 1-8t1-8q-14-12-19-23t-27-11q-20 0-37 16t-17 36zm66-22l2-4v6q-2 0-2-2z"/><glyph unicode="&lt;" horiz-adv-x="634" d="M204 618q0 42 16 76t44 66q22 24 46 47t46 45q12 12 43 40t67 56 69 53 47 31l8 2q12 0 23-11t11-23q0-10-8-16-16-16-32-30t-32-30l-67-67-65-67q-12-12-32-34t-39-46-33-48-14-42q0-14 25-41t61-59 80-67 80-67 61-57 25-37q0-14-10-26t-24-12h-4q-116 46-217 128T210 570q-6 24-6 48z"/><glyph unicode="=" horiz-adv-x="1190" d="M266 558q0 22 20 30 24 6 68 8t72 4q84 6 169 10t171 4l92 4 92 2q22 0 52-1t62-5 61-10 49-14q8-4 12-13t4-17q0-22-18-30-18-6-45-10t-57-6-59-3-47-1q-50 0-99 2t-99 2q-86 0-170 2t-170 6h-31l-39 1-38 2-30 3q-10 2-16 11t-6 19zm0 276q0 10 5 19t13 13q16 6 43 10t56 5 57 2 46 1q52 0 102-2t102-2q86-2 170-4t170-6q28-2 71-2t67-6q10-2 16-11t6-19q0-8-6-17t-14-11q-24-6-68-8t-72-4q-86-6-170-9t-170-5q-46 0-90-2t-90-2q-22 0-53 1t-63 5-62 9-50 15q-16 10-16 30z"/><glyph unicode="&gt;" horiz-adv-x="620" d="M204 300q0 10 25 34t58 51 64 50 41 31q38 28 82 67t68 79q2 2 2 8 0 16-14 40t-34 48-40 46-32 34q-34 34-67 66t-67 62q-16 16-34 30t-34 30q-8 8-8 16 0 12 12 23t24 11h2q2 0 2-1t2-1q14-8 48-31t70-51 68-54 44-38q22-22 47-45t47-47q28-30 44-65t16-77q0-12-1-23t-3-23q-70-108-171-187T242 264l-4-2q-12 0-23 13t-11 25z"/><glyph unicode="?" horiz-adv-x="872" d="M286 1036q0 98 44 185t115 153 162 104 187 38q70 0 130-23t103-64 67-100 24-131q0-88-45-156T961 921t-144-96-141-81q-28-16-58-36t-54-42q-40-40-78-98t-38-118q0-40 32-75t66-47q0 4-1 6t-1 6q0 14 10 23t24 9q18 0 27-21t9-37q0-30-19-46t-47-16q-36 0-70 17t-62 44-46 62-22 69v22q0 76 42 152t98 128q52 48 117 85t131 72 128 75 108 96 46 128q0 108-65 165t-169 57q-80 0-158-32t-139-88-98-129-37-157q0-18 4-37t4-37q0-14-10-22t-22-8-18 5-10 15q-4 8-6 22t-4 29-3 29-1 22zM404 16q0 34 6 56t48 22q18 0 37-14t19-36q0-10-12-26l-2-4q4-8 4-16-14-10-19-21t-27-11q-20 0-37 15t-17 35zm66-20q0-2 1-3t1-3v8z"/><glyph unicode="@" horiz-adv-x="1368" d="M184 526q0 100 25 198t69 190 103 174 129 152q56 56 120 108t134 92 147 64 159 24q102 0 178-42t125-111 73-157 24-180q0-104-29-210t-81-203-124-181-156-144q-18-12-45-27t-49-15-36 12-21 30-9 38-2 38v18l2 18q-60-62-138-102t-168-40q-8 0-21 5t-21 9q-40 22-59 64t-19 86q0 60 16 119t43 114 61 107 72 98q96 118 228 213t276 145h6q14 0 22-10t8-24-14-24q-30-16-61-29t-59-31Q894 998 756 816q-28-36-57-81t-52-93-38-98-15-98q0-6 1-19t5-25 11-22 17-10q50 0 99 27t92 68 77 89 56 88q42 76 75 155t67 157q16 34 31 74t33 70q8 14 26 14 12 0 23-8t11-22v-4q-22-96-50-185t-60-181q-8-22-13-47t-11-47q-10-40-21-77t-23-75q-16-48-18-96l4-4q8 0 22 9t29 21 28 24 19 18q58 56 105 125t81 145 52 157 18 163q0 70-17 141t-53 129-94 95-138 37q-72 0-140-23t-131-59-120-83-105-95q-62-62-114-137t-90-157-59-170-21-176q0-70 16-147t54-137q36-58 91-99t119-68 133-39 133-12q120 0 229 32t211 92q8 6 20 6t21-9 9-21q0-14-12-26-52-48-116-81t-135-52-144-28-141-9q-136 0-246 42T350 93 227 280t-43 246z"/><glyph unicode="A" horiz-adv-x="1320" d="M-296 10q0 24 20 28 44 10 84 19t82 25Q-6 122 84 187t169 144 149 167 134 176q24 34 46 66t44 66q-78-16-136-45t-122-75q-4-4-14-4t-21 11-11 21 6 16q68 76 167 119t197 59q40 62 84 131t91 138 97 132 104 113q12 8 18 8h4q-2 30-9 61t-22 56-39 41-60 16q-48 0-99-18t-96-39-77-38-40-17q-12 0-21 11t-9 21q0 14 14 24 10 8 24 15t26 15q66 38 141 70t155 32q16 0 34-5t32-11q40-18 67-52t42-75 21-86 6-85q0-112-12-221t-30-219q84 10 165 31t159 53q22 8 42 17t42 19h6q12 0 23-11t11-25q0-8-6-14-42-46-96-79t-116-54-126-32-124-13q-34-196-70-396t-36-400q0-58 7-115t30-102 66-72 115-27q12 0 23 2t23 2q14 0 22-10t8-24-15-23-34-13-39-6-30-2q-86 0-141 35t-87 92-45 128-13 141q0 96 11 196t28 201 37 201 38 194l-84 4-84 2h-42l-42-2q-34-54-71-106t-75-104q-70-96-150-191T297 246 102 100-122 4q-34-10-73-17t-75-7q-12 0-19 10t-7 20zM832 924q16 0 33 1t35 1q30 0 61-2t61-2h14q20 104 35 207t19 209q-26-44-66-109t-79-128-71-113-42-64z"/><glyph unicode="B" horiz-adv-x="1530" d="M-20-30Q-20-6 2-2 42 8 79 15t77 25q94 42 166 116t128 164 97 189 75 189q30 80 56 161t53 162 58 160 71 155q-56-34-114-60t-112-60q-84-52-166-121T350 932q-8-20-12-38l-8-36q-6-18-26-18-8 0-21 7t-13 15q0 82 34 154t90 134 129 114 151 96 156 79 142 63q4 2 7 4t7 2q12 0 24-9t12-23q0-2-10-28t-24-57-26-59-14-36q44 40 101 81t120 75 128 56 127 22q88 0 148-47t60-137q0-72-34-134-76-136-193-237t-255-169q130-22 206-112t76-222q0-108-44-205T1269 96 1096-21 890-64 684-29 496 64q-16 10-32 21t-32 23q-10 6-10 18 0 4 4 12Q342 50 234-5T6-60q-12 0-19 10t-7 20zm462 188q4 2 12 2 4 0 12-4 94-54 191-94t207-40q88 0 171 34t147 94 103 139 39 169q0 82-31 133t-82 81-116 42-133 14q-4-2-12-5t-18-6-18-5-10-2q-16 0-24 11t-8 25q0 18 20 26 6 16 16 17t20 5q20 8 47 26t47 28q58 34 117 71t117 77q36 26 83 66t90 88 73 99 30 97q0 52-35 70t-81 18q-66 0-137-26t-139-66-130-87-110-89q-46-126-90-252t-92-252q-48-124-106-243T472 194q-12-18-30-36z"/><glyph unicode="C" horiz-adv-x="1162" d="M194 275q-9 66-9 134t9 137q6 48 16 96t22 96q38 148 126 287t211 246 270 172 301 65q36 0 86-5t82-17q18-7 18-26 0-13-11-26-9-10-23-10-18 0-36 2t-38 2q-148 0-290-56t-261-152-207-224-130-272q-14-46-23-94t-15-94q-8-54-10-110v-22q0-44 6-88 8-54 25-104t49-92q12-16 26-31t30-25q30-18 76-26t84-8q108 0 216 46t188 128q22 22 38 43t34 45q10 14 26 14 12 0 21-8t7-22q0-2-4-10-42-72-104-131T866 35 715-29 556-52q-22 0-48 2t-52 7-50 12-42 17q-16 10-32 26l-30 30q-90 100-108 233z"/><glyph unicode="D" horiz-adv-x="1706" d="M-20-18q0 24 22 30 40 8 77 15t77 25q92 42 163 116t126 164 95 189 74 189q30 80 54 161t50 162 56 160 70 155q-56-32-114-59t-112-61q-80-50-158-115T342 958q-10-22-14-44t-10-44q-2-8-10-13t-16-5q-18 0-25 10t-7 26q0 80 34 150t91 130 129 112 149 95 152 78 137 61q4 2 7 4t9 2q12 0 23-9t11-23q0-2-9-24t-19-49-21-52-13-33q82 88 182 142t222 54h40q52-8 102-30t94-55 80-74 60-87q30-60 44-126t14-132q0-116-35-239t-98-241-149-224-190-186T1084 5 842-42Q720-42 612 9T416 142Q336 58 229 5T6-48q-12 0-19 10t-7 20zm476 206q76-66 170-109t196-43q106 0 204 37t186 101 162 149 132 181 98 196 60 196q4 28 7 53t3 53q0 76-23 151t-67 134-108 95-148 36q-60 0-116-21t-106-54-94-74-80-83q-16-20-41-46t-37-48q-4-10-10-27t-12-36-12-37l-10-30q-24-72-49-144t-51-144q-50-132-109-254T456 188z"/><glyph unicode="E" d="M-10-58q0 10 6 16 58 64 141 95t167 41q58 134 112 269t104 273q-4-2-18-8t-28-13-26-12-14-5q-14 0-26 13t-12 25v4q0 2 2 2 24 46 71 77t95 47q52 156 90 314t92 312q-76-22-145-61t-121-99q-16-16-26-34t-24-34q-6-10-20-10-10 0-22 8t-12 22q0 6 2 8 54 108 139 175t187 104 215 52 221 21q180 8 342 35t328 101q4 2 10 2 14 0 23-11t9-23-6-18q-64-64-157-103t-181-55q-86-16-172-22t-172-9-172-8-170-23q-10-162-51-318t-93-308q56 0 111-8t111-8q50 0 99 5t97 17q6 2 19 6l26 8 24 8 13 4q10 0 22-14t12-22q0-12-10-18-76-48-172-70t-184-22q-34 0-66 4t-66 4q-42 0-76-8-52-148-116-290T386 98q66 0 131-10t129-21 129-21 131-10q30 0 60 2t60 8q98 20 167 70t139 116q8 8 16 8 12 0 23-11t11-21q0-6-4-14-90-126-218-190T878-60q-62 0-122 7T636-37 516-20t-122 8h-34l-34-2-15-30-25-18q-14 0-25 8t-11 22q0 6 4 10-34-6-62-13t-53-16-51-20-58-23h-6Q10-94 0-83t-10 25z"/><glyph unicode="F" horiz-adv-x="1112" d="M164-26q22 52 47 106t47 106q92 222 174 450-4-2-17-8t-28-13-27-12-14-5q-12 0-24 13t-12 25l2 6q24 46 70 77t96 47q52 156 89 314t91 312q-76-22-145-61t-121-101q-16-16-26-33t-24-33q-6-10-18-10t-23 8-11 22q0 6 2 8 54 108 139 175t187 104 215 52 221 21q180 8 342 35t328 101q4 2 10 2 12 0 22-11t10-23-8-18q-64-64-156-103t-182-55q-84-16-170-22t-173-9-173-8-170-23q-10-162-50-318t-92-308q56 0 111-8t111-8q50 0 99 5t97 17q6 2 19 6l26 8 24 8 13 4q10 0 22-14t12-22q0-12-10-18-76-48-172-70t-184-22q-34 0-67 4t-67 4q-18 0-37-2t-37-6q-48-132-104-262T328 152q-26-48-53-103T220-52q-10-10-22-10t-23 8-11 22v6z"/><glyph unicode="G" horiz-adv-x="1290" d="M-338-748q0 108 33 218t91 211 137 184T96 0q12 4 16 4 12 0 21-9t9-21q0-16-16-26-22-16-42-30t-42-30q-88-74-151-171t-101-205q-20-58-32-119t-12-125q0-92 30-164t84-121 129-75 165-26q46 0 91 8t87 28q90 38 158 121t120 191 90 234 67 250 51 238 44 200q-30-36-65-73t-76-66-86-48-95-19q-12 0-24 1t-22 3q-82 18-142 63T252 120t-59 137-19 153v17l2 17q10 200 72 384t176 350q22 30 45 61t49 59q40 42 91 74t107 55 114 38 114 25q114 18 224 29t222 37h4q30 0 30-32 0-20-20-26-28-12-62-18t-64-12q-80-16-161-25t-161-25q-108-22-204-60t-170-122q-70-78-127-176t-97-206-61-220-21-218q0-76 22-153t80-131q34-32 76-53t88-21q48 0 100 34t103 89 100 123 91 135 76 127 56 98q34 58 72 122t80 126 87 120 91 106q14 10 24 10 32 0 32-30 0-4-2-9t-4-9q-72-104-135-205t-119-205-104-213-88-229q-40-116-67-235t-53-239-56-239-74-235q-40-102-92-196t-123-164-165-112-216-42q-104 0-194 33t-157 94-105 147-38 192z"/><glyph unicode="H" horiz-adv-x="1848" d="M82-54q0 24 22 28 40 10 76 18t76 26q90 44 157 121t116 170 83 193 60 190l14 46-20-10-32-16-30-15-16-7q-14 0-25 11t-11 23q0 14 21 37t50 45 57 40 42 24q30 120 62 239t84 233q-54-34-111-63t-111-65q-38-26-77-56t-73-64-62-74-44-84q-10-28-11-46t-7-42q-4-10-12-15t-18-5-19 6-11 16v-2q0 8-1 15t-1 15q0 116 68 213t168 175 214 139 204 105l8 4 8 2q14 0 25-10t11-24v-4q-16-46-31-89t-31-89q-30-96-56-192t-54-192q66 18 133 24t135 6q66 0 132-3t132-3q62 0 123 4t121 18q32 100 68 197t82 193q16 32 32 66t36 62q8 12 24 12 12 0 23-8t11-24q0-4-11-39t-27-86-36-112-38-115l-32-96-18-56q0-2 1-4t1-4q0-12-10-18-30-94-62-199t-58-213-42-215-16-205q0-24 2-58t12-65 29-52 55-21q34 0 78 21t86 45 73 45 37 21q12 0 22-11t10-23q0-8-10-18-26-24-63-52t-79-51-84-39-78-16q-64 0-100 32t-55 80-24 104-5 102q0 84 13 180t34 193 47 191 50 176q-64-16-129-23t-130-10-130-3-131-2q-138-6-270-54-46-156-102-311T558 186q-36-54-85-104T365-5 241-64 108-86q-12 0-19 11t-7 21z"/><glyph unicode="I" horiz-adv-x="1056" d="M-204-128q0 8 4 16 44 54 104 91T32 39t139 33 137 10q18 0 36-1t36-1q76 176 147 354t133 362q52 156 90 313t90 313h-2q-106 0-205-27t-195-69q-24-10-49-22t-49-22l-6-2q-12 0-24 12t-12 24q0 8 6 14 46 54 107 92t130 60 141 32 140 10q92 0 182-6t182-6q50 0 100 3t100 11q14 4 27 6t25 6q10 4 18 7t18 3 21-12 11-22q0-16-12-22-62-30-135-45t-149-21q-65-5-130-5h-21q-75 1-143 1-12-156-58-334T746 732 603 385 452 78q60-4 119-6t117-2q50 0 99 3t97 11q14 4 26 6t26 6q10 2 17 6t17 4 21-13 11-23q0-16-12-22-64-30-139-45T698-17q-65-4-129-4h-26q-77 1-147 1-6-6-14-6t-16 6h-32q-106-2-205-29t-195-67q-24-10-48-23t-50-23h-6q-12 0-23 11t-11 23z"/><glyph unicode="J" horiz-adv-x="774" d="M-840-474q0 112 41 224t110 213 158 182 187 129q12 4 16 4 12 0 20-9t8-21q0-18-16-28-22-12-42-24t-40-26Q-498 100-572 4t-124-206q-28-62-44-127t-16-131q0-74 25-138t83-110q64-48 144-70t156-22q116 0 205 37T12-661t115 152 85 187q44 118 75 240t58 245 57 245 72 242q64 180 149 351t199 323q-36-18-73-36t-71-40q-86-52-168-122T392 960q-8-18-11-35t-7-35q-2-8-10-13t-16-5-21 7-13 17q0 74 27 138t70 119 99 100 114 81q94 58 193 112t203 92h6q10 0 23-12t13-24q0-14-18-29t-28-25q-20-22-38-47t-36-51q-120-170-207-357T578 612q-42-118-73-240t-60-245-61-245-76-240q-42-114-100-213T72-742t-181-113-235-41q-96 0-189 29t-169 89q-74 58-106 136t-32 168z"/><glyph unicode="K" horiz-adv-x="1496" d="M20-28Q20-4 42 0q42 10 78 17t76 23q92 42 160 116t119 165 89 190 68 187q26 80 48 162t46 163 51 161 65 156q-56-34-113-61t-113-61q-80-52-157-119T348 938q-8-20-10-38t-8-40q-2-8-10-13t-18-5q-22 0-27 13t-5 29q0 78 33 147t88 129 125 111 145 94 149 77 134 62q4 2 7 3t7 1q14 0 25-9t11-23v-6q-16-40-31-79t-29-79q-30-84-56-169t-52-171q104 62 214 112t214 114q74 44 132 100t114 120q22 24 42 52t42 50q6 8 18 8 8 0 23-11t15-21q0-6-10-32t-12-34q-44-108-129-186t-183-134q-118-66-243-114T818 890q66-52 108-121t70-149 43-163 37-165q12-46 24-93t34-93q24-54 61-87t101-33q44 0 93 17t92 38 73 39 36 18q12 0 22-10t10-24-10-18q-34-28-73-51t-77-43q-42-22-88-36t-94-14q-76 0-127 35t-84 88-54 117-37 124q-22 78-41 157t-45 157q-20 64-47 125t-67 117q-52-162-113-324T504 198q-40-54-91-101T304 15 180-39 46-58q-10 0-18 10t-8 20z"/><glyph unicode="L" horiz-adv-x="1556" d="M144-10q0 14 10 19t20 9q62 82 115 172t98 183 86 188 81 191q54 124 117 247t145 231 188 191 244 125h4q10 0 19-12t9-22q0-16-14-24-40-20-74-34t-74-42q-88-60-158-141t-126-173-101-191-85-195q-36-84-69-170t-71-170-85-163T316 60q74 12 152 12 86 0 173-11t173-23 172-23 174-11q100 0 196 18t184 70q20 12 37 25t37 27q6 6 14 6 10 0 21-12t11-22q0-8-8-16-52-56-117-92t-136-58-147-31-148-9q-64 0-128 5T848-72Q734-56 621-46T392-36q-46 0-92-2t-92-6q-6-6-14-12t-18-6q-12 0-22 10t-10 24q0 6 2 10 0 2-1 3t-1 5z"/><glyph unicode="M" horiz-adv-x="1912" d="M20-28Q20-4 42 0q42 10 79 17t77 23q94 42 165 116t127 164 97 188 75 188q30 80 56 162t53 163 58 161 73 156q-56-34-114-61t-114-61q-42-24-84-53t-80-64-69-75-49-86q-8-20-12-39t-10-39q-2-10-10-15t-16-5-20 8-12 16q0 74 26 138t70 119 99 101 113 82q92 58 194 113t204 89h4q20 0 30-16 6-4 8-12t-2-14q34-134 52-271t32-275q10-100 19-197 5-58 5-117 0-40-2-80 76 100 154 197t148 199q78 112 154 221t156 217q28 36 57 74t59 72q8 8 18 8 12 0 26-13t14-25v-4q-62-224-136-440t-126-444q-24-108-43-215t-19-215q0-28 2-66t12-73 31-59 61-24q36 0 80 19t85 43 71 43 36 19q12 0 22-10t10-22q0-10-10-20-24-22-62-48t-80-49-84-39-74-16q-40 0-71 16t-55 43-38 61-18 70q-4 38-8 75t-4 75q0 96 20 223t50 260 66 258 70 217q-46-74-93-146t-95-142q-42-64-86-128t-93-126-104-116-119-96q-4-2-12-2-10 0-20 8t-14 18l-2-2q-2 0-2 2t-2 4q-20 58-29 120t-13 124q-4 60-7 120t-7 120q-8 108-15 217t-17 219q-68-170-126-342T758 660q-48-124-106-242T514 194q-42-54-94-100T308 14 181-39 46-58q-10 0-18 10t-8 20z"/><glyph unicode="N" horiz-adv-x="1528" d="M-122-28q0 24 22 28 40 10 77 17t77 23q94 42 165 116t127 164 97 188 75 188q30 80 57 162t54 163 58 161 71 156q-56-34-114-61t-114-61q-80-48-159-114T252 946q-10-22-14-43t-10-43q-6-20-28-20-6 0-19 8t-13 16q0 74 26 138t70 119 100 101 114 82q94 58 193 112t203 90h4q16 0 29-12t9-28q58-194 88-390t54-396q16-136 32-271t24-273q74 182 135 365t131 365q52 132 112 257t144 237q44 56 99 105t118 86 133 58 142 21q10 0 18-10t8-20q0-24-24-30-44-10-82-17t-82-25q-100-44-175-123t-134-175-102-200-79-200-72-211-77-230-92-221-119-184q-6-6-15-8t-19-2q-18 0-24 16-30 76-45 167t-25 173q-30 260-49 519t-67 515q-70-176-130-352T614 660q-48-124-105-242T370 194q-42-54-94-100T164 14 38-39-98-58q-10 0-17 10t-7 20z"/><glyph unicode="O" d="M184 312q0 102 22 198t59 188 86 178 103 170q36 52 71 106t75 106q12 12 24 12t21-9 9-21q0-6-4-18-64-100-131-205T397 801t-90-228-35-243v-39l4-41q6-52 30-91t60-67 82-42 94-14q70 0 141 31t136 78 122 104 99 109q64 80 124 171t107 189 75 202 28 210q0 68-18 129t-55 106-92 71-129 26q-88 0-165-30t-151-74q-8-4-16-4-14 0-23 9t-9 21 12 24q76 64 177 106t199 42q92 0 163-34t119-92 73-135 25-163q0-120-30-232t-80-216-117-202-139-188q-48-60-113-122T866 58 711-27 550-60q-66 0-128 21T310 20t-83 93-39 125q-2 18-3 37t-1 37z"/><glyph unicode="P" horiz-adv-x="1390" d="M-40 12q0 24 22 28 40 10 76 17t76 23q92 40 161 113t121 163 90 187 68 185q26 80 49 162t47 163 52 161 66 156q-56-34-114-61t-114-61q-40-24-81-53t-77-63-65-73-47-85q-8-20-11-39t-7-41q-4-10-12-15t-16-5q-22 0-27 13t-5 29q0 68 26 129t67 114 94 97 107 78q90 58 190 113t200 89h4q12 0 25-10t13-24q0-2-7-22t-16-44-18-46-11-28q36 34 80 65t92 55 99 38 103 14q80 0 136-34t91-88 51-122 16-136q0-108-39-204t-105-179-153-149-186-112-203-71-202-25q-10 0-24-1t-30 1-30 5-20 13q-26-52-55-103t-65-97Q362 124 242 53T-16-18q-10 0-17 10t-7 20zm624 464q10 4 20 3t20-1q132 0 277 51t268 141 203 213 80 269q0 44-9 93t-31 88-59 65-91 26q-32 0-64-8t-62-20q-86-34-160-93t-132-131q-10-12-21-27t-19-29q-10-22-21-63t-19-67q-22-72-46-145t-48-145q-20-56-41-111t-45-109z"/><glyph unicode="Q" horiz-adv-x="1382" d="M174 274v38q0 102 22 198t59 188 86 178 103 170q34 50 72 108t74 104q12 12 24 12t21-9 9-21q0-6-4-18-50-78-98-152t-92-149-82-155-66-170q102-8 169-58t114-123 83-156 76-157q84 48 155 114t129 142q64 80 125 171t108 189 75 202 28 210q0 68-18 129t-55 106-92 71-129 26q-88 0-165-31t-151-73q-8-4-16-4-14 0-23 9t-9 21 12 24q36 32 81 59t95 47 101 31 99 11q92 0 163-34t119-92 73-135 25-163q0-120-30-232t-81-217-117-202-138-187q-64-82-141-152T800 20q36-44 78-62t98-18q54 0 118 16 4 2 23 8t21 6q10 0 21-13t11-23q0-16-30-30t-68-24-75-15-51-5q-74 0-132 30T710-22q-42-16-84-28t-88-12q-66 0-128 21T299 19t-82 95-39 124q-4 18-4 36zm88 18q0-20 4-42 6-52 30-91t60-67 82-42 94-14q34 0 62 7t60 17q-40 66-72 136t-71 132-93 113-136 81q-10-46-15-94t-5-94v-42z"/><glyph unicode="R" horiz-adv-x="1510" d="M0 6q0 26 22 30 42 8 79 15t77 25q92 42 164 116t127 164 97 188 76 188q46 118 82 237t82 237q0 12 6 18 16 40 33 76t37 72q-56-32-114-59t-114-61q-84-52-165-120T370 968q-8-18-11-36t-9-38q-2-8-10-13t-16-5-21 7-13 17q0 74 27 138t70 119 99 100 114 81q88 56 193 113t203 91h6q12 0 25-11t13-23q0-4-8-22t-17-41-18-44-11-27q74 54 168 97t190 43q42 0 83-13t72-37 50-60 19-84q0-44-15-87t-39-79q-100-150-256-245T922 796q54-42 87-98t56-118 37-128 30-128q12-46 23-91t29-89q22-52 56-84t94-32q42 0 90 17t90 37 71 37 35 17q14 0 23-11t9-25-10-18q-30-24-71-49t-77-41q-40-22-85-35t-93-13q-90 0-143 50t-86 129-55 176-53 191-78 174-129 124q-56-148-120-290T492 230q-40-54-92-100T288 49 161-5 26-24Q14-24 7-14T0 6zm802 864q90 14 179 39t171 66 153 99 123 136q16 24 28 52t12 58q0 28-13 47t-34 31-45 17-48 5q-50 0-103-16t-104-40-98-54-85-60q-36-96-69-190t-67-190z"/><glyph unicode="S" horiz-adv-x="1246" d="M0 422q0 90 37 189t95 169q12 12 24 12t21-9 9-21q0-10-6-18-46-70-77-146T72 434q0-90 39-159t102-117 143-72 162-24q126 0 224 53t182 143q44 50 74 104t30 124q0 52-20 92t-56 78q-38 38-77 71t-81 67q-40 30-91 68t-97 81-82 92-46 101q-4 16-5 32t-1 32q0 66 22 118t61 89 92 61 115 36q56 10 112 11t112 5q108 6 214 10t210 38q2 0 4 1t6 1q12 0 21-10t9-22q0-18-16-28-42-26-99-41t-117-24-119-14-109-9q-84-6-174-20t-162-60l-18-12-16-12q-20-22-30-54t-10-60q0-62 32-108t78-84q42-34 83-68t85-68q46-36 94-78t88-90 65-104 25-120q0-84-40-157t-92-133Q908 92 785 32T524-28q-96 0-190 31T166 92 46 233 0 422z"/><glyph unicode="T" horiz-adv-x="1164" d="M154 1146q0 8 2 10 66 128 163 204t213 116 244 55 256 23q104 6 202 15t194 26 191 46 189 75q4 2 10 2 14 0 23-11t9-23-6-18q-78-74-177-115t-206-62-216-27-211-10q-12-188-62-370T860 722q-52-154-116-301T608 130q-28-56-59-119t-63-115q-6-12-20-12-12 0-23 9t-11 23v6q28 66 58 132t58 134q58 140 113 281t103 285q58 180 101 364t109 360q2 2 3 4t3 4q-88-14-181-29t-183-42-172-68-148-105q-28-28-47-56t-41-58q-6-12-20-12-12 0-23 8t-11 22z"/><glyph unicode="U" horiz-adv-x="1538" d="M226 912q0 70 25 131t67 113 95 95 107 77q90 56 183 105t191 85q4 6 11 10t13 4q12 0 23-9t11-23q0-6-2-8-30-82-71-186t-85-219-86-235-75-236-54-221-21-189q0-28 1-57t10-53 28-40 55-16q48 0 96 26 108 56 196 151t158 195q14 18 30 40t26 42q6 14 9 32t7 34q10 32 18 63t18 65q60 190 129 375t171 357q16 26 31 52t33 50q6 10 20 10 16 0 25-10t11-26q-34-94-79-202t-92-224-92-238-80-240-57-231-22-211q0-40 18-78t64-38q32 0 76 18t85 41 72 41 37 18q12 0 21-11t9-23-10-18q-46-40-114-80t-128-56q-26-8-58-8-52 0-84 23t-50 59-24 79-6 85q0 30 3 60t7 60q-36-54-89-120T921 79 787-16 646-54q-60 0-97 25t-57 64-27 87-7 96q0 64 9 125t23 121q52 236 128 462t190 440q-58-34-117-62t-117-62q-78-48-155-112T306 978q-10-20-13-38t-9-38q-4-18-26-18-10 0-21 8t-11 20z"/><glyph unicode="V" horiz-adv-x="1428" d="M102 912q0 110 69 203t169 166 213 128 201 91q12 6 22 6 12 0 21-12t9-24q0-8-6-14 24-92 32-186t8-190q0-106-8-211t-18-211q-16-138-28-276t-34-276q48 66 128 162t171 208 184 234 168 241 122 226 47 191q0 48-24 88-26 40-72 58t-90 26q-14 2-29 2t-29 4q-24 4-24 28 0 32 30 32 62 0 120-13t103-42 71-78 26-121q0-94-51-218t-133-259-184-273-205-261-197-223T726-38q-8-8-22-8-12 0-22 4t-14 18q-8 34-9 79t-1 79q0 136 19 269t35 267q16 142 30 282t14 284q0 84-6 168-70-58-149-93t-155-81-151-109-111-147q-10-20-13-38t-9-40q-8-18-26-18-16 0-25 10t-9 24z"/><glyph unicode="W" horiz-adv-x="2270" d="M154 912q0 74 32 140t85 123 121 106 140 90 143 73 129 56q12 6 22 6 14 0 23-12t9-24q0-8-6-14 24-92 31-186t7-190q0-106-7-211t-19-211q-14-128-26-256t-30-258q64 94 131 182t131 182q70 102 138 203t138 203q32 48 64 98t66 96q8 8 20 8t22-9 14-19q28-72 43-151t21-160 7-162 1-157q0-96 3-189 1-40 1-80 0-54-2-109 134 186 283 360t283 362q42 60 98 144t105 175 84 182 35 165q0 26-5 52t-21 48q-28 44-80 64t-102 26q-14 4-28 3t-26 3q-24 2-24 30 0 12 7 21t21 9q68 0 129-14t108-46 75-84 28-130q0-100-53-232t-139-277-194-293-216-280-207-238-167-168q-8-8-18-8-26 0-34 26l-6 6q-28 74-37 148t-9 152q0 110 5 219t5 221q0 70-4 138t-14 138q-78-142-161-279t-173-273q-82-124-169-248T782-18q0-12-11-20t-21-8q-26 0-32 22-8 34-8 79v79q0 136 19 269t35 267q16 142 29 282t13 284q0 84-6 168-68-58-147-93t-155-81-151-109-111-147q-10-20-14-38t-10-40q-4-18-26-18-16 0-24 10t-8 24z"/><glyph unicode="X" horiz-adv-x="1346" d="M-164 254q0 14 10 22t22 8q14 0 24-12 10-14 17-28t17-26q34-56 83-111t113-75q20-6 42-6 32 0 64 14t60 36 52 48 44 50q112 140 199 298t175 314l62 112v36q0 94-7 195t-41 189q-38 102-148 102-42 0-97-19t-104-43-85-43-42-19q-12 0-21 10t-9 22 10 22q28 22 74 48t97 49 100 38 85 15q72 0 134-39t88-109q28-70 42-144t18-148q38 64 93 144t123 150 145 117 161 47q62 0 127-29t105-77q6-10 6-20 0-12-9-22t-23-10q-6 0-21 10t-36 22-48 22-61 10q-46 0-88-17t-81-43-73-60-60-66q-70-90-133-183T920 864q2-162 6-314t42-312q22-98 87-149t167-51q24 0 48 5t40 5q14 0 22-10t8-24q0-16-16-26-14-8-36-14t-45-10-46-6-37-2q-90 0-150 37t-98 98-57 139-27 160-8 161v141q-84-150-169-296T452 118q-26-30-57-61T329 1t-74-40-83-15q-50 0-92 19T2 14t-65 69-53 79q-4 6-11 19t-16 28-15 28-6 17z"/><glyph unicode="Y" horiz-adv-x="1484" d="M-154-748q0 108 33 218t91 211 138 184T282 0q8 4 14 4 12 0 21-9t9-21q0-16-16-26-20-16-40-29t-40-29q-90-74-153-172T-26-488q-20-58-32-119t-12-125q0-92 30-164t84-121 129-75 165-26q46 0 91 8t89 28q70 30 127 88t102 134 80 163 61 175 45 172 33 152q24 108 48 217t54 217q-34-44-81-95T885 47 770-25 650-54t-97 25-56 64-26 87-7 96q0 64 8 125t22 121q52 236 128 462t190 440q-58-34-117-62t-117-62q-78-48-155-112T310 978q-8-20-12-38t-8-38q-6-18-28-18-10 0-21 8t-11 20q0 70 25 131t67 113 95 95 107 77q90 56 183 105t193 85q2 6 9 10t13 4q12 0 23-9t11-23q0-6-2-8-30-82-71-186t-85-219-86-236-75-236-54-220-21-189q0-28 1-57t10-53 28-40 55-16q26 0 50 8t46 18q72 36 132 89t113 115 100 129 89 131q4 4 4 6 36 76 80 157t94 160 106 152 114 133q10 10 24 10 12 0 21-8t9-22q0-12-6-18-72-104-135-205t-119-205-103-213-87-229q-40-116-67-235t-54-239-57-239-74-235q-40-104-92-197t-123-164-165-112-216-41q-104 0-194 33t-157 94-105 147-38 192z"/><glyph unicode="Z" horiz-adv-x="1264" d="M-20 0q0 12 8 18 0 14 8 20 70 72 141 141t141 139q150 148 299 292t305 284q138 126 278 248t292 230q-38-6-76-8t-76-2q-128 0-254 15t-252 15q-118 0-234-25t-210-101q-22-18-39-37t-35-39q-8-8-16-8-12 0-23 10t-11 22q0 8 4 12 50 80 121 131t153 80 171 40 177 11q104 0 206-9t206-9q120 0 227 15t221 49l4 2q14 0 24-12t10-24-8-20q-62-56-127-109t-129-105q-136-110-270-220T950 818Q752 642 560 465T168 112q14 2 27 3t27 1q78 0 155-23t147-55Q644-14 760-72t236-110q126-54 261-84t273-30q172 0 319 45t291 137q8 4 14 4 14 0 22-11t8-23-8-20q-68-58-151-99t-173-69-183-41-179-13q-274 0-534 110-120 52-238 107T480-62Q412-32 337-5T186 22q-48 0-83-12T28-28q-6-4-16-4-12 0-22 10T-20 0z"/><glyph unicode="[" horiz-adv-x="592" d="M40 10l2 4q26 64 54 126t54 126q56 132 106 264t96 270q38 114 67 230t63 230q16 54 32 111t38 109q4 10 10 11t16 5q52 10 103 18t103 12q22 2 43 5t43 3q56 0 102-32 4-6 7-14t3-16q0-16-14-26t-33-15-39-7-32-2q-28 0-54 1t-54 1q-36 0-72 2t-74 6q-8-108-33-226t-62-241-84-248-98-244-105-229T124 40q72 16 146 18 22 2 43 5t43 3q58 0 102-32 4-6 7-14t3-16q0-16-14-26t-33-15-39-6-32-1q-24 0-49 1t-51 1q-46 0-93 2t-95 8q-8 6-15 18t-7 24z"/><glyph unicode="\" horiz-adv-x="526" d="M266 1506q0 10 13 19t23 9q18 0 24-14 32-66 58-153t46-186 34-203 24-205 14-194 4-167q0-64-2-128t-6-128q-4-28-4-58t-6-58q-4-22-28-22-10 0-20 7t-12 17q-2 18-1 39t1 39q0 46-1 91t-3 91q-6 136-17 270t-29 268q-16 120-41 235t-45 235q-10 46-18 98t-8 98z"/><glyph unicode="]" horiz-adv-x="612" d="M-164 16q0 14 12 30 40 20 88 20 24 0 47-3t47-3q40-4 92-6t94-12v2q20 56 45 109t47 107q54 132 103 265t91 271q34 108 57 217t51 219q14 52 27 105t33 103q-60-10-121-14t-123-4q-14 0-35 3t-40 9-33 18-14 30 14 32q38 20 86 20 24 0 48-3t46-5q46-2 105-6t101-14q8-2 13-11t5-17q0-10-6-16 18-10 18-22 0-172-42-342t-94-332q-46-144-104-284T368 206q-22-46-45-95t-51-93q-6-10-18-10-2-14-18-30-70-14-139-19t-139-5q-14 0-35 3t-40 10-33 19-14 30z"/><glyph unicode="^" horiz-adv-x="752" d="M266 1218l2 6q8 12 17 25t17 23q54 70 119 125t145 95q14 6 29 14t29 12h28q74 0 140-44 78-54 151-126t135-146l2-6q0-14-12-25t-26-11h-4q-2 0-2 2-36 30-84 72t-101 82-105 69-98 33q-44-18-82-47t-76-59q-10-8-37-30t-57-44-56-40-36-18q-14 0-26 12t-12 26z"/><glyph unicode="_" horiz-adv-x="1182" d="M-20 50q0 10 5 18T0 80q20 6 57 10t76 6 76 3 61 1q68 0 135-2t135-2q108 0 216-2t216-6q38-2 74-3t72-3h30l32-2q10-2 16-11t6-19-6-19-16-11q-16-4-40-5t-51-3-52-3-43-1Q880 2 767-2T540-6q-62-2-122-4t-122-2q-28 0-69 1t-83 5-82 9-64 15q-10 4-14 13t-4 19z"/><glyph unicode="`" d="M1046 1390q0 10 11 25t21 15q42 0 78-26 14-10 26-21t26-21q72-50 130-108 0-2 1-4t1-4q0-12-11-26t-23-14-42 14-65 32-65 36-42 26q-16 10-31 33t-15 43z"/><glyph unicode="a" horiz-adv-x="914" d="M0 96q0 66 17 131t46 126 67 117 80 106q108 134 248 233t304 159q2 2 8 2 14 0 21-10t7-22q0-18-14-24-34-18-67-33t-65-33Q430 720 278 520q-30-40-62-90t-58-103-43-109-17-108q0-8 2-23t6-30 13-26 21-11q58 0 113 30t103 76 86 98 62 98q46 84 82 169t72 171q14 36 33 84t37 82q8 14 26 14 14 0 24-8t10-22l-2-4q-16-72-36-145t-44-143q-10-28-24-62t-22-58q-4-14-5-28t-3-28q-6-32-13-63t-15-63q-10-40-17-81t-7-83V36l2-16q14 0 33 12t39 29 37 35 27 28q60 64 114 142 14 16 25 35t25 35q6 10 18 10 14 0 24-10t10-24q-52-106-108-189T700-38q-44-40-100-40-30 0-57 17t-37 47q-4 10-5 28t-2 38 0 39 1 31Q430 38 335-21T126-80q-6 0-17 4t-17 6Q46-48 23 0T0 96z"/><glyph unicode="b" horiz-adv-x="798" d="M102 186q0 194 48 381t112 369q36 102 81 204t102 199 128 184 155 157q6 6 14 6 14 0 24-10t10-22q0-10-4-14-72-108-135-202t-117-189-102-198-90-229q68 62 144 107t172 45q16 0 24-2 10-2 29-12t29-16q60-40 86-101t26-131q0-60-16-119t-48-109Q666 310 519 167T194-74v-8q0-10-11-21t-21-11q-26 0-26 24-18 10-18 30 0 8 6 18-22 116-22 228zm74-72q0-52 6-106 42 36 100 87t120 109 123 122 110 130 79 130 30 124q0 26-7 57t-20 58-35 45-52 18q-46 0-93-19t-91-47-84-61-74-61q-46-144-79-290t-33-296z"/><glyph unicode="c" horiz-adv-x="652" d="M62 222q0 86 20 164 20 88 59 174t95 160 128 131 160 91q30 12 68 23t72 11q10 0 19-12t9-22q0-20-16-26-34-16-67-30t-65-36q-134-82-230-208T178 364q-18-78-18-158 0-28 4-61t15-65 30-58 49-38q2-2 7-2h7q50 0 92 27t76 61q54 54 102 124l20 28 20 26q6 10 18 10t23-9 11-21q0-4-9-20t-21-35-23-36-15-23q-28-42-59-82t-68-70-83-48-100-18q-12 0-18 2-38 6-67 29t-50 56-33 70-18 71q-4 24-6 48t-2 50z"/><glyph unicode="d" horiz-adv-x="908" d="M62 154q0 86 21 175t58 174 87 162 110 137q70 70 164 109t196 39h27l27-2q22 74 51 158t65 168 79 162 91 138q6 10 20 10 12 0 23-9t11-23q0-6-2-10-64-154-123-307T856 922q14-4 32-12t18-24q0-14-8-24t-22-10q-8 0-19 4t-19 8q-30-92-60-196t-55-210-41-211-16-201V25l2-25 7-21 17-9q18 0 51 28t67 65 65 72 45 49q6 10 18 10t22-10 10-22q0-10-4-14-40-62-88-116T776-70q-40-36-86-36-40 0-62 22t-33 53-14 67-3 66q0 20 1 39t3 37q-26-38-66-85T429 4t-98-71-101-29q-52 0-85 24T94-11 69 70t-7 84zm102 16q0-16 1-43t8-53 20-44 37-18q32 0 85 39t108 92 105 105 74 76q4 4 8 4 10 140 47 279t75 273h-24q-113 0-201-55-91-57-158-146T239 482t-63-208q-12-52-12-104z"/><glyph unicode="e" horiz-adv-x="718" d="M72 248q0 152 64 291t172 245q32 32 74 65t89 60 96 44 95 17q58 0 93-39t35-97q0-50-24-99t-61-93-81-80-82-62q-58-40-121-74t-137-34q-16 0-35 4t-19 26q0 28 26 34 6 2 14 2t16 2q22 4 43 14t43 22q34 22 86 62t102 88 85 98 35 94q0 28-30 28-12 0-24-4l-24-8q-96-32-176-97T288 606t-91-184-33-196q0-32 5-73t20-77 41-61 68-25q16 0 30 5t28 13q54 30 100 81t82 103q10 12 19 26t19 28q6 10 20 10 12 0 23-8t11-22q0-4-4-12-24-44-60-97t-80-99-95-77-107-31q-62 0-103 35t-65 86-34 110-10 107z"/><glyph unicode="f" horiz-adv-x="588" d="M-1024-746q0 12 9 20t21 8q14 0 26-12 16-22 30-41t30-39q68-72 154-124t186-68q12-2 24-3t24-1q78 0 145 33t123 88 101 127 82 148 64 151 47 137q40 126 74 251t74 251q56 168 109 333t115 329q-66-6-132-10t-132-4q-8 0-15 13t-7 21q0 20 16 26 24 6 49 10t49 8q52 10 106 19t108 19q6 18 13 35t15 33q42 106 102 209t139 186 179 139 220 68h8q12 0 21-9t9-21q0-22-22-30-34-14-63-23t-63-25q-80-40-145-99t-118-129-94-148-73-158l-2-6q40 6 79 12t79 6q20 0 54-3t52-11q8-4 13-16t5-20q0-6-3-13t-11-11q-70-32-154-39t-160-15q-70-176-130-352T286 148q-42-126-78-254t-78-253-96-246-130-231q-36-50-81-95t-98-79-113-54-122-20q-76 0-151 27t-142 71-123 102-94 122q-4 12-4 16z"/><glyph unicode="g" horiz-adv-x="866" d="M-450-750q0 12 10 20t22 8q14 0 24-14 10-18 19-36t23-34q52-64 127-107t157-43q94 0 166 66 56 50 106 122t95 156 84 176 72 183 61 177 52 158Q496 12 412-28T226-68h-6l-6 2q-46 10-77 36T87 31t-27 76-8 83q0 120 35 238t105 218q44 60 100 117t122 100 140 70 152 27q12 0 38-2t53-7 48-15 21-24q0-4-4-12-4-34-7-65t-9-63q-10-66-22-130t-26-128Q748 284 675 62T514-378q-32-78-67-157t-78-154-95-143-118-124q-92-82-212-82-64 0-124 22t-112 59-93 88-63 109q-2 2-2 10zm600 956q0-22 3-52t12-57 28-46 49-19q62 0 121 30t109 76 89 103 63 109q60 130 97 266t75 272q-30 8-68 8-70 0-138-26t-128-69-110-97-88-108q-56-84-85-186t-29-204z"/><glyph unicode="h" horiz-adv-x="1010" d="M0-186q0 2 3 14t6 27 6 28 3 17q46 202 110 396t126 392q54 176 110 349t114 347q18 58 37 116t39 116q10 24 17 50t17 50q6 16 24 16 10 0 22-9t12-21l-2-2q-64-256-137-508T358 688q42 44 106 103t136 111 147 89 139 37q14 0 28-8t26-21 20-28 8-29q0-22-2-45t-8-45q-20-80-48-158t-59-155-61-154-54-157q-10-34-21-77t-11-79q0-18 5-36t27-18q36 0 86 22t96 49 80 50 42 23q14 0 22-10t8-22q0-16-10-20-24-22-67-51T903 4t-93-45-78-19q-24 0-44 11t-35 29-24 40-9 44q0 4 1 9t1 9q6 44 12 86t18 84q20 80 49 157l58 154 56 154 45 157q4 12 5 24t3 24q-34-4-77-26t-87-52-83-63l-65-55q-32-28-74-66t-82-80-74-85-48-83q-16-40-26-81t-24-81q-26-84-55-168T110-86q-12-28-24-59t-28-57q-8-14-24-14-10 0-22 9T0-186z"/><glyph unicode="i" horiz-adv-x="530" d="M134 78v72q0 52 11 108t23 108q18 78 41 168t54 179 71 172 90 145q10 10 20 10 12 0 24-9t12-23v-4q-34-106-77-223t-82-238-66-241-27-232q0-12 1-34t13-28q44 8 93 46t92 80 75 76 44 34q10 0 21-10t11-20-6-16q-38-46-73-91t-74-83-87-65-110-39q-54 24-74 63t-20 95zm348 1380q0 36 7 59t53 23q18 0 34-16t16-34q0-12-10-28l-2-6q4-12 4-18-14-10-20-21t-28-11q-18 0-36 15t-18 37z"/><glyph unicode="j" horiz-adv-x="462" d="M-820-490q0 12 11 20t23 8q14 0 22-14 10-16 19-33t23-33q48-66 124-110t160-44q96 0 168 66 56 50 103 117t86 140 71 148T50-80q70 176 128 353t114 359l72 238q10 26 16 52t16 50q10 20 30 20 12 0 22-8t10-22q0-32-8-72t-14-72q-42-244-121-475T144-118q-32-78-67-157T0-429t-94-143-118-124q-96-80-212-80-64 0-125 21t-113 58-92 88-64 109q0 4-1 5t-1 5zM406 1490q0 20 17 34t35 14q10 0 18-2l16-4q26-20 24-48 2-4 4-9t4-9q-4-16-7-26t-13-22l4 10q-18-24-42-24-32 0-46 29t-14 57z"/><glyph unicode="k" horiz-adv-x="808" d="M0-186q0 2 3 14t6 27 6 28 3 17q46 202 110 396t126 392q108 350 222 696 20 58 39 116t39 116q8 24 15 50t17 50q10 16 24 16 10 0 22-9t12-21v-2q-70-278-149-549T334 606l112 92 110 94q58 52 109 115t109 109l8 4 8 2q6 0 22-13t16-19q0-4-6-23t-8-25q-28-70-81-124T622 716q-52-44-110-83t-116-75q50-24 82-66t53-93 35-108 28-111 33-100 51-78q24-24 56-33t66-9q22 0 42 4t40 4q8 0 18-14t10-22q0-16-14-22-30-10-65-17t-67-7q-78 0-127 36t-81 92-53 126-44 140-55 132-84 100l-16-10q-40-134-80-265T134-24q-16-40-35-90t-41-88q-6-14-24-14-10 0-22 9T0-186z"/><glyph unicode="l" horiz-adv-x="610" d="M154 214q0 112 22 220t48 216q50 210 121 410t179 388q20 36 41 72t45 68q8 12 22 12 12 0 23-8t11-22q0-6-2-10-90-232-186-462T322 626q-28-108-51-219t-23-225q0-30 1-65t10-65 30-51 61-21q44 0 99 28t106 63 89 63 46 28q12 0 22-10t10-22q0-10-8-18-32-30-78-68t-97-70-104-54-97-22q-64 0-100 32T183 9t-24 102-5 103z"/><glyph unicode="m" horiz-adv-x="1360" d="M-10-52q0 2 3 13t6 25 6 26 3 16q34 132 83 260t109 252q28 58 54 117t56 117l28 56 35 63 39 60 38 47q8 8 18 8 8 0 22-11t14-21q0-6-7-26t-15-44-17-45-11-29q22 26 54 62t69 69 77 55 78 22q30 0 49-12t28-31 12-43 3-48q0-40-6-80t-16-80q38 38 92 87t116 92 125 72 117 29q32 0 59-26t27-58q0-38-4-74t-16-72q-24-82-56-163t-64-161-61-160-49-164l-8-40-4-40q0-22 4-37t30-15q34 0 82 22t95 49 82 49 43 22q12 0 21-10t9-22q0-14-35-41t-81-54-89-50-59-29q-38-14-72-14-64 0-89 42T992 80q0 62 22 146t53 173 64 174 55 147q14 42 31 96t17 100q-28-8-65-25t-61-33q-90-60-174-125T766 598q-32-126-72-250t-92-244q-16-34-31-70t-35-66q-8-14-22-14-10 0-23 10t-13 20q0 2 5 25t7 25q28 124 67 243t79 239q32 108 60 216 12 46 22 93t10 93q0 8-1 14t-1 12q-48-10-105-59T508 773 402 647t-84-101q-4-4-6-4-6-12-11-24t-11-22q-46-90-87-178t-79-180Q102 88 85 37T48-64q-6-16-22-16-10 0-23 10t-13 18z"/><glyph unicode="n" horiz-adv-x="926" d="M-20-52q0 2 3 13t6 25 6 26 3 16q34 132 83 260t109 252q28 58 54 117t54 117q12 22 29 54t36 65 39 62 38 45q8 8 18 8 8 0 22-11t14-21q0-6-7-28t-17-47-19-48-11-31q34 32 79 70t96 70 105 53 102 21q28 0 53-25t29-53q4-20 4-30 0-34-13-83t-25-83q-20-58-58-153t-76-195-66-192-28-144q0-22 4-37t30-15q36 0 85 22t95 49 80 49 42 22q12 0 21-11t9-23-10-18q-22-18-52-40t-64-43-67-39-59-28q-46-20-86-20-60 0-87 43t-27 95q0 62 20 141t48 161 59 161 53 139q22 58 40 117t24 123q-36-4-98-40t-129-83-127-93-94-70l-72-144q-48-94-91-187t-83-189Q88 74 72 28T36-64q-6-16-22-16-8 0-21 10t-13 18z"/><glyph unicode="o" horiz-adv-x="890" d="M62 264q0 66 18 130 56 184 180 328t302 216q4 2 10 2 14 0 21-10t7-22q0-14-16-24-28-16-56-31t-56-37q-110-80-188-198T166 370q-14-42-14-94 0-42 12-90t36-89 61-68 87-27q32 0 61 12t55 30q76 54 136 140t102 185 64 202 22 195v24q-4 52-35 88t-77 58q-14 6-27 10t-25 10q-20 8-20 28 0 14 8 24 8 8 18 8h6q44-4 87-20t77-44 57-66 29-86q4-20 4-39v-41q0-76-17-166t-51-180-83-175T627 48 487-57 322-96q-66 0-114 35t-81 89-49 117-16 119z"/><glyph unicode="p" horiz-adv-x="836" d="M-840-650q0 12 11 21t21 9q14 0 22-12 10-16 20-30t20-30q34-48 82-92t112-44q58 0 115 42t111 110 102 151 88 165 71 155 49 117Q54 90 108 270t102 366q16 62 31 122t31 122q8 26 13 53t15 53q8 20 28 20 14 0 24-7t10-21q0-22-2-48t-6-54l14 7 12 7q54 28 103 47t109 29q10 2 19 3t19 1q38 0 72-15t61-40 45-58 24-69q2-20 3-39t1-39q0-128-45-247T676 236q-34-50-73-97t-86-83T415-2 296-24q-8 0-25 1t-23 3q-32 8-58 34t-38 56Q128 6 90-91T2-296t-111-217-130-196-146-141-157-54q-56 0-100 21t-79 56-63 78-52 87q-4 8-4 12zM238 173q0-19 3-37t10-32 23-18q6-2 13-2h13q44 0 87 20t81 50 70 67 54 71q62 96 108 208t46 226q0 68-28 117t-104 49q-38 0-82-13t-82-29-67-30-37-14q-12-82-29-164t-33-142q-8-34-19-69t-17-69q-6-32-8-78t-2-80v-31z"/><glyph unicode="q" horiz-adv-x="842" d="M62 190q0 124 45 261t127 252 195 190 251 75h28l35-3 29-11 12-22q0-10-8-20t-20-10q-14 0-27 2t-27 2q-82 0-154-32t-132-86-108-126-81-151-50-160-17-153q0-16 1-39t6-46 16-41 31-22q54 8 105 47t96 90 82 106 65 99q50 82 90 165t80 169q18 40 34 82t38 82q10 14 22 14 4 8 12 23t17 29 19 25 20 11q12 0 23-9t11-21q0-8-2-10-102-262-202-520T560-100q-28-118-50-237t-22-239q0-40 3-82t13-82q22-92 112-92 48 0 110 32t119 71 99 71 50 32q14 0 23-10t9-22q0-10-8-18-34-34-85-76t-108-78-115-60-108-24q-72 0-113 38t-62 93-27 119-6 118q0 74 11 164t29 182 40 180 42 162q-10-10-18-19t-18-19q-30-30-59-58T359-3t-70-34-83-13q-32 0-56 16T109 6 82 59t-14 55q-6 36-6 76z"/><glyph unicode="r" horiz-adv-x="710" d="M0-108q0 22 7 50T18-8q26 130 64 256t88 248q18 48 43 114t53 135 59 130 63 97q8 8 18 8 8 0 23-9t15-19q0-6-4-21t-8-32-9-32l-7-21q64 48 134 86t154 38q36 0 62-15t44-39 26-54 8-62q0-16-2-30t-6-30-22-16q-8 0-23 7t-15 15l2 18q0 14-3 34t-10 39-19 32-32 13q-48 0-102-29t-92-57q-16-12-44-36t-58-52-55-54-35-42q-6-8-15-29t-18-45-18-46-15-34q-40-96-77-192T116 72q-16-46-29-95t-29-95q-8-16-20-16-8 0-23 9T0-108z"/><glyph unicode="s" horiz-adv-x="738" d="M0 268q0 12 1 31t4 37 11 32 24 14q10 0 21-8t11-20q0-46 11-102t35-104 64-81 98-33q52 0 100 23t85 61 58 87 21 101v20q0 34-23 56t-57 37-74 29-74 33-57 47-23 74q0 48 21 92t55 78q118 114 271 165t315 51q12 0 18-9t6-19q0-26-24-30-10-4-19-3t-19-1q-24-2-47-6t-47-8q-108-22-211-71T376 712q-22-24-35-51t-13-61q0-22 24-34t59-24 76-26 76-40 59-67 24-105q0-74-28-142T540 41 424-43 284-74q-70 0-123 30T72 34 18 143 0 268z"/><glyph unicode="t" horiz-adv-x="662" d="M-82 748q0 4 12 21t16 17q74 0 146-16t146-20q24-2 49-2h57q22 68 54 148t72 158 85 151 93 127q12 8 20 8 12 0 24-9t12-21q0-4-1-6t-1-4q-62-138-128-273T456 748q22 0 42 1t42 1q10 0 23 1t24-2 19-10 8-23q0-20-16-26-14-4-37-9t-48-9-48-7-39-5q-18-52-34-115t-28-130-20-132-8-119q0-14 1-43t6-57 16-50 31-22q28 0 64 28t71 65 66 74 51 57q8 8 18 8 12 0 23-10t11-22q0-6-6-14-22-32-57-79T555 9t-86-73-87-30q-46 0-74 32t-43 77-20 94-5 83q0 48 7 108t17 122 24 121 26 107q-16 0-31-1t-31-1q-42 0-86 2t-86 9-82 24-72 47q-8 6-8 18z"/><glyph unicode="u" horiz-adv-x="976" d="M82 178q0 48 6 94 10 96 34 185t58 177q26 62 54 123t56 121q10 20 20 45t22 41q10 14 24 14 10 0 22-10t12-20q0-14-5-39t-12-52-14-52-13-39q-22-72-51-143t-54-144-42-147-17-150q0-22 2-51t10-56 25-46 47-19q40 0 91 27t102 64 97 77 74 66q18 86 49 193t73 215 92 205 108 163q10 10 20 10 12 0 24-10t12-24q-2-2-2-4-38-106-91-229T814 513t-82-253-34-240q0-8 1-16t9-12q46 8 97 46t96 81 79 77 44 34q12 0 23-10t11-22q0-8-8-16-40-46-76-90t-77-82-90-66-111-42q-92 42-92 142 0 22 4 45t2 47q-28-30-69-67T453-2t-95-57-90-23q-56 0-92 23T119 1 90 85t-8 93z"/><glyph unicode="v" horiz-adv-x="762" d="M40-112q0 16 4 34t8 34q20 108 51 211t55 211q22 98 42 196t34 198q4 32 8 65t8 67q2 14 1 28t3 28q2 10 11 16t19 6 19-6 11-16q4-24 3-51t-1-51q0-156-24-305t-58-299q40 52 85 102t91 98 108 109 128 131 131 145 116 152 82 152 31 145q0 82-48 146-34 46-84 76t-102 52q-10 4-24 8t-24 10q-16 10-16 24 0 10 9 22t21 12l4-2q68-18 131-48t111-74 76-103 28-137q0-84-35-171t-87-170-114-158-116-133q-86-94-173-183T392 274q-60-70-116-141T168-14q-18-28-35-57t-35-57q-8-12-20-12-8 0-23 10t-15 18z"/><glyph unicode="w" horiz-adv-x="1316" d="M62-58q0 56 9 114t22 118 27 118 24 114q20 94 39 186t41 186q10 44 19 89t23 87q6 16 24 16 8 0 22-9t14-17q0-14-3-35t-6-44-7-45-6-38q-12-100-28-198l-32-196q-14-76-26-151T184 88q78 102 155 205t153 207q84 114 163 229t181 215q8 20 30 20 10 0 19-6t9-16q2 0 2 1t2 1 3-5 1-9-2-8l-4-8q2-22 2-45v-47q0-142-20-280t-48-278q40 52 83 101t89 95q44 46 105 106t125 128 126 141 112 148 80 149 30 140q0 82-46 142-32 40-77 68t-91 50q-16 6-31 11t-27 11q-18 8-18 26 0 10 10 21t20 11h4q66-18 128-47t109-72 75-101 28-134q0-54-16-108-36-122-111-235t-167-220-190-206-182-193q-80-90-152-184T712-86l-12-20-20-10q-8 0-22 10t-14 18q0 30 9 70t15 68q18 84 42 166t40 166q22 100 40 198t30 200q-56-90-120-173T572 440q-78-102-159-202T246 42q-30-34-60-66t-62-64q-6-6-16-6T80-81 62-58z"/><glyph unicode="x" horiz-adv-x="764" d="M-1116-420q0 14 9 23t19 9q18 0 24-16 10-20 18-40t18-40q34-70 80-133t106-97q46-26 98-26 58 0 112 26t100 64q104 88 191 195t163 227q78 120 149 245t143 249q42 70 87 138t93 132q-10 96-20 193t-10 193q0 12 12 22t20 10q18 0 24-18 22-62 36-145t24-151q104 116 225 199t261 115l4 2q12 0 21-11t9-25q0-20-18-30-14-8-28-14t-26-12q-128-64-234-159T398 498q2-22 7-56t11-74 14-83 18-85q22-86 55-147t81-61q10 0 21 4t21 8q40 20 75 50t67 66q34 34 63 73t61 75q8 8 16 8 10 0 20-11t10-25q0-4-4-16-26-42-66-99T780 17t-99-86-99-35q-40 0-76 19t-60 55q-28 40-49 92t-36 108-26 112-19 108Q214 248 128 97T-50-200q-92-150-196-286t-242-244q-54-42-118-70t-130-28q-72 0-130 35t-105 92-82 128-61 141q-2 4-2 12z"/><glyph unicode="y" horiz-adv-x="886" d="M-512-579q0 12 9 18 11 7 23 7 8 0 14-6t10-12q14-22 25-47t27-47q30-42 69-81t86-68 99-46 106-17q82 0 152 40 100 60 166 166t114 234q46 124 79 253t67 241q-24-22-58-48t-70-49-73-39-67-16q-58 0-105 38T102 44q-10 40-12 74-1 19-1 39 0 44 6 92 9 69 26 138t39 134 46 119q50 116 108 228 12 22 22 46t24 46q8 12 24 12 10 0 22-11t14-23l-6-30q-18-84-47-164t-61-156q-22-54-45-113t-40-119-27-121q-7-44-7-87 0-17 1-34 2-18 5-38t11-37 20-28 32-11q34 0 80 23t92 54 87 65 67 58q52 144 112 281t130 269q28 52 56 107t60 105q8 14 24 14 14 0 23-11t11-25q0-8-2-12-76-204-162-399T672 130q-38-98-67-196t-57-200q-6-22-13-41t-15-41q-24-74-50-145t-60-139-78-129-100-106-122-72-144-27q-82 0-153 29t-131 78-107 116-83 145q-4 9-4 19z"/><glyph unicode="z" horiz-adv-x="754" d="M-142-144q-1 4-1 8 0 12 11 18Q-16 44 114 197t268 297q82 84 162 167t168 161q-44-10-94-17t-96-9q-23-1-48-1h-26q-40 1-81 7t-80 18-69 32q-12 8-12 16-2 10 6 24t20 14h4q90-20 181-20h17q34 4 65 7t63 7q58 8 113 22t113 18q10 2 32 2t32-6q2 6 12 6 12 0 24-9t14-23q2-6-2-16-42-66-98-128T686 644 564 527 446 414Q332 300 225 184T10-52q84 30 178 36 17 1 34 1 55 0 105-10 65-13 127-34t124-49 130-54q116-46 234-88t240-62q30-4 56-5 8 0 16 1 12 0 20 2 70 8 125 44t83 100q8 18 12 36t10 34q4 16 20 16 12 0 23-8t15-22q-24-130-97-205t-211-83q-16-1-33-1-54 0-111 10-74 13-148 35t-146 49-138 53q-96 38-193 78t-199 50q-32 4-62 5t-60-1q-14-2-26-2t-26-2q-38-4-75-11t-73-17q-16-4-35-11t-33-9q-12 0-24 10t-14 22z"/><glyph unicode="{" horiz-adv-x="502" d="M122 64q0 104 40 200t88 186q8 14 21 39t26 52 23 52 14 41v6q0 26-22 58t-44 46q-8 4-11 5t-7 9q-6 8-6 20 0 6 3 12t11 8l-2 4q0 6 11 7t15 1q20 8 44 18t47 24 41 31 28 37q10 26 15 55t9 57q6 30 14 80t20 102 25 99 27 69 35 43 47 37 54 26 54 10q16 0 32-4t16-26q0-8-5-18t-13-14q-38-20-71-49t-57-65q-8-14-16-41t-12-43q-8-26-14-51t-12-51q-16-64-27-131t-43-125q-22-40-63-67t-83-43q70-50 70-136 0-24-12-55t-28-63-35-63-31-53q-30-54-59-108t-51-114q-10-24-19-55t-9-57 11-31 33-5q8 0 14-12t6-18q0-10-5-18t-15-12h2q-6-2-20-2-40 0-72 28t-32 68z"/><glyph unicode="|" horiz-adv-x="552" d="M82 10v4q28 64 55 126t55 126q54 132 105 264t97 270q36 112 65 226t61 228q16 56 33 114t41 112q6 16 26 16 10 0 22-9t12-19q0-76-16-168t-40-186-53-184-55-164q-50-144-109-282T252 208q-26-52-55-112T138-10q-10-12-22-12t-23 9-11 23z"/><glyph unicode="}" horiz-adv-x="568" d="M40-12q0 10 6 19t14 11q10 4 19 5t19 5q46 18 70 66t40 92q20 64 27 130t17 132q4 30 6 59t6 59q12 84 67 140t131 80q-70 40-70 116 0 34 27 97t58 133 58 135 27 105q0 26-9 40t-20 23-20 18-9 27q0 28 32 28 64 0 99-48t35-106q0-28-10-57t-23-59-28-59-25-55q-10-24-28-55t-34-64-28-64-12-55q0-30 17-43t36-21 36-14 17-20q0-4-4-16 2-2 2-8 0-16-12-24-52-30-89-52t-81-66q-12-12-21-36t-15-51-10-54-6-45q-10-72-22-142t-40-138q-14-34-33-70t-46-64-60-46-75-18q-16 0-26 7T40-12z"/><glyph unicode="~" horiz-adv-x="1400" d="M226 792q0 6 4 14 30 42 73 74t93 54 102 33 104 11q64 0 117-15t111-45q40-22 79-42t79-42q54-30 114-57t124-27q62 0 112 22t98 56q8 4 14 4 12 0 22-11t10-23q0-8-8-16-46-52-124-83t-148-31q-82 0-155 31t-144 69-144 69-153 31q-92 0-174-33t-162-75q-4-2-12-2-12 0-22 12t-10 22z"/><glyph unicode="" horiz-adv-x="472" d="M226-10q0 40 3 79t7 77q14 134 35 266t43 264q16 96 28 192l24 192q2 16 5 42t7 53 8 51 8 38q8 22 34 22 22 0 28-20 10-38 13-81t3-83q0-108-19-213t-39-211q-22-114-45-228t-45-228q-8-38-15-75t-13-77q-4-16-6-33t-6-33q-4-18-26-18-10 0-21 7t-11 17zm176 1464q0 16 12 28v2q-2 6-2 16 14 10 19 22t27 12q18 0 36-16t18-36q0-34-6-56t-48-22q-20 0-38 14t-18 36zm42 48q2 0 2 2l-2 4v-6z"/><glyph unicode="" horiz-adv-x="662" d="M164 410q0 96 26 191t74 179 117 153 157 111q10 34 20 70t20 70q4 16 8 31t10 31 24 16q8 0 19-8t11-18-4-32-10-47-12-48-8-35q24 8 50 13t50 5q12 0 20-11t8-21q0-18-16-28-10-4-19-8t-19-8q-56-26-100-54-28-102-57-203t-57-203q-24-84-45-168t-41-170q32 6 63 26t58 47 51 56 42 53q10 12 18 25t18 23q6 10 18 10t23-9 11-21q0-4-8-19t-18-31-20-31l-14-21q-48-74-109-130t-153-66q-8-28-15-70T338-6q-10-20-28-20-14 0-20 7t-8 17-2 21v21q0 56 6 110-70 42-96 113t-26 147zm100 0q0-40 8-82t32-74q16 84 40 164t50 162q22 76 46 151t48 151q-100-92-162-214t-62-258z"/><glyph unicode="" horiz-adv-x="932" d="M0 142q0 16 15 24t29 12q70 96 123 204t101 218q-10-2-17-2h-15q-16 0-35 2t-36 9-29 19-12 30q0 20 24 31t55 15 62 4h51q26 56 64 137t89 154 114 125 137 52q84 0 132-55t48-137q0-12-4-32t-12-40-19-35-25-15-23 13-9 25q0 10 4 23t4 27q0 38-23 78t-65 40q-8 0-15-2t-13-4q-46-16-87-58t-76-93-64-105-49-96q34-2 65-3t63-3q6-6 13-15t7-19q0-18-16-26-16-6-40-11t-49-9-48-7-41-5q-52-106-106-209T148 206q18 2 36 3t36 1q56 0 113-7t113-16 112-16 114-7q76 0 147 18t133 68q2 0 4 1t4 1q10 0 22-11t12-23q0-10-6-16-34-40-77-65t-93-41-102-22-100-6q-40 0-78 4t-78 8Q360 94 262 99t-200 5Q50 88 38 88t-24 13-8 27q-6 6-6 14z"/><glyph unicode="" horiz-adv-x="862" d="M164 1100q0 12 11 24t23 12 50-43 83-97 83-104 50-66q10 6 31 19t45 26 46 22 32 9q12 0 21-12t9-22q0-14-16-24-18-10-38-19t-40-21q-76-50-136-123t-88-159q-10-30-10-60 0-28 9-56t26-51 42-38 57-15q22 0 39 8t37 18q84 48 133 123t77 165q12 38 21 79t9 81-20 60-45 32-45 21-20 27q0 10 8 22t18 12q14 0 28-2t28-6q24 34 49 69t49 71l20 32 22 30q6 10 18 10t24-10 12-22q0-6-16-36t-37-66-40-69-25-41q46-30 61-73t15-95q0-40-8-82t-23-84-34-82-39-72q8-10 33-42t52-68 48-66 21-36q0-14-12-25t-24-11h-6q-22 10-47 29t-49 42-46 46-38 41q-52-52-116-89t-138-37q-54 0-96 20-30-46-61-97t-65-95q-6-10-20-10-10 0-23 9t-13 19q0 4 3 15t3 15q16 58 41 114t55 108q-44 72-44 152 0 42 14 85t38 84 53 78 59 65q-38 56-75 111t-75 109q-16 24-40 54t-36 52z"/><glyph unicode="" horiz-adv-x="948" d="M122 242q0 60 22 119t58 111 84 95 100 67q4 2 10 2 8 0 12-2v6q0 54 14 128t37 150 51 147 52 119q-16-6-29-13t-27-15q-40-24-80-55t-60-75q-4-10-5-17t-5-15q-6-16-24-16-16 0-26 10t-10 26q0 74 49 132t107 96q48 32 97 58t107 34q6 6 16 6 12 0 24-9t12-23q0-8-17-59t-39-112-42-117-26-74q-36-94-60-196-6-30-11-61t-5-61q0-16 3-41t25-25q10 0 19 4t19 8q48 24 90 67t76 85q4 6 11 15t11 15q14 30 24 62t22 62q44 104 106 204t146 172q12 8 18 8 12 0 23-10t11-24q0-8-6-14-60-90-105-177t-81-175-66-181-58-195q72 0 148-6 6-6 13-16t7-18q0-18-16-26-16-6-39-11t-47-9-47-7-41-5h22q72 0 148-6 6-6 13-15t7-19q0-18-16-26-18-6-46-12t-58-11-58-8-48-5q-22-60-52-112t-71-89-95-59T398 6q-54 0-104 15t-88 45-61 74-23 102zm84 18q0-86 53-122t131-36q94 0 147 49t87 127q-14 0-33 3t-35 9-28 18-12 30q0 22 23 31t39 13q-22 6-42 16t-20 38q0 14 10 23t26 13h-20q-58 0-84 31t-34 77q-16-10-31-20t-31-22q-28-24-55-57t-47-69-32-75-12-77zm374 220q30 6 61 6h45l22 82q-24-24-58-50t-70-38z"/><glyph unicode="" horiz-adv-x="514" d="M82 8q0 4 12 37t30 80 40 101 42 104 36 88 22 52q4 10 16 32t27 45 31 40 28 17q6 0 22-12t16-18q0-34-13-75t-25-73q-16-34-32-66t-32-66q-36-76-77-157T136-14q-6-10-18-10-4 0-20 13T82 8zm368 872q0 22 6 49t10 49q10 58 22 117t24 117q8 34 13 68t13 68q2 12 10 36t18 49 23 44 27 19q8 0 22-8t16-14q4-10 4-23v-23q0-44-17-123t-40-163-49-161-44-115q-8-14-20-14-6 0-22 12t-16 16z"/><glyph unicode="" horiz-adv-x="830" d="M-20 234q0 54 24 120t60 108q10 10 20 10 12 0 22-10t10-22q0-4-10-22t-22-45-22-60-10-67q0-50 22-90t57-67 80-42 91-15q76 0 135 30t107 86q22 28 41 58t19 68q0 28-12 49t-32 41q-46 46-97 86t-103 80q-46 34-72 83t-26 107q0 30 12 65t34 57q10 8 19 14t19 12q60 34 121 46t129 12h112q24 0 48 1t48 5q-34 44-87 83t-104 81-88 90-37 112q0 32 12 64t33 58 49 45 60 27q58 14 115 17t115 3q54 2 105 7t105 13h4q14 0 23-11t9-25-14-22q-20-14-49-24t-60-17-62-12-55-7q-52-6-104-9t-102-19q-34-10-55-32t-21-60q0-34 25-64t61-60 80-62 80-69 61-80 25-95q0-58-28-111t-68-93q-62-64-143-96t-169-28q30-24 63-52t60-60 45-69 18-81q0-52-27-101t-61-89Q560 18 481-20T314-58q-62 0-122 20T85 20 9 112t-29 122zm390 478q0-24 13-45t29-37q48-20 110-20 70 0 134 29t110 81q24 28 46 64t20 76v8q-58-22-119-30t-121-12q-26-4-64-8t-73-15-60-33-25-58z"/><glyph unicode="" d="M1050 1292q0 34 6 56t48 22q20 0 38-14t18-36q0-12-10-28h-2v-2q2-6 2-16-12-10-18-22t-28-12q-18 0-36 16t-18 36zm174 0q0 34 7 56t49 22q18 0 37-14t19-36q0-8-4-14t-8-14l-2-2q4-12 4-16-14-10-19-22t-27-12q-20 0-38 16t-18 36z"/><glyph unicode="" horiz-adv-x="1152" d="M144 542q0 120 39 231t108 205 163 166 202 118q4 2 12 2 24 16 67 21t61 5q90 0 170-40t139-106 94-150 35-170q0-136-41-264t-120-228-194-161-263-61q-116 0-224 42-58 24-104 64t-78 92-49 112-17 122zm88 16q2-172 107-260t271-88q128 0 224 52t160 137 97 195 33 226q0 74-29 145t-79 126-117 89-143 34q-18 0-36-4t-36-2h-2l-4-2q-34-22-69-39t-69-43q-66-48-122-110t-98-134-65-152-23-164v-6zm204-26q0 64 16 132 14 66 44 129t73 117 97 96 120 66q22 10 50 16t54 6q10 0 18-10t8-20q0-18-16-24-24-12-48-22t-48-24q-96-58-168-149T536 644q-14-50-14-112 0-16 3-43t12-52 24-43 39-18q38 0 70 20t59 50 50 63 45 57q10 10 20 10t20-9 10-19q0-6-4-14-26-40-53-82t-61-76-76-55-96-21h-10q-76 32-107 94t-31 138z"/><glyph unicode="" horiz-adv-x="454" d="M204 834q0 60 31 118t69 104q46 58 114 104t138 68l4 2q8 0 19-14t11-22q0-14-12-20l-14-8q10-4 19-13t9-15q0-12-4-33t-9-43-11-42-10-34q-4-10-8-22l-8-24q-4-18-6-37t-6-39v2q22 22 41 44t39 44q4 4 10 4 12 0 25-10t13-24q-10-24-26-57t-37-63-47-51-56-21q-20 0-44 15t-24 37q-60-42-142-52-34 14-56 38t-22 64zm94-2q44 12 78 51t61 87 48 95 39 75q-44-28-80-59t-70-79q-22-34-45-77t-23-83q0-6-8-10z"/><glyph unicode="" horiz-adv-x="618" d="M144 670v19l2 19q52 90 132 161t178 109h4q16 0 25-15t9-29q-28-40-62-73t-68-63-66-60-54-64q4-34 33-77t67-87 76-84 62-66q4-4 4-8 0-12-11-25t-25-13q-6 0-34 21t-60 48-60 52-34 33q-16 22-36 40t-36 40q-46 56-46 122zm246-14q0 10 1 18t3 18q52 90 132 162t176 108h4q16 0 25-15t9-29q-26-40-60-72t-69-62-67-61-54-65q4-34 33-77t67-86 77-84 63-67l2-6q0-14-11-26t-23-12q-6 0-34 21t-60 48-60 52-34 33q-18 20-37 38t-35 40q-22 28-35 58t-13 66z"/><glyph unicode="" horiz-adv-x="1206" d="M204 780q0 8 5 17t15 13q18 6 44 10t54 5 55 2 47 1q52 0 102-2t102-2q110-2 219-5t219-9q4 6 12 12t18 6h2q2 0 2-1t2-1q36-26 53-58t23-69 6-76v-77q0-26-2-58t-5-65-8-64-11-55q-6-18-24-18-6 0-20 8t-16 14-4 43-4 82-4 87-4 56q-4 42-10 84t-10 84q-108-10-216-15t-218-7q-46 0-90-2t-88-2q-22 0-53 1t-64 5-63 10-48 16q-18 8-18 30z"/><glyph unicode="" horiz-adv-x="1006" d="M204 786q0 8 5 17t13 13q16 6 43 10t56 5 57 2 46 1q52 0 102-2t102-2q84 0 169-3t169-7q28 0 72-1t68-5q22-8 22-30 0-10-6-19t-16-11q-12-4-30-5t-38-3-39-3-31-1q-86-6-171-9t-169-5q-46 0-90-2t-90-2q-22 0-53 1t-64 5-62 10-49 16q-8 4-12 13t-4 17z"/><glyph unicode="" horiz-adv-x="1194" d="M164 566q0 120 39 231t108 205 163 166 204 118q2 2 10 2 12 8 30 14t37 9 36 4 27 1q90 0 169-41t138-107 94-150 35-170q0-136-41-264t-120-228-194-161-261-61q-58 0-115 10t-109 32q-60 24-106 64t-78 92-49 112-17 122zm88 18q2-46 10-87t24-75q6 14 18 16 16 4 32 7t32 11q40 20 70 53t53 73 41 82 32 82q22 58 39 117t43 115q-26-10-46-24-34-22-69-48t-53-66q-4-10-5-17t-5-17q-8-14-24-14-8 0-18 8t-12 16v-4 10q-2 34 10 64t32 56 46 48 52 38q16 10 41 25t51 28 52 23 44 10q12 0 24-11t12-21q0-2-4-11t-4-13q30 20 67 35t75 15q46 0 83-28t37-78q0-46-27-88t-67-75-87-55-87-30q28-34 44-78 6-18 14-54t18-74 22-68 28-36q6-2 18-2 18 0 38 7t38 14 32 14 18 7q10 0 16-6 46 80 70 174t24 194q0 74-29 145t-79 126-117 89-143 34q-18 0-36-4t-34-4h-8q-34-22-69-40t-69-42q-66-48-122-111t-98-135-65-151-23-163v-6zm56-202q48-74 131-111t191-37q116 0 206 43t154 117l-4-2q-20-10-42-17t-46-7q-62 0-91 45t-48 107-39 124-64 98q-22-58-52-121t-71-116-97-88-128-35zm378 440q68 18 137 51t111 91q4 8 9 16t5 18q0 18-15 24t-29 6q-42 0-91-27t-81-51q-12-32-23-63t-23-65z"/><glyph unicode="" d="M970 1348q0 20 24 31t55 15 61 4h130q78 0 156-6 8-6 14-15t6-19q0-6-4-14t-12-10q-52-16-109-25t-113-13q-24-2-48-5t-50-3q-14 0-33 2t-36 9-29 19-12 30z"/><glyph unicode="" horiz-adv-x="374" d="M266 1020v12q2 58 32 103t80 73q4 2 17 8t19 8q10 8 25 11t25 3q54 0 94-42t40-94q0-64-27-116t-85-80q-34-18-68-18-28 0-55 9t-49 27-35 42-13 54zm90 24q0-54 52-54 40 0 60 32t20 68q0 34-15 49t-43 25q-30-22-52-51t-22-69z"/><glyph unicode="" horiz-adv-x="1066" d="M104 132q0 8 5 17t15 13q16 6 42 10t55 5 57 2 46 1q52 0 102-2t102-2q86 0 170-3t170-7h33l38-1 37-2 30-3q22-8 22-30 0-10-5-19t-15-11q-24-6-68-8t-72-4q-84-6-169-9t-171-5q-46 0-90-2t-88-2q-22 0-53 1t-64 5-62 10-49 16q-8 4-13 13t-5 17zm100 654q0 8 5 17t15 13q14 6 41 10t56 5 57 2 46 1q48 0 96-1t96-3q2 70 4 138t6 138q2 22 2 58t4 56q4 10 12 15t18 5 18-5 12-15q6-22 7-56t3-58q4-70 7-138t7-138q70-2 139-4t139-6q22-2 57-2t55-4q10-4 16-12t6-18-5-19-15-11q-22-6-57-7t-57-3q-70-4-138-8t-138-6q0-42 2-84t2-84q0-22-1-53t-5-63-10-62-16-50q-4-8-13-12t-17-4-17 4-13 14q-6 16-10 43t-6 56-3 56-1 45q0 48 2 96l4 96q-42-2-84-3t-82-1q-22 0-54 1t-64 5-62 10-48 16q-18 8-18 30z"/><glyph unicode="" horiz-adv-x="710" d="M266 926l14 16v-8l10 12h-8q34 34 66 70t66 72q40 42 85 79t91 75q18 14 43 38t48 51 39 55 16 52q0 26-22 34t-44 8q-38 0-77-16t-65-44q-6-8-10-16l-8-16q-12-12-22-12-8 0-21 10t-13 20q0 8 2 10 22 46 63 80t89 50q12 4 24 6t24 6q10 2 19 4t19 2q26 0 50-12t42-32 28-46 10-52q0-20-4-33t-14-29q-36-66-73-109t-77-78-82-70-86-85q28-10 60-24l64-28 64-24 60-10q44 0 67 20t37 20q12 0 23-10t11-22q0-8-2-12-22-44-71-67t-97-23q-38 0-79 12t-78 27-67 28-46 13q-22 0-39-14t-33-30h-20l-6-6z"/><glyph unicode="" horiz-adv-x="628" d="M266 1040q0 10 14 21t22 11q10 0 20-12 18-24 37-52t42-50 51-37 62-15q42 0 80 20t67 53 46 74 17 81q0 34-19 64t-59 30q-8 0-15-1t-15-1h-20q-6 2-15 18t-9 22q0 12 8 18 14 10 38 26t48 35 41 40 17 39v13l-10 5q-60 0-106-17t-88-59q-2-2-4-2t-4-2q-12 0-25 11t-13 25v6q18 38 64 71t86 47q42 16 82 16 50 0 85-30t35-82q0-82-60-142 36-24 51-63t15-79q0-60-24-118t-66-105-97-76-117-29q-48 0-89 19t-74 50-58 71-39 82z"/><glyph unicode="" d="M1046 1236q0 2 1 4t1 4q36 44 80 83t90 73q32 22 70 22 20 0 35-10t17-32q-18-44-54-68-14-10-28-17t-30-17q-66-44-146-80-12 0-24 13t-12 25z"/><glyph unicode="" horiz-adv-x="728" d="M163 146q1 16 1 26 0 118 20 233t48 229q12 56 24 111t28 109q6 24 17 53t25 58 30 56 32 45q8 8 18 8 6 0 22-12t16-18q0-10-3-21t-5-21q-22-102-51-198t-55-194q-4-14-7-27t-7-29q8-16 22-40t31-46 36-38 41-16q16 0 22 4 26 10 49 31t42 47 36 53 29 51q28 50 44 107l32 114 37 111 57 100q6 10 18 10 8 0 23-11t15-19q0-16-4-36t-8-36q-18-102-46-200t-80-188q-20-34-46-74t-58-73-70-55-82-22q-60 0-100 37t-64 87q-16-58-29-117t-23-119q0-10-2-27t-4-36-4-35-2-20q-4-10-14-16t-20-6q-14 0-21 12t-9 27-1 31z"/><glyph unicode="" horiz-adv-x="982" d="M266 1052q0 20 6 42 22 126 97 213t189 137q52 24 108 38t112 16q4 8 13 24t19 33 20 29 20 12 23-10 13-20q0-2-3-13t-6-24-7-25-4-14q48-12 88-40 14 30 32 68t38 66q8 12 22 12t25-8 11-24q0-6-11-42t-28-90-37-116-38-119-32-101-18-58q54 24 104 52t100 60q8 4 14 4 12 0 21-11t9-23q0-14-38-42t-86-56-93-52-61-32q-48-164-89-343t-41-351q0-28 2-65t12-71 31-58 61-24q34 0 78 19t85 43 71 43 36 19q14 0 23-11t9-21q0-8-8-20-24-22-62-48t-81-49-85-39-74-16q-38 0-70 16T730 5t-38 61-18 70q-4 38-8 74t-4 74q0 152 32 305t70 301q-24-10-48-17t-48-11q-40-146-76-296t-36-302q0-56 9-107t25-103v-4q0-14-11-24t-23-10-22 14q-16 26-26 64t-18 79-11 81-3 72q0 132 29 261t57 257q-12-2-23-2h-21q-22 0-43 2t-43 6q-74 14-120 71t-46 131zm102-8q0-34 17-55t43-33 56-16 56-4h23l21 2q30 114 63 227t79 223q-60-16-123-45t-116-72-86-100-33-127zm330-84q22 6 46 13t46 15q28 102 60 201t74 195q-42 16-84 16-34-110-71-219t-71-221z"/><glyph unicode="" horiz-adv-x="356" d="M246 630q0 34 6 56t48 22q20 0 38-14t18-36q0-16-12-28v-2q2-6 2-16-14-10-19-22t-27-12q-18 0-36 16t-18 36z"/><glyph unicode="" d="M584-132l2 12q10 38 29 94t45 92q4 6 15 11t19 5q6 0 15-5t11-13q2-30-3-64t-9-64q42-4 85-22t76-48 50-71 5-89q-10-38-32-68t-53-52-66-39-69-27q-2 0-12-3l-20-6-18-5-10-2q-10 0-18 13t-4 23q4 14 16 20 20 8 50 22t59 31 52 39 29 46q6 30-12 56t-40 42q-28 20-64 26t-76 2q-10 4-27 20t-25 24z"/><glyph unicode="" horiz-adv-x="300" d="M246 916q0 8 4 18t8 18q22 10 42 17t42 15q10 70 24 140t32 138q10 40 19 78t23 76h-10q-4-2-9-1t-9 1q-4 6-12 20t-8 20q16 24 37 41t33 35q10 12 21 16t27 4h16l36-22q6-12 6-24 0-16-10-32-4-64-24-122t-38-118q-40-126-84-252 10-8 19-20t9-24q0-16-15-31t-29-19q-16-4-32-5t-32-1q-8 0-23 1t-29 5-24 10-10 18z"/><glyph unicode="" horiz-adv-x="374" d="M204 902q0 48 21 97t55 91 77 75 87 47l4 2q2 0 3-1t3-1q0 8 8 21t18 13q46 0 86-30t48-76q4-14 4-26v-24q0-26-4-51t-10-49q-22-78-58-136T444 750q-42-30-90-30-38 0-66 16t-47 41-28 58-9 67zm92 8q0-12 3-27t10-30 17-25 26-10q10 0 19 5t19 11q46 34 70 82t38 102q6 24 13 49t7 51q0 32-14 44t-30 22q2-2 2-6 0-14-12-20-62-38-105-90t-59-124q-4-20-4-34z"/><glyph unicode="" horiz-adv-x="638" d="M122 930q0 12 11 26t25 14q2-2 4-2 96-36 176-108t132-160q2-10 3-19t1-19q0-36-13-66t-35-58q-16-20-35-39t-37-39q-6-8-34-33t-60-52-60-48-34-21q-14 0-24 12t-10 26v4q0 2 1 2t1 2q24 26 63 66t77 83 67 86 33 77q-22 36-54 66t-67 60-69 62-60 70q0 2-1 4t-1 4zm248 8q0 12 10 26t24 14h4q98-38 178-109t132-161q2-10 2-19v-19q0-66-46-122-18-22-37-40t-35-40q-6-8-34-33t-60-52-60-48-34-21q-14 0-25 13t-11 25q0 2 1 4t1 4q24 26 63 66t77 84 67 87 33 77q-22 34-54 65t-66 61-68 62-60 70q0 2-1 3t-1 3z"/><glyph unicode="" horiz-adv-x="1306" d="M102-34q0 4 4 12 44 64 89 125t89 123q92 132 180 264t172 268q70 114 134 232t132 234q32 54 65 112t71 106q6 12 20 12t25-10 11-24q0-2-4-13t-8-24-9-24-5-13q-66-172-157-329T722 704Q534 408 310 130q-38-46-77-94t-79-94q-8-8-18-8-12 0-23 9t-11 23zm126 950q0 8 4 18t8 18q22 10 42 17t42 15q10 70 24 140t32 138q10 40 19 78t23 76h-10q-4-2-8-1t-8 1q-4 6-13 20t-9 20q16 24 37 41t33 35q10 12 21 16t27 4h16l36-22q6-12 6-24 0-16-10-32-4-64-24-122t-38-118q-40-126-84-252 10-8 19-20t9-24q0-16-15-31t-29-19-31-5-33-1q-8 0-23 1t-29 5-24 10-10 18zm578-632q0 22 18 58t32 54q16 24 32 46l32 44q78 108 142 224h2q2 0 4 2 2 0 6 2 6 0 23-12t17-18q0-2-4-17t-4-19q-34-112-100-218-10-16-19-31t-19-31q28-2 55-10t55-14q22 76 55 145t97 117q2 0 4 1t4 1q12 0 26-10t14-24q0-16-11-45t-25-62-29-63-21-48q20 10 36 22t32 28q2 0 4 1t4 1q12 0 25-11t13-25q-22-46-63-78t-89-46q-10-32-22-68t-26-74-28-73-28-65q-8-14-20-14-6 0-22 12t-16 18q0 16 5 34t9 34q10 50 21 98t23 96q-46 12-92 12-28 0-57-4t-57-4q-10 0-24 12t-14 22z"/><glyph unicode="" horiz-adv-x="1382" d="M204-34q0 6 6 12 44 64 88 125t88 123q92 132 180 264t172 268q72 114 135 232t131 234q32 54 65 112t71 106q8 12 20 12 14 0 25-10t11-24q0-2-4-13t-8-24-9-24-5-13q-66-172-157-329T824 704Q636 408 412 130q-38-46-77-94t-79-94q-6-8-18-8t-23 9-11 23zm30 950q0 8 4 18t8 18q22 10 42 17t42 15q10 70 24 140t32 138q10 40 18 78t22 76h-10q-4-2-8-1t-8 1q-4 6-12 20t-10 20q18 24 39 41t33 35q10 12 21 16t27 4h16l36-22q4-16 4-24 0-16-10-32-4-64-23-122t-37-118q-40-126-84-252 10-8 19-20t9-24q0-16-15-31t-29-19q-16-4-33-5t-33-1q-8 0-22 1t-28 5-24 10-10 18zM794 54l14 16v-8l8 10h-6q34 36 66 71t66 71q40 44 85 80t91 74q18 14 43 38t48 51 39 55 16 54-22 34-44 8q-38 0-77-17t-65-45q-6-8-10-15t-10-15q-8-12-20-12-10 0-23 10t-13 20q0 2 4 10 22 46 62 80t88 50q14 4 26 6l24 4q10 4 18 6t18 2q26 0 50-13t42-33 29-46 11-52q0-18-5-32t-13-30q-36-66-73-109t-77-78-82-69-86-84q28-10 60-24t64-29 64-25 60-10q44 0 67 20t35 20 24-9 12-23q0-4-4-12-22-44-71-66t-95-22q-38 0-79 12t-79 27-68 27-46 12q-22 0-38-14L890 2l-22-2-4-6z"/><glyph unicode="" horiz-adv-x="1424" d="M266 1040q0 10 14 21t22 11q10 0 20-12 18-24 37-52t42-50 51-37 62-15q42 0 80 20t67 53 46 74 17 81q0 34-19 64t-59 30q-8 0-15-1t-15-1h-20q-6 2-15 18t-9 22q0 12 8 18 14 10 38 26t48 35 41 40 17 39v13l-10 5q-60 0-106-17t-88-59q-2-2-4-2t-4-2q-12 0-25 11t-13 25v6q18 38 64 71t86 47q42 16 82 16 50 0 85-30t35-82q0-82-60-142 36-24 51-63t15-79q0-60-24-118t-66-105-97-76-117-29q-48 0-89 19t-74 50-58 71-39 82zM344-34q0 4 4 12 44 64 88 125t88 123q92 132 181 264t173 268q70 114 134 232t132 234q30 54 63 112t71 106q8 12 22 12t25-10 11-24q0-2-4-13t-9-24-9-24-6-13q-64-172-155-329T964 704q-96-150-199-293T552 130q-40-46-78-94t-78-94q-8-8-18-8-12 0-23 9t-11 23zm580 318q0 10 6 26t13 32 16 30 15 24q16 24 33 46t33 44q38 54 73 110t67 114h2q2 0 4 2 2 0 6 2 6 0 23-12t17-18q0-2-4-17t-4-19q-32-112-100-218-10-16-19-31t-19-31q30-2 56-10t54-14q22 76 55 145t97 117q2 0 4 1t4 1q12 0 26-10t14-24q0-16-11-45t-25-62-28-63-22-48q20 10 36 22t32 28q2 0 4 1t4 1q12 0 25-11t13-25q-20-46-61-78t-91-46q-10-32-22-68t-26-74-28-73-28-65q-8-14-20-14-6 0-22 12t-16 18q0 16 5 34t9 34q10 50 21 98t23 96q-46 12-92 12-28 0-56-4t-56-4q-10 0-25 12t-15 22z"/><glyph unicode="" horiz-adv-x="852" d="M20 284q0 88 45 156t112 121 144 95 143 82q28 16 57 36t53 42q40 40 78 98t38 116q0 40-32 76t-66 48q2-4 2-12 0-14-10-23t-22-9q-20 0-29 21t-9 37q0 28 19 45t47 17q36 0 70-17t62-44 46-62 22-69v-22q0-38-11-77t-31-76-45-69-51-58q-52-48-117-85t-132-72-129-75-108-96q-46-58-46-128 0-108 65-166t169-58q80 0 158 33t140 88 99 129 37 158q0 18-4 37t-4 37q0 28 32 28 18 0 26-20 2-8 5-21t5-28 3-29 1-22q0-100-44-187T693 107 531 4 344-34q-70 0-130 23T111 53 44 153 20 284zm604 1152q0 10 4 16l8 12 2 4q-2 4-2 16 12 10 17 21t27 11q20 0 38-15t18-37q0-34-7-55t-47-21q-20 0-39 14t-19 34zm42 48l2 2q0 4-2 6v-8z"/><glyph unicode="" horiz-adv-x="1320" d="M-296 10q0 24 20 28 44 10 84 19t82 25Q-6 122 84 187t169 144 149 167 134 176q24 34 46 66t44 66q-78-16-136-45t-122-75q-4-4-14-4t-21 11-11 21 6 16q68 76 167 119t197 59q40 62 84 131t91 138 97 132 104 113q12 8 18 8h4q-2 30-9 61t-22 56-39 41-60 16q-48 0-99-18t-96-39-77-38-40-17q-12 0-21 11t-9 21q0 14 14 24 10 8 24 15t26 15q66 38 141 70t155 32q16 0 34-5t32-11q40-18 67-52t42-75 21-86 6-85q0-112-12-221t-30-219q84 10 165 31t159 53q22 8 42 17t42 19h6q12 0 23-11t11-25q0-8-6-14-42-46-96-79t-116-54-126-32-124-13q-34-196-70-396t-36-400q0-58 7-115t30-102 66-72 115-27q12 0 23 2t23 2q14 0 22-10t8-24-15-23-34-13-39-6-30-2q-86 0-141 35t-87 92-45 128-13 141q0 96 11 196t28 201 37 201 38 194l-84 4-84 2h-42l-42-2q-34-54-71-106t-75-104q-70-96-150-191T297 246 102 100-122 4q-34-10-73-17t-75-7q-12 0-19 10t-7 20zM832 924q16 0 33 1t35 1q30 0 61-2t61-2h14q20 104 35 207t19 209q-26-44-66-109t-79-128-71-113-42-64zm134 998q0 10 11 25t21 15q42 0 78-26 14-10 26-21t26-21q72-50 130-108 0-2 1-4t1-4q0-12-11-26t-23-14-42 14-65 32-65 36-42 26q-16 10-31 33t-15 43z"/><glyph unicode="" horiz-adv-x="1320" d="M-296 10q0 24 20 28 44 10 84 19t82 25Q-6 122 84 187t169 144 149 167 134 176q24 34 46 66t44 66q-78-16-136-45t-122-75q-4-4-14-4t-21 11-11 21 6 16q68 76 167 119t197 59q40 62 84 131t91 138 97 132 104 113q12 8 18 8h4q-2 30-9 61t-22 56-39 41-60 16q-48 0-99-18t-96-39-77-38-40-17q-12 0-21 11t-9 21q0 14 14 24 10 8 24 15t26 15q66 38 141 70t155 32q16 0 34-5t32-11q40-18 67-52t42-75 21-86 6-85q0-112-12-221t-30-219q84 10 165 31t159 53q22 8 42 17t42 19h6q12 0 23-11t11-25q0-8-6-14-42-46-96-79t-116-54-126-32-124-13q-34-196-70-396t-36-400q0-58 7-115t30-102 66-72 115-27q12 0 23 2t23 2q14 0 22-10t8-24-15-23-34-13-39-6-30-2q-86 0-141 35t-87 92-45 128-13 141q0 96 11 196t28 201 37 201 38 194l-84 4-84 2h-42l-42-2q-34-54-71-106t-75-104q-70-96-150-191T297 246 102 100-122 4q-34-10-73-17t-75-7q-12 0-19 10t-7 20zM832 924q16 0 33 1t35 1q30 0 61-2t61-2h14q20 104 35 207t19 209q-26-44-66-109t-79-128-71-113-42-64zm398 742q0 2 1 4t1 4q36 44 80 83t90 73q32 22 70 22 20 0 35-10t17-32q-18-44-54-68-14-10-28-17t-30-17q-66-44-146-80-12 0-24 13t-12 25z"/><glyph unicode="" horiz-adv-x="1320" d="M-296 10q0 24 20 28 44 10 84 19t82 25Q-6 122 84 187t169 144 149 167 134 176q24 34 46 66t44 66q-78-16-136-45t-122-75q-4-4-14-4t-21 11-11 21 6 16q68 76 167 119t197 59q40 62 84 131t91 138 97 132 104 113q12 8 18 8h4q-2 30-9 61t-22 56-39 41-60 16q-48 0-99-18t-96-39-77-38-40-17q-12 0-21 11t-9 21q0 14 14 24 10 8 24 15t26 15q66 38 141 70t155 32q16 0 34-5t32-11q40-18 67-52t42-75 21-86 6-85q0-112-12-221t-30-219q84 10 165 31t159 53q22 8 42 17t42 19h6q12 0 23-11t11-25q0-8-6-14-42-46-96-79t-116-54-126-32-124-13q-34-196-70-396t-36-400q0-58 7-115t30-102 66-72 115-27q12 0 23 2t23 2q14 0 22-10t8-24-15-23-34-13-39-6-30-2q-86 0-141 35t-87 92-45 128-13 141q0 96 11 196t28 201 37 201 38 194l-84 4-84 2h-42l-42-2q-34-54-71-106t-75-104q-70-96-150-191T297 246 102 100-122 4q-34-10-73-17t-75-7q-12 0-19 10t-7 20zM832 924q16 0 33 1t35 1q30 0 61-2t61-2h14q20 104 35 207t19 209q-26-44-66-109t-79-128-71-113-42-64zm76 856v2q0 2 1 2t1 2q10 22 43 54t74 61 81 50 64 21q30 0 46-14 60-42 115-88t107-96v-4q0-2 2-4 0-12-11-26t-23-14l-6 2-138 84q-6 2-20 12t-30 21-29 19-15 8q-16-14-45-37t-62-44-66-36-53-15q-10 0-23 14t-13 26z"/><glyph unicode="" horiz-adv-x="1320" d="M-296 10q0 24 20 28 44 10 84 19t82 25Q-6 122 84 187t169 144 149 167 134 176q24 34 46 66t44 66q-78-16-136-45t-122-75q-4-4-14-4t-21 11-11 21 6 16q68 76 167 119t197 59q40 62 84 131t91 138 97 132 104 113q12 8 18 8h4q-2 30-9 61t-22 56-39 41-60 16q-48 0-99-18t-96-39-77-38-40-17q-12 0-21 11t-9 21q0 14 14 24 10 8 24 15t26 15q66 38 141 70t155 32q16 0 34-5t32-11q40-18 67-52t42-75 21-86 6-85q0-112-12-221t-30-219q84 10 165 31t159 53q22 8 42 17t42 19h6q12 0 23-11t11-25q0-8-6-14-42-46-96-79t-116-54-126-32-124-13q-34-196-70-396t-36-400q0-58 7-115t30-102 66-72 115-27q12 0 23 2t23 2q14 0 22-10t8-24-15-23-34-13-39-6-30-2q-86 0-141 35t-87 92-45 128-13 141q0 96 11 196t28 201 37 201 38 194l-84 4-84 2h-42l-42-2q-34-54-71-106t-75-104q-70-96-150-191T297 246 102 100-122 4q-34-10-73-17t-75-7q-12 0-19 10t-7 20zM832 924q16 0 33 1t35 1q30 0 61-2t61-2h14q20 104 35 207t19 209q-26-44-66-109t-79-128-71-113-42-64zm178 880q0 2 4 11t6 11q18 36 51 62t73 32q10 2 30 2 42 0 82-15t77-34 70-34 61-15q20 0 31 9t19 21l14 21 16 9q4 0 20-12t16-16-2-14-6-14q-16-40-50-65t-76-25q-34 0-67 12t-66 25-65 25-66 12q-22 0-44-7t-41-14-32-14-17-7q-12 0-25 11t-13 23z"/><glyph unicode="" horiz-adv-x="1320" d="M-296 10q0 24 20 28 44 10 84 19t82 25Q-6 122 84 187t169 144 149 167 134 176q24 34 46 66t44 66q-78-16-136-45t-122-75q-4-4-14-4t-21 11-11 21 6 16q68 76 167 119t197 59q40 62 84 131t91 138 97 132 104 113q12 8 18 8h4q-2 30-9 61t-22 56-39 41-60 16q-48 0-99-18t-96-39-77-38-40-17q-12 0-21 11t-9 21q0 14 14 24 10 8 24 15t26 15q66 38 141 70t155 32q16 0 34-5t32-11q40-18 67-52t42-75 21-86 6-85q0-112-12-221t-30-219q84 10 165 31t159 53q22 8 42 17t42 19h6q12 0 23-11t11-25q0-8-6-14-42-46-96-79t-116-54-126-32-124-13q-34-196-70-396t-36-400q0-58 7-115t30-102 66-72 115-27q12 0 23 2t23 2q14 0 22-10t8-24-15-23-34-13-39-6-30-2q-86 0-141 35t-87 92-45 128-13 141q0 96 11 196t28 201 37 201 38 194l-84 4-84 2h-42l-42-2q-34-54-71-106t-75-104q-70-96-150-191T297 246 102 100-122 4q-34-10-73-17t-75-7q-12 0-19 10t-7 20zM832 924q16 0 33 1t35 1q30 0 61-2t61-2h14q20 104 35 207t19 209q-26-44-66-109t-79-128-71-113-42-64zm300 818q0 34 6 56t48 22q20 0 38-14t18-36q0-12-10-28h-2v-2q2-6 2-16-12-10-18-22t-28-12q-18 0-36 16t-18 36zm174 0q0 34 7 56t49 22q18 0 37-14t19-36q0-8-4-14t-8-14l-2-2q4-12 4-16-14-10-19-22t-27-12q-20 0-38 16t-18 36z"/><glyph unicode="" horiz-adv-x="1320" d="M-296 10q0 24 20 28 44 10 84 19t82 25Q-6 122 84 187t169 144 149 167 134 176q24 34 46 66t44 66q-78-16-136-45t-122-75q-4-4-14-4t-21 11-11 21 6 16q68 76 167 119t197 59q36 58 77 122t84 128 90 124 97 112q-28 16-44 43t-14 61v10q2 58 32 103t78 73q4 4 18 10t18 8q10 8 26 11t26 3q26 0 51-12t43-31 29-44 11-51q0-64-27-115t-85-79q-6-4-11-6t-11-4v-8q2-112-11-221t-31-219q84 10 165 31t159 53q22 8 42 17t42 19h6q12 0 23-11t11-25q0-8-6-14-42-46-96-79t-116-54-126-32-124-13q-34-196-70-396t-36-400q0-58 7-115t30-102 66-72 115-27q12 0 23 2t23 2q14 0 22-10t8-24-15-23-34-13-39-6-30-2q-86 0-141 35t-87 92-45 128-13 141q0 96 11 196t28 201 37 201 38 194l-84 4-84 2h-42l-42-2q-34-54-71-106t-75-104q-70-96-150-191T297 246 102 100-122 4q-34-10-73-17t-75-7q-12 0-19 10t-7 20zM832 924q16 0 33 1t35 1q30 0 61-2t61-2h14q20 104 35 207t19 209q-26-44-66-109t-79-128-71-113-42-64zm238 596q0-52 52-52 40 0 61 32t21 66-15 50-43 26q-30-22-53-52t-23-70z"/><glyph unicode="" horiz-adv-x="2030" d="M-296 0q0 24 20 30 40 10 77 17t77 21q96 36 181 93t160 129 142 152 127 160q-112-34-197-96T114 378q-6-6-14-6-12 0-23 11t-11 23q0 6 4 14 90 130 222 212t290 98q58 86 112 173t110 173q26 40 58 86t66 91 70 87 70 74q8 6 18 6h4q-2 30-9 61t-22 56-39 41-60 16q-48 0-99-17t-96-38-77-38-40-17q-12 0-21 10t-9 22 14 22 29 18 31 18q64 36 137 66t149 30q32 0 60-14 42-16 70-49t44-75 22-87 6-85v-22q62 42 134 69t148 44 154 24 152 11q180 8 342 35t328 101q2 2 10 2 12 0 22-11t10-23q0-10-8-18-64-64-157-103t-181-55q-90-16-181-21t-181-9q-74-4-153-9t-157-20-151-42-135-73q-8-138-30-271t-46-265l36-2q182-2 346 36t326 118q4 2 10 2 14 0 22-11t8-23q0-14-12-20-24-18-52-33t-56-27q-148-72-308-106t-322-32h-16q-24-132-43-264t-25-266l22 2q66 0 130-10t128-22 128-22 130-10q62 0 122 12 98 20 167 69t139 117q6 6 16 6t22-10 12-22q0-8-6-14-90-126-217-190t-281-64q-62 0-122 8t-120 18-121 17-121 7h-28q2-56 12-105t34-86 65-59 105-22q12 0 23 2t21 2q16 0 24-10t8-24-15-23-34-13-39-6-30-2q-74 0-126 28t-86 75-51 107-21 126q-34-6-62-13t-54-16-52-20-58-23q-2 0-2-1t-2-1h-2q-14 0-25 12t-11 24q0 8 8 16 48 54 118 86t140 44q4 138 27 273t49 269q-64 4-129 12t-131 8h-42l-42-2q-70-98-152-196T307 246 107 94-120-4q-34-10-74-18t-76-8q-12 0-19 10t-7 20zM710 734q72-2 144-11t144-15q20 106 39 210t35 212q-6-10-14-22t-22-12q-10 0-22 8t-12 22q0 8 10 27t24 39 28 38 22 26q2 18 3 35t1 35q-22-38-56-93t-73-116-80-123-76-115-60-92-35-53z"/><glyph unicode="" horiz-adv-x="1162" d="M194 275q-18 133 0 271 6 48 16 96t22 96q38 148 126 287t211 246 270 172 301 65q36 0 86-5t82-17q20-8 18-30-2-12-11-22t-23-10q-18 0-36 2t-38 2q-148 0-290-56t-261-152-207-224-130-272q-14-46-23-94t-15-94q-8-54-10-110t6-110 25-104 49-92q12-16 26-31t30-25q30-18 76-26t84-8q108 0 216 46t188 128q22 22 38 43t34 45q10 14 26 14 12 0 21-8t7-22q0-2-4-10-42-70-101-127T875 40 730-26 576-52q-2-24-5-48t-7-46q42-4 85-22t76-48 50-71 5-89q-8-36-31-66t-54-53-66-40-69-27q-2 0-12-3l-20-6-18-5-10-2q-10 0-17 13t-5 23q4 14 18 20 20 8 49 22t58 31 52 39 29 46q8 30-11 56t-41 42q-28 20-64 26t-74 2q-10 4-27 20t-27 24l2 12q8 30 22 73t34 79q-36 4-73 13t-61 23q-16 10-32 26l-30 30q-90 100-108 233z"/><glyph unicode="" d="M-10-58q0 10 6 16 58 64 141 95t167 41q58 134 112 269t104 273q-4-2-18-8t-28-13-26-12-14-5q-14 0-26 13t-12 25v4q0 2 2 2 24 46 71 77t95 47q52 156 90 314t92 312q-76-22-145-61t-121-99q-16-16-26-34t-24-34q-6-10-20-10-10 0-22 8t-12 22q0 6 2 8 54 108 139 175t187 104 215 52 221 21q180 8 342 35t328 101q4 2 10 2 14 0 23-11t9-23-6-18q-64-64-157-103t-181-55q-86-16-172-22t-172-9-172-8-170-23q-10-162-51-318t-93-308q56 0 111-8t111-8q50 0 99 5t97 17q6 2 19 6l26 8 24 8 13 4q10 0 22-14t12-22q0-12-10-18-76-48-172-70t-184-22q-34 0-66 4t-66 4q-42 0-76-8-52-148-116-290T386 98q66 0 131-10t129-21 129-21 131-10q30 0 60 2t60 8q98 20 167 70t139 116q8 8 16 8 12 0 23-11t11-21q0-6-4-14-90-126-218-190T878-60q-62 0-122 7T636-37 516-20t-122 8h-34l-34-2-15-30-25-18q-14 0-25 8t-11 22q0 6 4 10-34-6-62-13t-53-16-51-20-58-23h-6Q10-94 0-83t-10 25zm936 1920q0 10 11 25t21 15q42 0 78-26 14-10 26-21t26-21q72-50 130-108 0-2 1-4t1-4q0-12-11-26t-23-14-42 14-65 32-65 36-42 26q-16 10-31 33t-15 43z"/><glyph unicode="" d="M-10-58q0 10 6 16 58 64 141 95t167 41q58 134 112 269t104 273q-4-2-18-8t-28-13-26-12-14-5q-14 0-26 13t-12 25v4q0 2 2 2 24 46 71 77t95 47q52 156 90 314t92 312q-76-22-145-61t-121-99q-16-16-26-34t-24-34q-6-10-20-10-10 0-22 8t-12 22q0 6 2 8 54 108 139 175t187 104 215 52 221 21q180 8 342 35t328 101q4 2 10 2 14 0 23-11t9-23-6-18q-64-64-157-103t-181-55q-86-16-172-22t-172-9-172-8-170-23q-10-162-51-318t-93-308q56 0 111-8t111-8q50 0 99 5t97 17q6 2 19 6l26 8 24 8 13 4q10 0 22-14t12-22q0-12-10-18-76-48-172-70t-184-22q-34 0-66 4t-66 4q-42 0-76-8-52-148-116-290T386 98q66 0 131-10t129-21 129-21 131-10q30 0 60 2t60 8q98 20 167 70t139 116q8 8 16 8 12 0 23-11t11-21q0-6-4-14-90-126-218-190T878-60q-62 0-122 7T636-37 516-20t-122 8h-34l-34-2-15-30-25-18q-14 0-25 8t-11 22q0 6 4 10-34-6-62-13t-53-16-51-20-58-23h-6Q10-94 0-83t-10 25zm1056 1766q0 2 1 4t1 4q36 44 80 83t90 73q32 22 70 22 20 0 35-10t17-32q-18-44-54-68-14-10-28-17t-30-17q-66-44-146-80-12 0-24 13t-12 25z"/><glyph unicode="" d="M-10-58q0 10 6 16 58 64 141 95t167 41q58 134 112 269t104 273q-4-2-18-8t-28-13-26-12-14-5q-14 0-26 13t-12 25v4q0 2 2 2 24 46 71 77t95 47q52 156 90 314t92 312q-76-22-145-61t-121-99q-16-16-26-34t-24-34q-6-10-20-10-10 0-22 8t-12 22q0 6 2 8 54 108 139 175t187 104 215 52 221 21q180 8 342 35t328 101q4 2 10 2 14 0 23-11t9-23-6-18q-64-64-157-103t-181-55q-86-16-172-22t-172-9-172-8-170-23q-10-162-51-318t-93-308q56 0 111-8t111-8q50 0 99 5t97 17q6 2 19 6l26 8 24 8 13 4q10 0 22-14t12-22q0-12-10-18-76-48-172-70t-184-22q-34 0-66 4t-66 4q-42 0-76-8-52-148-116-290T386 98q66 0 131-10t129-21 129-21 131-10q30 0 60 2t60 8q98 20 167 70t139 116q8 8 16 8 12 0 23-11t11-21q0-6-4-14-90-126-218-190T878-60q-62 0-122 7T636-37 516-20t-122 8h-34l-34-2-15-30-25-18q-14 0-25 8t-11 22q0 6 4 10-34-6-62-13t-53-16-51-20-58-23h-6Q10-94 0-83t-10 25zm898 1798v2q0 2 1 2t1 2q10 22 43 54t74 61 81 50 64 21q30 0 46-14 60-42 115-88t107-96v-4q0-2 2-4 0-12-11-26t-23-14l-6 2-138 84q-6 2-20 12t-30 21-29 19-15 8q-16-14-45-37t-62-44-66-36-53-15q-10 0-23 14t-13 26z"/><glyph unicode="" d="M-10-58q0 10 6 16 58 64 141 95t167 41q58 134 112 269t104 273q-4-2-18-8t-28-13-26-12-14-5q-14 0-26 13t-12 25v4q0 2 2 2 24 46 71 77t95 47q52 156 90 314t92 312q-76-22-145-61t-121-99q-16-16-26-34t-24-34q-6-10-20-10-10 0-22 8t-12 22q0 6 2 8 54 108 139 175t187 104 215 52 221 21q180 8 342 35t328 101q4 2 10 2 14 0 23-11t9-23-6-18q-64-64-157-103t-181-55q-86-16-172-22t-172-9-172-8-170-23q-10-162-51-318t-93-308q56 0 111-8t111-8q50 0 99 5t97 17q6 2 19 6l26 8 24 8 13 4q10 0 22-14t12-22q0-12-10-18-76-48-172-70t-184-22q-34 0-66 4t-66 4q-42 0-76-8-52-148-116-290T386 98q66 0 131-10t129-21 129-21 131-10q30 0 60 2t60 8q98 20 167 70t139 116q8 8 16 8 12 0 23-11t11-21q0-6-4-14-90-126-218-190T878-60q-62 0-122 7T636-37 516-20t-122 8h-34l-34-2-15-30-25-18q-14 0-25 8t-11 22q0 6 4 10-34-6-62-13t-53-16-51-20-58-23h-6Q10-94 0-83t-10 25zm1080 1800q0 34 6 56t48 22q20 0 38-14t18-36q0-12-10-28h-2v-2q2-6 2-16-12-10-18-22t-28-12q-18 0-36 16t-18 36zm174 0q0 34 7 56t49 22q18 0 37-14t19-36q0-8-4-14t-8-14l-2-2q4-12 4-16-14-10-19-22t-27-12q-20 0-38 16t-18 36z"/><glyph unicode="" horiz-adv-x="1056" d="M-204-128q0 8 4 16 44 54 104 91T32 39t139 33 137 10q18 0 36-1t36-1q76 176 147 354t133 362q52 156 90 313t90 313h-2q-106 0-205-27t-195-69q-24-10-49-22t-49-22l-6-2q-12 0-24 12t-12 24q0 8 6 14 46 54 107 92t130 60 141 32 140 10q92 0 182-6t182-6q50 0 100 3t100 11q14 4 27 6t25 6q10 4 18 7t18 3 21-12 11-22q0-16-12-22-62-30-135-45t-149-21-151-5-143 1q-12-156-58-334T746 732 603 385 452 78q60-4 119-6t117-2q50 0 99 3t97 11q14 4 26 6t26 6q10 2 17 6t17 4 21-13 11-23q0-16-12-22-64-30-139-45T698-17t-155-4-147 1q-6-6-14-6t-16 6h-32q-106-2-205-29t-195-67q-24-10-48-23t-50-23h-6q-12 0-23 11t-11 23zm986 2010q0 10 11 25t21 15q42 0 78-26 14-10 26-21t26-21q72-50 130-108 0-2 1-4t1-4q0-12-11-26t-23-14-42 14-65 32-65 36-42 26q-16 10-31 33t-15 43z"/><glyph unicode="" horiz-adv-x="1056" d="M-204-128q0 8 4 16 44 54 104 91T32 39t139 33 137 10q18 0 36-1t36-1q76 176 147 354t133 362q52 156 90 313t90 313h-2q-106 0-205-27t-195-69q-24-10-49-22t-49-22l-6-2q-12 0-24 12t-12 24q0 8 6 14 46 54 107 92t130 60 141 32 140 10q92 0 182-6t182-6q50 0 100 3t100 11q14 4 27 6t25 6q10 4 18 7t18 3 21-12 11-22q0-16-12-22-62-30-135-45t-149-21-151-5-143 1q-12-156-58-334T746 732 603 385 452 78q60-4 119-6t117-2q50 0 99 3t97 11q14 4 26 6t26 6q10 2 17 6t17 4 21-13 11-23q0-16-12-22-64-30-139-45T698-17t-155-4-147 1q-6-6-14-6t-16 6h-32q-106-2-205-29t-195-67q-24-10-48-23t-50-23h-6q-12 0-23 11t-11 23zM884 1708q0 2 1 4t1 4q36 44 80 83t90 73q32 22 70 22 20 0 35-10t17-32q-18-44-54-68-14-10-28-17t-30-17q-66-44-146-80-12 0-24 13t-12 25z"/><glyph unicode="" horiz-adv-x="1056" d="M-204-128q0 8 4 16 44 54 104 91T32 39t139 33 137 10q18 0 36-1t36-1q76 176 147 354t133 362q52 156 90 313t90 313h-2q-106 0-205-27t-195-69q-24-10-49-22t-49-22l-6-2q-12 0-24 12t-12 24q0 8 6 14 46 54 107 92t130 60 141 32 140 10q92 0 182-6t182-6q50 0 100 3t100 11q14 4 27 6t25 6q10 4 18 7t18 3 21-12 11-22q0-16-12-22-62-30-135-45t-149-21-151-5-143 1q-12-156-58-334T746 732 603 385 452 78q60-4 119-6t117-2q50 0 99 3t97 11q14 4 26 6t26 6q10 2 17 6t17 4 21-13 11-23q0-16-12-22-64-30-139-45T698-17t-155-4-147 1q-6-6-14-6t-16 6h-32q-106-2-205-29t-195-67q-24-10-48-23t-50-23h-6q-12 0-23 11t-11 23zm886 1848v2q0 2 1 2t1 2q10 22 43 54t74 61 81 50 64 21q30 0 46-14 60-42 115-88t107-96v-4q0-2 2-4 0-12-11-26t-23-14l-6 2-138 84q-6 2-20 12t-30 21-29 19-15 8q-16-14-45-37t-62-44-66-36-53-15q-10 0-23 14t-13 26z"/><glyph unicode="" horiz-adv-x="1056" d="M-204-128q0 8 4 16 44 54 104 91T32 39t139 33 137 10q18 0 36-1t36-1q76 176 147 354t133 362q52 156 90 313t90 313h-2q-106 0-205-27t-195-69q-24-10-49-22t-49-22l-6-2q-12 0-24 12t-12 24q0 8 6 14 46 54 107 92t130 60 141 32 140 10q92 0 182-6t182-6q50 0 100 3t100 11q14 4 27 6t25 6q10 4 18 7t18 3 21-12 11-22q0-16-12-22-62-30-135-45t-149-21-151-5-143 1q-12-156-58-334T746 732 603 385 452 78q60-4 119-6t117-2q50 0 99 3t97 11q14 4 26 6t26 6q10 2 17 6t17 4 21-13 11-23q0-16-12-22-64-30-139-45T698-17t-155-4-147 1q-6-6-14-6t-16 6h-32q-106-2-205-29t-195-67q-24-10-48-23t-50-23h-6q-12 0-23 11t-11 23zM806 1722q0 34 6 56t48 22q20 0 38-14t18-36q0-12-10-28h-2v-2q2-6 2-16-12-10-18-22t-28-12q-18 0-36 16t-18 36zm174 0q0 34 7 56t49 22q18 0 37-14t19-36q0-8-4-14t-8-14l-2-2q4-12 4-16-14-10-19-22t-27-12q-20 0-38 16t-18 36z"/><glyph unicode="" horiz-adv-x="1706" d="M-20-18q0 24 22 30 40 8 77 15t77 25q90 40 159 111t123 158 94 182 72 183q-16-2-33-2h-33q-18 0-41 2t-48 5-48 9-37 16q-6 4-10 13t-4 17q0 6 5 16t11 14q30 12 75 15t79 3q30 0 61-1t61-3q46 140 89 283t113 275q-56-32-114-59t-112-61q-80-50-158-115T342 958q-10-22-14-44t-10-44q-2-8-10-13t-16-5q-18 0-25 10t-7 26q0 80 34 150t91 130 129 112 149 95 152 78 137 61q4 2 7 4t9 2q12 0 23-9t11-23q0-2-9-24t-19-49-21-52-13-33q82 88 182 142t222 54h40q52-8 102-30t94-55 80-74 60-87q30-60 44-126t14-132q0-116-35-239t-98-241-149-224-190-186T1084 5 842-42Q720-42 612 9T416 142Q336 58 229 5T6-48q-12 0-19 10t-7 20zm476 206q76-66 170-109t196-43q106 0 204 37t186 101 162 149 132 181 98 196 60 196q4 28 7 53t3 53q0 76-23 151t-67 134-108 95-148 36q-60 0-116-21t-106-54-94-74-80-83q-16-20-41-46t-37-48q-4-10-10-27t-12-36-12-37l-10-30q-28-88-60-174 46-2 90-3t88-5q26-2 53-2t51-6q10-2 16-11t6-17-6-18-14-12q-24-6-52-7t-54-5q-104-8-214-12l-4-16q-50-132-109-254T456 188z"/><glyph unicode="" horiz-adv-x="1528" d="M-122-28q0 24 22 28 40 10 77 17t77 23q94 42 165 116t127 164 97 188 75 188q30 80 57 162t54 163 58 161 71 156q-56-34-114-61t-114-61q-80-48-159-114T252 946q-10-22-14-43t-10-43q-6-20-28-20-6 0-19 8t-13 16q0 74 26 138t70 119 100 101 114 82q94 58 193 112t203 90h4q16 0 29-12t9-28q58-194 88-390t54-396q16-136 32-271t24-273q74 182 135 365t131 365q52 132 112 257t144 237q44 56 99 105t118 86 133 58 142 21q10 0 18-10t8-20q0-24-24-30-44-10-82-17t-82-25q-100-44-175-123t-134-175-102-200-79-200-72-211-77-230-92-221-119-184q-6-6-15-8t-19-2q-18 0-24 16-30 76-45 167t-25 173q-30 260-49 519t-67 515q-70-176-130-352T614 660q-48-124-105-242T370 194q-42-54-94-100T164 14 38-39-98-58q-10 0-17 10t-7 20zm1174 1668q0 2 4 11t6 11q18 36 51 62t73 32q10 2 30 2 42 0 82-15t77-34 70-34 61-15q20 0 31 9t19 21l14 21 16 9q4 0 20-12t16-16-2-14-6-14q-16-40-50-65t-76-25q-34 0-67 12t-66 25-65 25-66 12q-22 0-44-7t-41-14-32-14-17-7q-12 0-25 11t-13 23z"/><glyph unicode="" d="M184 312q0 102 22 198t59 188 86 178 103 170q36 52 71 106t75 106q12 12 24 12t21-9 9-21q0-6-4-18-64-100-131-205T397 801t-90-228-35-243v-39l4-41q6-52 30-91t60-67 82-42 94-14q70 0 141 31t136 78 122 104 99 109q64 80 124 171t107 189 75 202 28 210q0 68-18 129t-55 106-92 71-129 26q-88 0-165-30t-151-74q-8-4-16-4-14 0-23 9t-9 21 12 24q76 64 177 106t199 42q92 0 163-34t119-92 73-135 25-163q0-120-30-232t-80-216-117-202-139-188q-48-60-113-122T866 58 711-27 550-60q-66 0-128 21T310 20t-83 93-39 125q-2 18-3 37t-1 37zm924 1570q0 10 11 25t21 15q42 0 78-26 14-10 26-21t26-21q72-50 130-108 0-2 1-4t1-4q0-12-11-26t-23-14-42 14-65 32-65 36-42 26q-16 10-31 33t-15 43z"/><glyph unicode="" d="M184 312q0 102 22 198t59 188 86 178 103 170q36 52 71 106t75 106q12 12 24 12t21-9 9-21q0-6-4-18-64-100-131-205T397 801t-90-228-35-243v-39l4-41q6-52 30-91t60-67 82-42 94-14q70 0 141 31t136 78 122 104 99 109q64 80 124 171t107 189 75 202 28 210q0 68-18 129t-55 106-92 71-129 26q-88 0-165-30t-151-74q-8-4-16-4-14 0-23 9t-9 21 12 24q76 64 177 106t199 42q92 0 163-34t119-92 73-135 25-163q0-120-30-232t-80-216-117-202-139-188q-48-60-113-122T866 58 711-27 550-60q-66 0-128 21T310 20t-83 93-39 125q-2 18-3 37t-1 37zm1006 1396q0 2 1 4t1 4q36 44 80 83t90 73q32 22 70 22 20 0 35-10t17-32q-18-44-54-68-14-10-28-17t-30-17q-66-44-146-80-12 0-24 13t-12 25z"/><glyph unicode="" d="M184 312q0 102 22 198t59 188 86 178 103 170q36 52 71 106t75 106q12 12 24 12t21-9 9-21q0-6-4-18-64-100-131-205T397 801t-90-228-35-243v-39l4-41q6-52 30-91t60-67 82-42 94-14q70 0 141 31t136 78 122 104 99 109q64 80 124 171t107 189 75 202 28 210q0 68-18 129t-55 106-92 71-129 26q-88 0-165-30t-151-74q-8-4-16-4-14 0-23 9t-9 21 12 24q76 64 177 106t199 42q92 0 163-34t119-92 73-135 25-163q0-120-30-232t-80-216-117-202-139-188q-48-60-113-122T866 58 711-27 550-60q-66 0-128 21T310 20t-83 93-39 125q-2 18-3 37t-1 37zm844 1428v2q0 2 1 2t1 2q10 22 43 54t74 61 81 50 64 21q30 0 46-14 60-42 115-88t107-96v-4q0-2 2-4 0-12-11-26t-23-14l-6 2-138 84q-6 2-20 12t-30 21-29 19-15 8q-16-14-45-37t-62-44-66-36-53-15q-10 0-23 14t-13 26z"/><glyph unicode="" d="M184 312q0 102 22 198t59 188 86 178 103 170q36 52 71 106t75 106q12 12 24 12t21-9 9-21q0-6-4-18-64-100-131-205T397 801t-90-228-35-243v-39l4-41q6-52 30-91t60-67 82-42 94-14q70 0 141 31t136 78 122 104 99 109q64 80 124 171t107 189 75 202 28 210q0 68-18 129t-55 106-92 71-129 26q-88 0-165-30t-151-74q-8-4-16-4-14 0-23 9t-9 21 12 24q76 64 177 106t199 42q92 0 163-34t119-92 73-135 25-163q0-120-30-232t-80-216-117-202-139-188q-48-60-113-122T866 58 711-27 550-60q-66 0-128 21T310 20t-83 93-39 125q-2 18-3 37t-1 37zm826 1472q0 2 4 11t6 11q18 36 51 62t73 32q10 2 30 2 42 0 82-15t77-34 70-34 61-15q20 0 31 9t19 21l14 21 16 9q4 0 20-12t16-16-2-14-6-14q-16-40-50-65t-76-25q-34 0-67 12t-66 25-65 25-66 12q-22 0-44-7t-41-14-32-14-17-7q-12 0-25 11t-13 23z"/><glyph unicode="" d="M184 312q0 102 22 198t59 188 86 178 103 170q36 52 71 106t75 106q12 12 24 12t21-9 9-21q0-6-4-18-64-100-131-205T397 801t-90-228-35-243v-39l4-41q6-52 30-91t60-67 82-42 94-14q70 0 141 31t136 78 122 104 99 109q64 80 124 171t107 189 75 202 28 210q0 68-18 129t-55 106-92 71-129 26q-88 0-165-30t-151-74q-8-4-16-4-14 0-23 9t-9 21 12 24q76 64 177 106t199 42q92 0 163-34t119-92 73-135 25-163q0-120-30-232t-80-216-117-202-139-188q-48-60-113-122T866 58 711-27 550-60q-66 0-128 21T310 20t-83 93-39 125q-2 18-3 37t-1 37zm948 1430q0 34 6 56t48 22q20 0 38-14t18-36q0-12-10-28h-2v-2q2-6 2-16-12-10-18-22t-28-12q-18 0-36 16t-18 36zm174 0q0 34 7 56t49 22q18 0 37-14t19-36q0-8-4-14t-8-14l-2-2q4-12 4-16-14-10-19-22t-27-12q-20 0-38 16t-18 36z"/><glyph unicode="" horiz-adv-x="990" d="M204 246q0 4 4 12 68 102 159 188t179 170q-36 36-85 81t-96 94-88 99-61 96q-2 0-2 4v2q0 12 11 25t23 13q6 0 14-4 102-68 188-159t170-181q120 116 240 228 28 28 57 55t59 53q8 6 16 6 10 0 21-12t11-22q0-6-22-34t-56-66-75-83-78-85-66-70-39-40q116-118 230-242 28-28 55-57t53-59q4-12 4-16 0-10-11-21t-21-11q-6 0-34 22t-66 56-83 75-85 78-70 65-40 38q-36-36-82-85t-95-97-100-89-95-61l-6-2q-12 0-25 11t-13 25z"/><glyph unicode="" horiz-adv-x="1462" d="M-30-138q0 12 8 18Q0-98 22-78t44 42q46 44 93 88t93 90q-18 40-22 84t-4 88q0 102 22 198t59 187 86 177 103 170q34 50 72 108t74 104q12 12 24 12t21-9 9-21q0-10-6-18-66-106-133-209T434 796q-52-108-87-224t-35-238q0-30 2-61t10-61q144 142 280 287t266 299q122 142 232 289t222 297q-40 42-93 60t-111 18q-86 0-163-31t-151-73q-12-4-18-4-12 0-21 9t-9 21q0 14 12 24 36 32 81 59t94 47 100 31 99 11q70 0 131-20t113-68q34 46 69 93t73 87q10 10 20 10 14 0 24-9t10-21q0-8-18-42t-40-73-44-74-28-47q40-62 56-126t16-134q0-120-30-232t-81-217-118-202-139-187q-48-60-112-123T907 57 751-27 590-60q-84 0-164 34T294 74Q226 14 157-47T16-164q-6-6-16-6-12 0-21 10t-9 22zm392 274q40-50 99-75t123-25q70 0 141 31t136 78 121 104 98 109q64 80 125 171t108 189 75 202 28 210q0 42-7 81t-23 77q-104-154-226-306T906 683 636 398 362 136z"/><glyph unicode="" horiz-adv-x="1538" d="M226 912q0 70 25 131t67 113 95 95 107 77q90 56 183 105t191 85q4 6 11 10t13 4q12 0 23-9t11-23q0-6-2-8-30-82-71-186t-85-219-86-235-75-236-54-221-21-189q0-28 1-57t10-53 28-40 55-16q48 0 96 26 108 56 196 151t158 195q14 18 30 40t26 42q6 14 9 32t7 34q10 32 18 63t18 65q60 190 129 375t171 357q16 26 31 52t33 50q6 10 20 10 16 0 25-10t11-26q-34-94-79-202t-92-224-92-238-80-240-57-231-22-211q0-40 18-78t64-38q32 0 76 18t85 41 72 41 37 18q12 0 21-11t9-23-10-18q-46-40-114-80t-128-56q-26-8-58-8-52 0-84 23t-50 59-24 79-6 85q0 30 3 60t7 60q-36-54-89-120T921 79 787-16 646-54q-60 0-97 25t-57 64-27 87-7 96q0 64 9 125t23 121q52 236 128 462t190 440q-58-34-117-62t-117-62q-78-48-155-112T306 978q-10-20-13-38t-9-38q-4-18-26-18-10 0-21 8t-11 20zm860 908q0 10 11 25t21 15q42 0 78-26 14-10 26-21t26-21q72-50 130-108 0-2 1-4t1-4q0-12-11-26t-23-14-42 14-65 32-65 36-42 26q-16 10-31 33t-15 43z"/><glyph unicode="" horiz-adv-x="1538" d="M226 912q0 70 25 131t67 113 95 95 107 77q90 56 183 105t191 85q4 6 11 10t13 4q12 0 23-9t11-23q0-6-2-8-30-82-71-186t-85-219-86-235-75-236-54-221-21-189q0-28 1-57t10-53 28-40 55-16q48 0 96 26 108 56 196 151t158 195q14 18 30 40t26 42q6 14 9 32t7 34q10 32 18 63t18 65q60 190 129 375t171 357q16 26 31 52t33 50q6 10 20 10 16 0 25-10t11-26q-34-94-79-202t-92-224-92-238-80-240-57-231-22-211q0-40 18-78t64-38q32 0 76 18t85 41 72 41 37 18q12 0 21-11t9-23-10-18q-46-40-114-80t-128-56q-26-8-58-8-52 0-84 23t-50 59-24 79-6 85q0 30 3 60t7 60q-36-54-89-120T921 79 787-16 646-54q-60 0-97 25t-57 64-27 87-7 96q0 64 9 125t23 121q52 236 128 462t190 440q-58-34-117-62t-117-62q-78-48-155-112T306 978q-10-20-13-38t-9-38q-4-18-26-18-10 0-21 8t-11 20zm964 734q0 2 1 4t1 4q36 44 80 83t90 73q32 22 70 22 20 0 35-10t17-32q-18-44-54-68-14-10-28-17t-30-17q-66-44-146-80-12 0-24 13t-12 25z"/><glyph unicode="" horiz-adv-x="1538" d="M226 912q0 70 25 131t67 113 95 95 107 77q90 56 183 105t191 85q4 6 11 10t13 4q12 0 23-9t11-23q0-6-2-8-30-82-71-186t-85-219-86-235-75-236-54-221-21-189q0-28 1-57t10-53 28-40 55-16q48 0 96 26 108 56 196 151t158 195q14 18 30 40t26 42q6 14 9 32t7 34q10 32 18 63t18 65q60 190 129 375t171 357q16 26 31 52t33 50q6 10 20 10 16 0 25-10t11-26q-34-94-79-202t-92-224-92-238-80-240-57-231-22-211q0-40 18-78t64-38q32 0 76 18t85 41 72 41 37 18q12 0 21-11t9-23-10-18q-46-40-114-80t-128-56q-26-8-58-8-52 0-84 23t-50 59-24 79-6 85q0 30 3 60t7 60q-36-54-89-120T921 79 787-16 646-54q-60 0-97 25t-57 64-27 87-7 96q0 64 9 125t23 121q52 236 128 462t190 440q-58-34-117-62t-117-62q-78-48-155-112T306 978q-10-20-13-38t-9-38q-4-18-26-18-10 0-21 8t-11 20zm782 808v2q0 2 1 2t1 2q10 22 43 54t74 61 81 50 64 21q30 0 46-14 60-42 115-88t107-96v-4q0-2 2-4 0-12-11-26t-23-14l-6 2-138 84q-6 2-20 12t-30 21-29 19-15 8q-16-14-45-37t-62-44-66-36-53-15q-10 0-23 14t-13 26z"/><glyph unicode="" horiz-adv-x="1538" d="M226 912q0 70 25 131t67 113 95 95 107 77q90 56 183 105t191 85q4 6 11 10t13 4q12 0 23-9t11-23q0-6-2-8-30-82-71-186t-85-219-86-235-75-236-54-221-21-189q0-28 1-57t10-53 28-40 55-16q48 0 96 26 108 56 196 151t158 195q14 18 30 40t26 42q6 14 9 32t7 34q10 32 18 63t18 65q60 190 129 375t171 357q16 26 31 52t33 50q6 10 20 10 16 0 25-10t11-26q-34-94-79-202t-92-224-92-238-80-240-57-231-22-211q0-40 18-78t64-38q32 0 76 18t85 41 72 41 37 18q12 0 21-11t9-23-10-18q-46-40-114-80t-128-56q-26-8-58-8-52 0-84 23t-50 59-24 79-6 85q0 30 3 60t7 60q-36-54-89-120T921 79 787-16 646-54q-60 0-97 25t-57 64-27 87-7 96q0 64 9 125t23 121q52 236 128 462t190 440q-58-34-117-62t-117-62q-78-48-155-112T306 978q-10-20-13-38t-9-38q-4-18-26-18-10 0-21 8t-11 20zm906 830q0 34 6 56t48 22q20 0 38-14t18-36q0-12-10-28h-2v-2q2-6 2-16-12-10-18-22t-28-12q-18 0-36 16t-18 36zm174 0q0 34 7 56t49 22q18 0 37-14t19-36q0-8-4-14t-8-14l-2-2q4-12 4-16-14-10-19-22t-27-12q-20 0-38 16t-18 36z"/><glyph unicode="" horiz-adv-x="1484" d="M-154-748q0 108 33 218t91 211 138 184T282 0q8 4 14 4 12 0 21-9t9-21q0-16-16-26-20-16-40-29t-40-29q-90-74-153-172T-26-488q-20-58-32-119t-12-125q0-92 30-164t84-121 129-75 165-26q46 0 91 8t89 28q70 30 127 88t102 134 80 163 61 175 45 172 33 152q24 108 48 217t54 217q-34-44-81-95T885 47 770-25 650-54t-97 25-56 64-26 87-7 96q0 64 8 125t22 121q52 236 128 462t190 440q-58-34-117-62t-117-62q-78-48-155-112T310 978q-8-20-12-38t-8-38q-6-18-28-18-10 0-21 8t-11 20q0 70 25 131t67 113 95 95 107 77q90 56 183 105t193 85q2 6 9 10t13 4q12 0 23-9t11-23q0-6-2-8-30-82-71-186t-85-219-86-236-75-236-54-220-21-189q0-28 1-57t10-53 28-40 55-16q26 0 50 8t46 18q72 36 132 89t113 115 100 129 89 131q4 4 4 6 36 76 80 157t94 160 106 152 114 133q10 10 24 10 12 0 21-8t9-22q0-12-6-18-72-104-135-205t-119-205-103-213-87-229q-40-116-67-235t-54-239-57-239-74-235q-40-104-92-197t-123-164-165-112-216-41q-104 0-194 33t-157 94-105 147-38 192zm1446 2250q0 2 1 4t1 4q36 44 80 83t90 73q32 22 70 22 20 0 35-10t17-32q-18-44-54-68-14-10-28-17t-30-17q-66-44-146-80-12 0-24 13t-12 25z"/><glyph unicode="" horiz-adv-x="754" d="M-840-580q0 12 10 20t22 8q16 0 26-16 8-16 15-34t15-34q14-30 33-63t43-62 55-47 69-18q2 0 4-1t6 1q46 12 84 41t69 68 57 82 48 81q102 182 176 374T32 208q76 226 134 454t112 460q18 78 36 155t38 153q8 34 15 67t17 65q6 22 28 22 32 0 32-30 0-40-9-100t-15-102q-16-124-40-246t-52-244q50 26 106 46t114 20q38 0 72-15t61-40 45-59 24-70q4-20 4-40v-40q0-128-45-247T594 192q-34-50-73-97t-85-83-101-58-119-22q-8 0-26 1t-24 3q-30 10-55 33T72 20Q14-142-52-298t-156-302q-28-46-58-92t-66-86q-34-38-74-67t-88-45q-4-2-19-7t-19-5q-52 0-93 17t-72 46-55 68-44 83q-4 6-11 21t-14 33-13 34-6 20zm996 712q0-20 3-38t11-33 24-19q8-2 24-2 44 0 87 20t81 50 70 67 54 71q62 96 108 207t46 225q0 68-27 118t-105 50q-54 0-115-22t-109-46q-44-176-96-340l-16-56-18-56q-4-12-9-25t-7-23q-6-28-6-58v-90z"/><glyph unicode="" horiz-adv-x="1288" d="M-1146-746q0 28 26 28 20 0 30-18 16-22 31-43t33-43q74-80 176-132t212-52q154 0 260 112 76 80 131 174t96 196 73 207 64 209q64 216 129 430t147 424q42 108 82 219t95 213 132 187 189 141q50 26 104 40t110 14q74 0 139-27t113-75 76-112 28-138q0-66-22-112t-59-77-87-51-104-38q-22-8-41-16t-41-16q-14-6-26-10t-24-12q-36-22-64-62t-28-84q0-10 2-22t8-20q14-24 52-51t83-56 88-59 69-58q28-32 42-77t14-89q0-70-29-134t-79-115-114-81-134-30q-74 0-127 32t-88 83-51 114-16 127v23l3 30 10 25 21 10q22 0 26-18t4-34q0-46 11-99t35-98 63-75 95-30q52 0 100 23t85 61 59 87 22 101q0 26-7 49t-25 43q-28 32-66 56t-74 46q-18 12-41 27t-46 33-43 36-32 36q-14 20-21 52t-7 58q0 48 17 89t46 74 66 58 79 41q44 16 89 31t89 33q32 14 63 33t41 53 10 60q0 54-20 99t-55 78-81 52-98 19q-78 0-145-29t-123-76-102-107-80-124q-52-98-91-201t-79-207q-82-208-148-420T70-134q-26-84-59-187t-75-208-96-204-125-176-160-124-199-47q-72 0-145 27t-139 70-121 99-91 116q-6 12-6 22z"/><glyph unicode="" horiz-adv-x="914" d="M0 96q0 66 17 131t46 126 67 117 80 106q108 134 248 233t304 159q2 2 8 2 14 0 21-10t7-22q0-18-14-24-34-18-67-33t-65-33Q430 720 278 520q-30-40-62-90t-58-103-43-109-17-108q0-8 2-23t6-30 13-26 21-11q58 0 113 30t103 76 86 98 62 98q46 84 82 169t72 171q14 36 33 84t37 82q8 14 26 14 14 0 24-8t10-22l-2-4q-16-72-36-145t-44-143q-10-28-24-62t-22-58q-4-14-5-28t-3-28q-6-32-13-63t-15-63q-10-40-17-81t-7-83V36l2-16q14 0 33 12t39 29 37 35 27 28q60 64 114 142 14 16 25 35t25 35q6 10 18 10 14 0 24-10t10-24q-52-106-108-189T700-38q-44-40-100-40-30 0-57 17t-37 47q-4 10-5 28t-2 38 0 39 1 31Q430 38 335-21T126-80q-6 0-17 4t-17 6Q46-48 23 0T0 96zm536 1214q0 10 11 25t21 15q42 0 78-26 14-10 26-21t26-21q72-50 130-108 0-2 1-4t1-4q0-12-11-26t-23-14-42 14-65 32-65 36-42 26q-16 10-31 33t-15 43z"/><glyph unicode="" horiz-adv-x="914" d="M0 96q0 66 17 131t46 126 67 117 80 106q108 134 248 233t304 159q2 2 8 2 14 0 21-10t7-22q0-18-14-24-34-18-67-33t-65-33Q430 720 278 520q-30-40-62-90t-58-103-43-109-17-108q0-8 2-23t6-30 13-26 21-11q58 0 113 30t103 76 86 98 62 98q46 84 82 169t72 171q14 36 33 84t37 82q8 14 26 14 14 0 24-8t10-22l-2-4q-16-72-36-145t-44-143q-10-28-24-62t-22-58q-4-14-5-28t-3-28q-6-32-13-63t-15-63q-10-40-17-81t-7-83V36l2-16q14 0 33 12t39 29 37 35 27 28q60 64 114 142 14 16 25 35t25 35q6 10 18 10 14 0 24-10t10-24q-52-106-108-189T700-38q-44-40-100-40-30 0-57 17t-37 47q-4 10-5 28t-2 38 0 39 1 31Q430 38 335-21T126-80q-6 0-17 4t-17 6Q46-48 23 0T0 96zm576 1080q0 2 1 4t1 4q36 44 80 83t90 73q32 22 70 22 20 0 35-10t17-32q-18-44-54-68-14-10-28-17t-30-17q-66-44-146-80-12 0-24 13t-12 25z"/><glyph unicode="" horiz-adv-x="914" d="M0 96q0 66 17 131t46 126 67 117 80 106q108 134 248 233t304 159q2 2 8 2 14 0 21-10t7-22q0-18-14-24-34-18-67-33t-65-33Q430 720 278 520q-30-40-62-90t-58-103-43-109-17-108q0-8 2-23t6-30 13-26 21-11q58 0 113 30t103 76 86 98 62 98q46 84 82 169t72 171q14 36 33 84t37 82q8 14 26 14 14 0 24-8t10-22l-2-4q-16-72-36-145t-44-143q-10-28-24-62t-22-58q-4-14-5-28t-3-28q-6-32-13-63t-15-63q-10-40-17-81t-7-83V36l2-16q14 0 33 12t39 29 37 35 27 28q60 64 114 142 14 16 25 35t25 35q6 10 18 10 14 0 24-10t10-24q-52-106-108-189T700-38q-44-40-100-40-30 0-57 17t-37 47q-4 10-5 28t-2 38 0 39 1 31Q430 38 335-21T126-80q-6 0-17 4t-17 6Q46-48 23 0T0 96zm498 1072v2q0 2 1 2t1 2q10 22 43 54t74 61 81 50 64 21q30 0 46-14 60-42 115-88t107-96v-4q0-2 2-4 0-12-11-26t-23-14l-6 2-138 84q-6 2-20 12t-30 21-29 19-15 8q-16-14-45-37t-62-44-66-36-53-15q-10 0-23 14t-13 26z"/><glyph unicode="" horiz-adv-x="914" d="M0 96q0 66 17 131t46 126 67 117 80 106q108 134 248 233t304 159q2 2 8 2 14 0 21-10t7-22q0-18-14-24-34-18-67-33t-65-33Q430 720 278 520q-30-40-62-90t-58-103-43-109-17-108q0-8 2-23t6-30 13-26 21-11q58 0 113 30t103 76 86 98 62 98q46 84 82 169t72 171q14 36 33 84t37 82q8 14 26 14 14 0 24-8t10-22l-2-4q-16-72-36-145t-44-143q-10-28-24-62t-22-58q-4-14-5-28t-3-28q-6-32-13-63t-15-63q-10-40-17-81t-7-83V36l2-16q14 0 33 12t39 29 37 35 27 28q60 64 114 142 14 16 25 35t25 35q6 10 18 10 14 0 24-10t10-24q-52-106-108-189T700-38q-44-40-100-40-30 0-57 17t-37 47q-4 10-5 28t-2 38 0 39 1 31Q430 38 335-21T126-80q-6 0-17 4t-17 6Q46-48 23 0T0 96zm418 1076q0 2 4 11t6 11q18 36 51 62t73 32q10 2 30 2 42 0 82-15t77-34 70-34 61-15q20 0 31 9t19 21l14 21 16 9q4 0 20-12t16-16-2-14-6-14q-16-40-50-65t-76-25q-34 0-67 12t-66 25-65 25-66 12q-22 0-44-7t-41-14-32-14-17-7q-12 0-25 11t-13 23z"/><glyph unicode="" horiz-adv-x="914" d="M0 96q0 66 17 131t46 126 67 117 80 106q108 134 248 233t304 159q2 2 8 2 14 0 21-10t7-22q0-18-14-24-34-18-67-33t-65-33Q430 720 278 520q-30-40-62-90t-58-103-43-109-17-108q0-8 2-23t6-30 13-26 21-11q58 0 113 30t103 76 86 98 62 98q46 84 82 169t72 171q14 36 33 84t37 82q8 14 26 14 14 0 24-8t10-22l-2-4q-16-72-36-145t-44-143q-10-28-24-62t-22-58q-4-14-5-28t-3-28q-6-32-13-63t-15-63q-10-40-17-81t-7-83V36l2-16q14 0 33 12t39 29 37 35 27 28q60 64 114 142 14 16 25 35t25 35q6 10 18 10 14 0 24-10t10-24q-52-106-108-189T700-38q-44-40-100-40-30 0-57 17t-37 47q-4 10-5 28t-2 38 0 39 1 31Q430 38 335-21T126-80q-6 0-17 4t-17 6Q46-48 23 0T0 96zm560 1054q0 34 6 56t48 22q20 0 38-14t18-36q0-12-10-28h-2v-2q2-6 2-16-12-10-18-22t-28-12q-18 0-36 16t-18 36zm174 0q0 34 7 56t49 22q18 0 37-14t19-36q0-8-4-14t-8-14l-2-2q4-12 4-16-14-10-19-22t-27-12q-20 0-38 16t-18 36z"/><glyph unicode="" horiz-adv-x="914" d="M0 96q0 66 17 131t46 126 67 117 80 106q84 104 186 186t222 144q-34 16-55 44t-19 68v12q2 56 32 102t78 74q4 2 18 8t18 8q10 8 26 11t26 3q54 0 94-42t40-94q0-116-82-178-6-6-10-8-34-18-67-33t-65-33Q430 720 278 520q-30-40-62-90t-58-103-43-109-17-108q0-8 2-23t6-30 13-26 21-11q58 0 113 30t103 76 86 98 62 98q46 84 82 169t72 171q14 36 33 84t37 82q8 14 26 14 14 0 24-8t10-22l-2-4q-16-72-36-145t-44-143q-10-28-24-62t-22-58q-4-14-5-28t-3-28q-6-32-13-63t-15-63q-10-40-17-81t-7-83V36l2-16q14 0 33 12t39 29 37 35 27 28q60 64 114 142 14 16 25 35t25 35q6 10 18 10 14 0 24-10t10-24q-52-106-108-189T700-38q-44-40-100-40-30 0-57 17t-37 47q-4 10-5 28t-2 38 0 39 1 31Q430 38 335-21T126-80q-6 0-17 4t-17 6Q46-48 23 0T0 96zm632 946q0-54 52-54 40 0 61 32t21 68q0 34-15 49t-43 25q-30-22-53-51t-23-69z"/><glyph unicode="" horiz-adv-x="1218" d="M0 82q0 66 18 130t47 125 67 117 78 106q110 134 249 233t303 159q2 2 8 2 14 0 22-10t8-22q0-18-16-24-34-18-66-33t-66-33q-108-64-203-145T278 504q-30-40-62-90t-58-103-43-109T98 94q0-8 2-23t6-30 13-26 21-11q58 0 113 30t102 75 86 98 63 99q24 44 47 89t39 91q8 18 13 37t13 37q10 22 21 45t21 45q16 34 34 83t36 79q12 14 26 14 16 0 26-10 32 34 78 71t97 68 104 51 103 20q60 0 94-41t34-99q0-52-24-101t-62-94-82-82-82-63q-60-40-125-75t-139-35q-16 0-36 4t-20 26q0 26 28 34 8 2 16 2t16 2q42 12 86 38 36 20 89 61t104 89 87 100 36 98q0 30-32 30-14 0-26-4l-24-8q-62-22-123-61t-107-83q-38-38-81-93t-63-103q-10-22-15-43t-13-43-17-43-15-43q-10-28-11-61t-1-63q0-28 2-54t6-52q4-24 15-49t27-46 37-34 49-13q16 0 31 5t29 13q56 32 102 83t84 101q10 16 20 31t20 29q8 12 22 12 12 0 22-9t10-21q0-6-4-14-24-44-60-98T985 55t-98-79-109-32q-50 0-88 24t-63 61-40 83-21 88q-38-58-84-112T382-7 264-72 126-96q-6 0-19 5t-19 7Q42-62 21-14T0 82z"/><glyph unicode="" horiz-adv-x="652" d="M62 222q0 86 20 164 20 88 59 174t95 160 128 131 160 91q30 12 68 23t72 11q10 0 19-12t9-22q0-20-16-26-34-16-67-30t-65-36q-134-82-230-208T178 364q-18-78-18-158 0-28 4-61t15-65 30-58 49-38q2-2 7-2h7q50 0 92 27t76 61q54 54 102 124l20 28 20 26q6 10 18 10t23-9 11-21q0-4-9-20t-21-35-23-36-15-23q-26-40-54-76t-62-66-73-49-87-25q-2-22-5-43t-7-43q42-4 85-22t76-48 50-71 5-89q-10-36-32-66t-53-53-66-39-69-26q-2 0-12-3l-20-6-18-5-10-4q-10 0-18 14t-6 22q6 16 18 22 20 8 50 22t59 31 52 38 29 45q6 30-12 56t-40 42q-28 22-64 27t-76 3q-10 4-27 19t-25 25l2 10q6 30 20 72t32 78q-30 12-54 36T113-3 86 61t-16 63q-4 24-6 48t-2 50z"/><glyph unicode="" horiz-adv-x="718" d="M72 248q0 152 64 291t172 245q32 32 74 65t89 60 96 44 95 17q58 0 93-39t35-97q0-50-24-99t-61-93-81-80-82-62q-58-40-121-74t-137-34q-16 0-35 4t-19 26q0 28 26 34 6 2 14 2t16 2q22 4 43 14t43 22q34 22 86 62t102 88 85 98 35 94q0 28-30 28-12 0-24-4l-24-8q-96-32-176-97T288 606t-91-184-33-196q0-32 5-73t20-77 41-61 68-25q16 0 30 5t28 13q54 30 100 81t82 103q10 12 19 26t19 28q6 10 20 10 12 0 23-8t11-22q0-4-4-12-24-44-60-97t-80-99-95-77-107-31q-62 0-103 35t-65 86-34 110-10 107zm464 1042q0 10 11 25t21 15q42 0 78-26 14-10 26-21t26-21q72-50 130-108 0-2 1-4t1-4q0-12-11-26t-23-14-42 14-65 32-65 36-42 26q-16 10-31 33t-15 43z"/><glyph unicode="" horiz-adv-x="718" d="M72 248q0 152 64 291t172 245q32 32 74 65t89 60 96 44 95 17q58 0 93-39t35-97q0-50-24-99t-61-93-81-80-82-62q-58-40-121-74t-137-34q-16 0-35 4t-19 26q0 28 26 34 6 2 14 2t16 2q22 4 43 14t43 22q34 22 86 62t102 88 85 98 35 94q0 28-30 28-12 0-24-4l-24-8q-96-32-176-97T288 606t-91-184-33-196q0-32 5-73t20-77 41-61 68-25q16 0 30 5t28 13q54 30 100 81t82 103q10 12 19 26t19 28q6 10 20 10 12 0 23-8t11-22q0-4-4-12-24-44-60-97t-80-99-95-77-107-31q-62 0-103 35t-65 86-34 110-10 107zm464 908q0 2 1 4t1 4q36 44 80 83t90 73q32 22 70 22 20 0 35-10t17-32q-18-44-54-68-14-10-28-17t-30-17q-66-44-146-80-12 0-24 13t-12 25z"/><glyph unicode="" horiz-adv-x="718" d="M72 248q0 152 64 291t172 245q32 32 74 65t89 60 96 44 95 17q58 0 93-39t35-97q0-50-24-99t-61-93-81-80-82-62q-58-40-121-74t-137-34q-16 0-35 4t-19 26q0 28 26 34 6 2 14 2t16 2q22 4 43 14t43 22q34 22 86 62t102 88 85 98 35 94q0 28-30 28-12 0-24-4l-24-8q-96-32-176-97T288 606t-91-184-33-196q0-32 5-73t20-77 41-61 68-25q16 0 30 5t28 13q54 30 100 81t82 103q10 12 19 26t19 28q6 10 20 10 12 0 23-8t11-22q0-4-4-12-24-44-60-97t-80-99-95-77-107-31q-62 0-103 35t-65 86-34 110-10 107zm364 920v2q0 2 1 2t1 2q10 22 43 54t74 61 81 50 64 21q30 0 46-14 60-42 115-88t107-96v-4q0-2 2-4 0-12-11-26t-23-14l-6 2-138 84q-6 2-20 12t-30 21-29 19-15 8q-16-14-45-37t-62-44-66-36-53-15q-10 0-23 14t-13 26z"/><glyph unicode="" horiz-adv-x="718" d="M72 248q0 152 64 291t172 245q32 32 74 65t89 60 96 44 95 17q58 0 93-39t35-97q0-50-24-99t-61-93-81-80-82-62q-58-40-121-74t-137-34q-16 0-35 4t-19 26q0 28 26 34 6 2 14 2t16 2q22 4 43 14t43 22q34 22 86 62t102 88 85 98 35 94q0 28-30 28-12 0-24-4l-24-8q-96-32-176-97T288 606t-91-184-33-196q0-32 5-73t20-77 41-61 68-25q16 0 30 5t28 13q54 30 100 81t82 103q10 12 19 26t19 28q6 10 20 10 12 0 23-8t11-22q0-4-4-12-24-44-60-97t-80-99-95-77-107-31q-62 0-103 35t-65 86-34 110-10 107zm468 924q0 34 6 56t48 22q20 0 38-14t18-36q0-12-10-28h-2v-2q2-6 2-16-12-10-18-22t-28-12q-18 0-36 16t-18 36zm174 0q0 34 7 56t49 22q18 0 37-14t19-36q0-8-4-14t-8-14l-2-2q4-12 4-16-14-10-19-22t-27-12q-20 0-38 16t-18 36z"/><glyph unicode="" horiz-adv-x="530" d="M134 78v72q0 52 11 108t23 108q18 78 41 168t54 179 71 172 90 145q10 10 20 10 12 0 24-9t12-23v-4q-34-106-77-223t-82-238-66-241-27-232q0-12 1-34t13-28q44 8 93 46t92 80 75 76 44 34q10 0 21-10t11-20-6-16q-38-46-73-91t-74-83-87-65-110-39q-54 24-74 63t-20 95zm136 1312q0 10 11 25t21 15q42 0 78-26 14-10 26-21t26-21q72-50 130-108 0-2 1-4t1-4q0-12-11-26t-23-14-42 14-65 32-65 36-42 26q-16 10-31 33t-15 43z"/><glyph unicode="" horiz-adv-x="530" d="M134 78v72q0 52 11 108t23 108q18 78 41 168t54 179 71 172 90 145q10 10 20 10 12 0 24-9t12-23v-4q-34-106-77-223t-82-238-66-241-27-232q0-12 1-34t13-28q44 8 93 46t92 80 75 76 44 34q10 0 21-10t11-20-6-16q-38-46-73-91t-74-83-87-65-110-39q-54 24-74 63t-20 95zm382 1158q0 2 1 4t1 4q36 44 80 83t90 73q32 22 70 22 20 0 35-10t17-32q-18-44-54-68-14-10-28-17t-30-17q-66-44-146-80-12 0-24 13t-12 25z"/><glyph unicode="" horiz-adv-x="530" d="M134 78v72q0 52 11 108t23 108q18 78 41 168t54 179 71 172 90 145q10 10 20 10 12 0 24-9t12-23v-4q-34-106-77-223t-82-238-66-241-27-232q0-12 1-34t13-28q44 8 93 46t92 80 75 76 44 34q10 0 21-10t11-20-6-16q-38-46-73-91t-74-83-87-65-110-39q-54 24-74 63t-20 95zm118 1132v2q0 2 1 2t1 2q10 22 43 54t74 61 81 50 64 21q30 0 46-14 60-42 115-88t107-96v-4q0-2 2-4 0-12-11-26t-23-14l-6 2-138 84q-6 2-20 12t-30 21-29 19-15 8q-16-14-45-37t-62-44-66-36-53-15q-10 0-23 14t-13 26z"/><glyph unicode="" horiz-adv-x="530" d="M134 78v72q0 52 11 108t23 108q18 78 41 168t54 179 71 172 90 145q10 10 20 10 12 0 24-9t12-23v-4q-34-106-77-223t-82-238-66-241-27-232q0-12 1-34t13-28q44 8 93 46t92 80 75 76 44 34q10 0 21-10t11-20-6-16q-38-46-73-91t-74-83-87-65-110-39q-54 24-74 63t-20 95zm262 1214q0 34 6 56t48 22q20 0 38-14t18-36q0-12-10-28h-2v-2q2-6 2-16-12-10-18-22t-28-12q-18 0-36 16t-18 36zm174 0q0 34 7 56t49 22q18 0 37-14t19-36q0-8-4-14t-8-14l-2-2q4-12 4-16-14-10-19-22t-27-12q-20 0-38 16t-18 36z"/><glyph unicode="" horiz-adv-x="890" d="M62 264q0 66 18 130 56 184 180 328t302 216q4 2 10 2 14 0 21-10t7-22q0-14-16-24-28-16-56-31t-56-37q-110-80-188-198T166 370q-14-42-14-94 0-42 12-90t36-89 61-68 87-27q32 0 61 12t55 30q76 54 136 140t102 185 64 202 22 195v24q-4 52-35 88t-77 58q-14 6-27 10t-25 10q-20 8-20 28 0 14 8 24t22 8h2q92-6 168-66-6 64-21 129t-41 123l-12 24-12 22q-64-34-132-65t-136-55q-12-2-22 4-4 4-9 23t-1 23q2 4 25 19t57 36 77 47 85 52q-64 80-156 132-16 10-33 16t-35 16q-10 4-12 12-4 10 0 25t16 19q8 4 12 2 92-10 168-54t134-112q30 18 53 31t33 19 33 16 48 19 48 13 33-2q4-4 10-24t2-24q-20-28-56-53t-64-41q-20-12-39-22t-41-20q12-20 20-40 62-138 67-297t-17-323q-16-114-60-243T711 158 542-24 322-96q-66 0-114 35t-81 89-49 117-16 119z"/><glyph unicode="" horiz-adv-x="926" d="M-20-52q0 2 3 13t6 25 6 26 3 16q34 132 83 260t109 252q28 58 54 117t54 117q12 22 29 54t36 65 39 62 38 45q8 8 18 8 8 0 22-11t14-21q0-6-7-28t-17-47-19-48-11-31q34 32 79 70t96 70 105 53 102 21q28 0 53-25t29-53q4-20 4-30 0-34-13-83t-25-83q-20-58-58-153t-76-195-66-192-28-144q0-22 4-37t30-15q36 0 85 22t95 49 80 49 42 22q12 0 21-11t9-23-10-18q-22-18-52-40t-64-43-67-39-59-28q-46-20-86-20-60 0-87 43t-27 95q0 62 20 141t48 161 59 161 53 139q22 58 40 117t24 123q-36-4-98-40t-129-83-127-93-94-70l-72-144q-48-94-91-187t-83-189Q88 74 72 28T36-64q-6-16-22-16-8 0-21 10t-13 18zm458 1306q0 2 4 11t6 11q18 36 51 62t73 32q10 2 30 2 42 0 82-15t77-34 70-34 61-15q20 0 31 9t19 21l14 21 16 9q4 0 20-12t16-16-2-14-6-14q-16-40-50-65t-76-25q-34 0-67 12t-66 25-65 25-66 12q-22 0-44-7t-41-14-32-14-17-7q-12 0-25 11t-13 23z"/><glyph unicode="" horiz-adv-x="890" d="M62 264q0 66 18 130 56 184 180 328t302 216q4 2 10 2 14 0 21-10t7-22q0-14-16-24-28-16-56-31t-56-37q-110-80-188-198T166 370q-14-42-14-94 0-42 12-90t36-89 61-68 87-27q32 0 61 12t55 30q76 54 136 140t102 185 64 202 22 195v24q-4 52-35 88t-77 58q-14 6-27 10t-25 10q-20 8-20 28 0 14 8 24t22 8h2q44-4 87-20t77-44 57-66 29-86q4-20 4-39v-41q0-76-17-166t-51-180-83-175T627 48 487-57 322-96q-66 0-114 35t-81 89-49 117-16 119zm536 1046q0 10 11 25t21 15q42 0 78-26 14-10 26-21t26-21q72-50 130-108 0-2 1-4t1-4q0-12-11-26t-23-14-42 14-65 32-65 36-42 26q-16 10-31 33t-15 43z"/><glyph unicode="" horiz-adv-x="890" d="M62 264q0 66 18 130 56 184 180 328t302 216q4 2 10 2 14 0 21-10t7-22q0-14-16-24-28-16-56-31t-56-37q-110-80-188-198T166 370q-14-42-14-94 0-42 12-90t36-89 61-68 87-27q32 0 61 12t55 30q76 54 136 140t102 185 64 202 22 195v24q-4 52-35 88t-77 58q-14 6-27 10t-25 10q-20 8-20 28 0 14 8 24t22 8h2q44-4 87-20t77-44 57-66 29-86q4-20 4-39v-41q0-76-17-166t-51-180-83-175T627 48 487-57 322-96q-66 0-114 35t-81 89-49 117-16 119zm514 912q0 2 1 4t1 4q36 44 80 83t90 73q32 22 70 22 20 0 35-10t17-32q-18-44-54-68-14-10-28-17t-30-17q-66-44-146-80-12 0-24 13t-12 25z"/><glyph unicode="" horiz-adv-x="890" d="M62 264q0 66 18 130 56 184 180 328t302 216q4 2 10 2 14 0 21-10t7-22q0-14-16-24-28-16-56-31t-56-37q-110-80-188-198T166 370q-14-42-14-94 0-42 12-90t36-89 61-68 87-27q32 0 61 12t55 30q76 54 136 140t102 185 64 202 22 195v24q-4 52-35 88t-77 58q-14 6-27 10t-25 10q-20 8-20 28 0 14 8 24t22 8h2q44-4 87-20t77-44 57-66 29-86q4-20 4-39v-41q0-76-17-166t-51-180-83-175T627 48 487-57 322-96q-66 0-114 35t-81 89-49 117-16 119zm416 904v2q0 2 1 2t1 2q10 22 43 54t74 61 81 50 64 21q30 0 46-14 60-42 115-88t107-96v-4q0-2 2-4 0-12-11-26t-23-14l-6 2-138 84q-6 2-20 12t-30 21-29 19-15 8q-16-14-45-37t-62-44-66-36-53-15q-10 0-23 14t-13 26z"/><glyph unicode="" horiz-adv-x="890" d="M62 264q0 66 18 130 56 184 180 328t302 216q4 2 10 2 14 0 21-10t7-22q0-14-16-24-28-16-56-31t-56-37q-110-80-188-198T166 370q-14-42-14-94 0-42 12-90t36-89 61-68 87-27q32 0 61 12t55 30q76 54 136 140t102 185 64 202 22 195v24q-4 52-35 88t-77 58q-14 6-27 10t-25 10q-20 8-20 28 0 14 8 24t22 8h2q44-4 87-20t77-44 57-66 29-86q4-20 4-39v-41q0-76-17-166t-51-180-83-175T627 48 487-57 322-96q-66 0-114 35t-81 89-49 117-16 119zm398 948q0 2 4 11t6 11q18 36 51 62t73 32q10 2 30 2 42 0 82-15t77-34 70-34 61-15q20 0 31 9t19 21l14 21 16 9q4 0 20-12t16-16-2-14-6-14q-16-40-50-65t-76-25q-34 0-67 12t-66 25-65 25-66 12q-22 0-44-7t-41-14-32-14-17-7q-12 0-25 11t-13 23z"/><glyph unicode="" horiz-adv-x="890" d="M62 264q0 66 18 130 56 184 180 328t302 216q4 2 10 2 14 0 21-10t7-22q0-14-16-24-28-16-56-31t-56-37q-110-80-188-198T166 370q-14-42-14-94 0-42 12-90t36-89 61-68 87-27q32 0 61 12t55 30q76 54 136 140t102 185 64 202 22 195v24q-4 52-35 88t-77 58q-14 6-27 10t-25 10q-20 8-20 28 0 14 8 24t22 8h2q44-4 87-20t77-44 57-66 29-86q4-20 4-39v-41q0-76-17-166t-51-180-83-175T627 48 487-57 322-96q-66 0-114 35t-81 89-49 117-16 119zm540 948q0 34 6 56t48 22q20 0 38-14t18-36q0-12-10-28h-2v-2q2-6 2-16-12-10-18-22t-28-12q-18 0-36 16t-18 36zm174 0q0 34 7 56t49 22q18 0 37-14t19-36q0-8-4-14t-8-14l-2-2q4-12 4-16-14-10-19-22t-27-12q-20 0-38 16t-18 36z"/><glyph unicode="" horiz-adv-x="1026" d="M204 786q0 8 5 17t15 13q16 6 42 10t55 5 57 2 46 1q52 0 102-2t102-2q86 0 170-3t170-7h33l38-1 37-2 30-3q22-8 22-30 0-10-5-19t-15-11q-24-6-68-8t-72-4q-84-6-169-9t-171-5q-46 0-90-2t-88-2q-22 0-53 1t-64 5-62 10-49 16q-8 4-13 13t-5 17zm406-256q0 20 14 38t36 18q12 0 28-12h2q4 0 8 1t8 1q10-14 22-19t12-27q0-20-16-37t-36-17q-34 0-56 6t-22 48zm0 538q0 20 14 39t36 19q8 0 14-4t14-8l2-2q6 2 16 2 10-12 22-17t12-27q0-20-16-38t-36-18q-34 0-56 7t-22 47zm96-524q2 0 2-1t2-1l4 2h-8zm0 540q2-2 4-2l4 2h-8z"/><glyph unicode="" horiz-adv-x="986" d="M-102 6q0 6 6 16 46 50 96 96l100 92q-2 14-2 27v27q0 34 4 66t14 64q58 184 181 328t303 216q2 2 8 2 14 0 21-10t7-22q0-16-14-24-30-16-59-31t-57-35q-112-82-189-198T200 372q-4-22-8-42t-6-42q164 146 334 274l152 116 154 112q-2 52-36 88t-78 58q-14 6-27 10t-27 10q-18 8-18 28 0 32 28 32 38 0 76-13t71-36 59-53 38-66q8 6 36 24t59 36 57 33 32 15q14 0 24-12t10-24q0-10-27-38t-62-58-68-57-45-35v-14q0-76-17-165t-51-180-83-175T664 48 523-57 358-96q-46 0-84 19t-68 50-52 70-36 79Q74 86 32 49t-88-71q-6-6-14-6-12 0-22 11t-10 23zm298 180q8-32 25-65t40-59 53-43 68-17q34 0 62 12t56 30q68 48 122 118t94 152 65 169 37 167Q658 536 503 422T196 186z"/><glyph unicode="" horiz-adv-x="976" d="M82 178q0 48 6 94 10 96 34 185t58 177q26 62 54 123t56 121q10 20 20 45t22 41q10 14 24 14 10 0 22-10t12-20q0-14-5-39t-12-52-14-52-13-39q-22-72-51-143t-54-144-42-147-17-150q0-22 2-51t10-56 25-46 47-19q40 0 91 27t102 64 97 77 74 66q18 86 49 193t73 215 92 205 108 163q10 10 20 10 12 0 24-10t12-24q-2-2-2-4-38-106-91-229T814 513t-82-253-34-240q0-8 1-16t9-12q46 8 97 46t96 81 79 77 44 34q12 0 23-10t11-22q0-8-8-16-40-46-76-90t-77-82-90-66-111-42q-92 42-92 142 0 22 4 45t2 47q-28-30-69-67T453-2t-95-57-90-23q-56 0-92 23T119 1 90 85t-8 93zm392 1070q0 10 11 25t21 15q42 0 78-26 14-10 26-21t26-21q72-50 130-108 0-2 1-4t1-4q0-12-11-26t-23-14-42 14-65 32-65 36-42 26q-16 10-31 33t-15 43z"/><glyph unicode="" horiz-adv-x="976" d="M82 178q0 48 6 94 10 96 34 185t58 177q26 62 54 123t56 121q10 20 20 45t22 41q10 14 24 14 10 0 22-10t12-20q0-14-5-39t-12-52-14-52-13-39q-22-72-51-143t-54-144-42-147-17-150q0-22 2-51t10-56 25-46 47-19q40 0 91 27t102 64 97 77 74 66q18 86 49 193t73 215 92 205 108 163q10 10 20 10 12 0 24-10t12-24q-2-2-2-4-38-106-91-229T814 513t-82-253-34-240q0-8 1-16t9-12q46 8 97 46t96 81 79 77 44 34q12 0 23-10t11-22q0-8-8-16-40-46-76-90t-77-82-90-66-111-42q-92 42-92 142 0 22 4 45t2 47q-28-30-69-67T453-2t-95-57-90-23q-56 0-92 23T119 1 90 85t-8 93zm516 998q0 2 1 4t1 4q36 44 80 83t90 73q32 22 70 22 20 0 35-10t17-32q-18-44-54-68-14-10-28-17t-30-17q-66-44-146-80-12 0-24 13t-12 25z"/><glyph unicode="" horiz-adv-x="976" d="M82 178q0 48 6 94 10 96 34 185t58 177q26 62 54 123t56 121q10 20 20 45t22 41q10 14 24 14 10 0 22-10t12-20q0-14-5-39t-12-52-14-52-13-39q-22-72-51-143t-54-144-42-147-17-150q0-22 2-51t10-56 25-46 47-19q40 0 91 27t102 64 97 77 74 66q18 86 49 193t73 215 92 205 108 163q10 10 20 10 12 0 24-10t12-24q-2-2-2-4-38-106-91-229T814 513t-82-253-34-240q0-8 1-16t9-12q46 8 97 46t96 81 79 77 44 34q12 0 23-10t11-22q0-8-8-16-40-46-76-90t-77-82-90-66-111-42q-92 42-92 142 0 22 4 45t2 47q-28-30-69-67T453-2t-95-57-90-23q-56 0-92 23T119 1 90 85t-8 93zm374 1012v2q0 2 1 2t1 2q10 22 43 54t74 61 81 50 64 21q30 0 46-14 60-42 115-88t107-96v-4q0-2 2-4 0-12-11-26t-23-14l-6 2-138 84q-6 2-20 12t-30 21-29 19-15 8q-16-14-45-37t-62-44-66-36-53-15q-10 0-23 14t-13 26z"/><glyph unicode="" horiz-adv-x="976" d="M82 178q0 48 6 94 10 96 34 185t58 177q26 62 54 123t56 121q10 20 20 45t22 41q10 14 24 14 10 0 22-10t12-20q0-14-5-39t-12-52-14-52-13-39q-22-72-51-143t-54-144-42-147-17-150q0-22 2-51t10-56 25-46 47-19q40 0 91 27t102 64 97 77 74 66q18 86 49 193t73 215 92 205 108 163q10 10 20 10 12 0 24-10t12-24q-2-2-2-4-38-106-91-229T814 513t-82-253-34-240q0-8 1-16t9-12q46 8 97 46t96 81 79 77 44 34q12 0 23-10t11-22q0-8-8-16-40-46-76-90t-77-82-90-66-111-42q-92 42-92 142 0 22 4 45t2 47q-28-30-69-67T453-2t-95-57-90-23q-56 0-92 23T119 1 90 85t-8 93zm458 994q0 34 6 56t48 22q20 0 38-14t18-36q0-12-10-28h-2v-2q2-6 2-16-12-10-18-22t-28-12q-18 0-36 16t-18 36zm174 0q0 34 7 56t49 22q18 0 37-14t19-36q0-8-4-14t-8-14l-2-2q4-12 4-16-14-10-19-22t-27-12q-20 0-38 16t-18 36z"/><glyph unicode="" horiz-adv-x="886" d="M-512-584q-2 16 9 23t23 7q8 0 14-6t10-12q14-22 25-47t27-47q30-42 69-81t86-68 99-46 106-17q82 0 152 40 100 60 166 166t114 234q46 124 79 253t67 241q-24-22-58-48t-70-49-73-39-67-16q-58 0-105 38T102 44q-10 40-12 74-4 62 5 131t26 138 39 134 46 119q50 116 108 228 12 22 22 46t24 46q8 12 24 12 10 0 22-11t14-23l-6-30q-18-84-47-164t-61-156q-22-54-45-113t-40-119-27-121-6-121q2-18 5-38t11-37 20-28 32-11q34 0 80 23t92 54 87 65 67 58q52 144 112 281t130 269q28 52 56 107t60 105q8 14 24 14 14 0 23-11t11-25q0-8-2-12-76-204-162-399T672 130q-38-98-67-196t-57-200q-6-22-13-41t-15-41q-24-74-50-145t-60-139-78-129-100-106-122-72-144-27q-82 0-153 29t-131 78-107 116-83 145q-4 8-4 14zM638 1136q0 2 1 4t1 4q36 44 80 83t90 73q32 22 70 22 20 0 35-10t17-32q-18-44-54-68-14-10-28-17t-30-17q-66-44-146-80-12 0-24 13t-12 25z"/><glyph unicode="" horiz-adv-x="1342" d="M-40 10q0 22 22 28 44 10 76 15t76 23q92 40 161 114t122 164 91 188 68 186q26 80 49 162t47 164 52 162 68 156q-58-34-116-61t-114-61q-40-26-81-55t-78-64-66-74-47-85q-8-22-10-40t-8-38q-2-4-11-5t-13-1q-24 0-30 3t-6 25q0 70 26 131t68 114 95 97 107 78q92 58 189 109t199 91q2 2 6 2 14 0 26-12t12-26v-6q-10-30-23-59t-23-59q-24-64-45-130t-43-130q36 40 83 76t100 64 110 45 113 17q80 0 136-34t91-88 51-122 16-136q0-108-39-205t-105-179-154-149-187-113-203-71-202-25q-10 0-28-1t-36 2-31 9-13 22q0 30 24 30h42q88 0 184 23t188 66 176 104 147 136 100 163 37 186q0 44-9 93t-31 88-59 65-93 26q-64 0-126-28-98-40-180-108T768 918q-12-16-25-35t-21-39q-14-30-27-72t-23-76q-44-124-97-242T444 230q-40-54-91-100T243 50 118-3-16-22q-12 0-18 10t-6 22z"/><glyph unicode="" horiz-adv-x="886" d="M-512-584q-2 16 9 23t23 7q8 0 14-6t10-12q14-22 25-47t27-47q30-42 69-81t86-68 99-46 106-17q82 0 152 40 100 60 166 166t114 234q46 124 79 253t67 241q-24-22-58-48t-70-49-73-39-67-16q-58 0-105 38T102 44q-10 40-12 74-4 62 5 131t26 138 39 134 46 119q50 116 108 228 12 22 22 46t24 46q8 12 24 12 10 0 22-11t14-23l-6-30q-18-84-47-164t-61-156q-22-54-45-113t-40-119-27-121-6-121q2-18 5-38t11-37 20-28 32-11q34 0 80 23t92 54 87 65 67 58q52 144 112 281t130 269q28 52 56 107t60 105q8 14 24 14 14 0 23-11t11-25q0-8-2-12-76-204-162-399T672 130q-38-98-67-196t-57-200q-6-22-13-41t-15-41q-24-74-50-145t-60-139-78-129-100-106-122-72-144-27q-82 0-153 29t-131 78-107 116-83 145q-4 8-4 14zM580 1232q0 34 6 56t48 22q20 0 38-14t18-36q0-12-10-28h-2v-2q2-6 2-16-12-10-18-22t-28-12q-18 0-36 16t-18 36zm174 0q0 34 7 56t49 22q18 0 37-14t19-36q0-8-4-14t-8-14l-2-2q4-12 4-16-14-10-19-22t-27-12q-20 0-38 16t-18 36z"/><glyph unicode="" horiz-adv-x="1948" d="M184 312q0 102 22 198t59 188 86 178 103 170q32 46 72 107t74 105q12 12 24 12t21-9 9-21q0-6-4-18-64-100-131-205T397 801t-90-228-35-241v-41l4-41q6-50 30-90t60-67 82-42 94-15q30 0 60 6 44 34 95 57t105 35q72 50 141 119t130 148 112 163 87 162q-78 0-138-24l-130-52q0-2-4-2-14 0-25 13t-11 25q0 6 2 6 18 38 51 65t73 44 82 25 82 8q16 0 31-1t31-3q28 72 43 147t15 153q0 74-24 145t-82 123q-70-22-132-60t-112-94q-14-16-24-34t-24-34q-6-10-20-10-10 0-22 9t-12 21q0 6 2 10 40 84 103 144t143 100q-46 12-92 12-86 0-163-31t-151-73q-8-4-16-4-14 0-23 9t-9 21 12 24q36 32 81 59t95 47 101 31 99 11q52 0 103-13t97-41q94 28 190 39t192 15q90 4 175 12t168 24 165 40 164 62q2 0 4 1t4 1q14 0 24-12t10-24q0-6-8-18-64-64-157-103t-181-55q-82-16-166-21t-168-8-168-8-166-19q52-64 75-138t23-156q0-158-56-316h40q50 0 99 5t95 17q6 2 19 6t27 8 25 8 13 4q10 0 22-14t12-22q0-10-10-20-80-50-184-72t-198-18q-34-72-79-151t-99-154-112-144-118-123q62-2 123-12t123-21 123-20 123-9q32 0 62 2t60 8q98 20 166 69t138 117q4 4 8 6t10 2q10 0 21-11t11-23q0-8-4-12-90-126-218-190t-282-64q-60 0-121 7t-121 16-120 17-122 8q-34 0-68-2t-68-8Q766-6 692-34T550-62q-66 0-129 21T309 19t-82 95-39 124q-2 18-3 37t-1 37z"/><glyph unicode="" horiz-adv-x="1378" d="M62 272q0 68 18 132 58 184 181 328t303 216q4 2 10 2 14 0 21-10t7-22q0-16-16-26-28-16-57-30t-57-36q-112-80-189-197T166 380q-14-42-14-94 0-42 12-90t36-89 61-69 87-28q32 0 61 12t55 30q74 54 135 139t104 183 66 202 23 196v13l-2 13q-4 54-39 91t-81 59l-24 8-22 8q-20 8-20 28 0 14 8 24t22 8h2q44-4 87-20t78-43 58-65 29-86q2-12 3-24t1-24q34 42 84 89t107 86 119 64 120 25 93-40 35-98q0-52-24-101t-62-94-82-83-82-64q-60-40-125-75t-141-35q-16 0-34 4t-18 26q0 28 26 34 6 2 14 2t16 2q22 4 44 15t44 23q36 22 90 63t104 90 85 101 35 100q0 14-6 20 0 4-4 4-16 0-37-4t-37-8q-58-16-121-60t-107-86q-22-22-47-50t-47-60-41-64-27-62q-4-8-5-16t-3-18q-8-28-18-55t-18-55q-6-26-8-54t-2-56 2-54 8-54q4-24 14-48t26-45 37-34 49-13q16 0 31 5t29 13q58 34 104 85t84 103q10 14 19 28t19 28q8 12 22 12 12 0 22-9t10-21q0-6-4-14-24-44-60-98t-81-101-97-79-110-32q-48 0-84 22t-61 57-41 78-22 85q-34-54-76-103T558-4 447-65 322-88q-64 0-113 36t-82 90-49 117-16 117z"/><glyph unicode="" horiz-adv-x="1484" d="M-154-748q0 108 33 218t91 211 138 184T282 0q8 4 14 4 12 0 21-9t9-21q0-16-16-26-20-16-40-29t-40-29q-90-74-153-172T-26-488q-20-58-32-119t-12-125q0-92 30-164t84-121 129-75 165-26q46 0 91 8t89 28q70 30 127 88t102 134 80 163 61 175 45 172 33 152q24 108 48 217t54 217q-34-44-81-95T885 47 770-25 650-54t-97 25-56 64-26 87-7 96q0 64 8 125t22 121q52 236 128 462t190 440q-58-34-117-62t-117-62q-78-48-155-112T310 978q-8-20-12-38t-8-38q-6-18-28-18-10 0-21 8t-11 20q0 70 25 131t67 113 95 95 107 77q90 56 183 105t193 85q2 6 9 10t13 4q12 0 23-9t11-23q0-6-2-8-30-82-71-186t-85-219-86-236-75-236-54-220-21-189q0-28 1-57t10-53 28-40 55-16q26 0 50 8t46 18q72 36 132 89t113 115 100 129 89 131q4 4 4 6 36 76 80 157t94 160 106 152 114 133q10 10 24 10 12 0 21-8t9-22q0-12-6-18-72-104-135-205t-119-205-103-213-87-229q-40-116-67-235t-54-239-57-239-74-235q-40-104-92-197t-123-164-165-112-216-41q-104 0-194 33t-157 94-105 147-38 192zm1430 2306q0 34 6 56t48 22q20 0 38-14t18-36q0-12-10-28h-2v-2q2-6 2-16-12-10-18-22t-28-12q-18 0-36 16t-18 36zm174 0q0 34 7 56t49 22q18 0 37-14t19-36q0-8-4-14t-8-14l-2-2q4-12 4-16-14-10-19-22t-27-12q-20 0-38 16t-18 36z"/><glyph unicode="" d="M926 1228v2q0 2 1 2t1 2q10 22 43 54t74 61 81 50 64 21q30 0 46-14 60-42 115-88t107-96v-4q0-2 2-4 0-12-11-26t-23-14l-6 2-138 84q-6 2-20 12t-30 21-29 19-15 8q-16-14-45-37t-62-44-66-36-53-15q-10 0-23 14t-13 26z"/><glyph unicode="" d="M908 1292q0 2 4 11t6 11q18 36 51 62t73 32q10 2 30 2 42 0 82-15t77-34 70-34 61-15q20 0 31 9t19 21l14 21 16 9q4 0 20-12t16-16-2-14-6-14q-16-40-50-65t-76-25q-34 0-67 12t-66 25-65 25-66 12q-22 0-44-7t-41-14-32-14-17-7q-12 0-25 11t-13 23z"/><glyph horiz-adv-x="986"/><glyph horiz-adv-x="1972"/><glyph horiz-adv-x="986"/><glyph horiz-adv-x="1972"/><glyph horiz-adv-x="657"/><glyph horiz-adv-x="493"/><glyph horiz-adv-x="328"/><glyph horiz-adv-x="328"/><glyph horiz-adv-x="246"/><glyph horiz-adv-x="394"/><glyph horiz-adv-x="109"/><glyph unicode="" horiz-adv-x="1006" d="M204 786q0 8 5 17t15 13q16 6 42 10t55 5 57 2 46 1q52 0 102-2t102-2q86 0 170-3t170-7h33l38-1 37-2 30-3q22-8 22-30 0-10-5-19t-15-11q-24-6-68-8t-72-4q-84-6-169-9t-171-5q-46 0-90-2t-88-2q-22 0-53 1t-64 5-62 10-49 16q-8 4-13 13t-5 17z"/><glyph unicode="" horiz-adv-x="1006" d="M204 786q0 8 5 17t15 13q16 6 42 10t55 5 57 2 46 1q52 0 102-2t102-2q86 0 170-3t170-7h33l38-1 37-2 30-3q22-8 22-30 0-10-5-19t-15-11q-24-6-68-8t-72-4q-84-6-169-9t-171-5q-46 0-90-2t-88-2q-22 0-53 1t-64 5-62 10-49 16q-8 4-13 13t-5 17z"/><glyph unicode="" horiz-adv-x="1006" d="M204 786q0 8 5 17t15 13q16 6 42 10t55 5 57 2 46 1q52 0 102-2t102-2q86 0 170-3t170-7h33l38-1 37-2 30-3q22-8 22-30 0-10-5-19t-15-11q-24-6-68-8t-72-4q-84-6-169-9t-171-5q-46 0-90-2t-88-2q-22 0-53 1t-64 5-62 10-49 16q-8 4-13 13t-5 17z"/><glyph unicode="" horiz-adv-x="1026" d="M204 786q0 8 5 17t15 13q16 6 42 10t55 5 57 2 46 1q52 0 102-2t102-2q86 0 170-3t170-7h33l38-1 37-2 30-3q22-8 22-30 0-10-5-19t-15-11q-24-6-68-8t-72-4q-84-6-169-9t-171-5q-46 0-90-2t-88-2q-22 0-53 1t-64 5-62 10-49 16q-8 4-13 13t-5 17z"/><glyph unicode="" horiz-adv-x="1366" d="M204 726q0 10 5 18t15 12q22 6 58 10t76 6 77 3 61 1q68 0 135-3t133-3q218 0 434-6l144-6q16-2 32-1t30-1q10-4 16-12t6-18-5-19-15-11q-16-4-40-5t-51-3-52-3-43-1q-114-6-228-10t-228-4q-60-2-121-4t-121-2q-28 0-69 1t-83 5-82 9-64 15q-20 10-20 32z"/><glyph unicode="" horiz-adv-x="214" d="M308 1276q0 30 13 62t32 63 40 60 37 51h6q2 0 4 2 6 0 21-14t19-18q-10-50-30-95t-30-91l20-20 10-26q0-34-7-56t-47-22q-16 0-27 7t-21 17q-20 20-30 35t-10 45z"/><glyph unicode="" horiz-adv-x="214" d="M308 1206q8 50 29 94t31 92q-10 8-20 18t-10 26q0 34 6 56t48 22q26 0 46-24 20-18 31-34t11-44q0-30-13-62t-32-63-40-60-39-51q-2 0-2-1t-2-1q-2-2-4-2-6 0-21 14t-19 20z"/><glyph unicode="" horiz-adv-x="152" d="M-144-166q10 48 31 93t31 93q-12 8-21 18t-9 26q0 34 6 56t48 22q16 0 26-7t20-17Q8 98 19 83t11-45-13-61-32-62-41-60-38-51q-2 0-5-2t-5-2q-4 0-20 14t-20 20z"/><glyph unicode="" horiz-adv-x="358" d="M308 1276q0 30 13 62t32 63 40 60 37 51h6q2 0 4 2 6 0 21-14t19-18q-10-50-30-95t-30-91l20-20 10-26q0-34-7-56t-47-22q-16 0-27 7t-21 17q-20 20-30 35t-10 45zm144 0q0 30 13 62t32 63 40 60 39 51h4q2 0 4 2 6 0 21-14t19-18q-8-50-29-95t-31-91l20-20 10-26q0-34-6-56t-48-22q-16 0-26 7t-20 17q-20 20-31 35t-11 45z"/><glyph unicode="" horiz-adv-x="358" d="M308 1206q8 50 29 94t31 92q-10 8-20 18t-10 26q0 34 6 56t48 22q26 0 46-24 20-18 31-34t11-44q0-30-13-62t-32-63-40-60-39-51q-2 0-2-1t-2-1q-2-2-4-2-6 0-21 14t-19 20zm144 0q10 50 30 94t30 92q-10 8-20 18t-10 26q0 34 7 56t47 22q16 0 27-7t21-17q20-18 30-34t10-44q0-30-13-62t-32-63-40-60-37-51q-2 0-3-1t-3-1q-2-2-4-2-6 0-21 14t-19 20z"/><glyph unicode="" horiz-adv-x="298" d="M-144-166q10 48 31 93t31 93q-12 8-21 18t-9 26q0 34 6 56t48 22q16 0 26-7t20-17Q8 98 19 83t11-45-13-61-32-62-41-60-38-51q-2 0-5-2t-5-2q-4 0-20 14t-20 20zm146 0q8 48 29 93t31 93q-10 8-20 18T32 64q0 34 6 56t48 22q26 0 46-24 20-20 31-35t11-45-13-61-32-62-40-60-39-51l-8-4q-6 0-21 14T2-166z"/><glyph unicode="" horiz-adv-x="564" d="M204 652q0 40 17 76t45 63 64 42 76 15q34 0 66-13t57-35 40-52 15-66v-18l-4-18-2-2 2-12q2-36-14-67t-43-55-61-37-68-13q-40 0-74 16t-60 43-41 61-15 72z"/><glyph unicode="" horiz-adv-x="542" d="M-40 16q0 34 6 56t48 22q18 0 37-14t19-36q0-10-12-26l-2-4q4-8 4-16-14-10-19-21T14-34q-20 0-37 15t-17 35zm266 0q0 34 6 56t48 22q18 0 37-14t19-36q0-10-12-26l-2-4q4-8 4-16-14-10-19-21t-27-11q-20 0-37 15t-17 35zm266 0q0 34 6 56t48 22q18 0 37-14t19-36q0-10-12-26l-2-4q4-8 4-16-14-10-19-21t-27-11q-20 0-37 15t-17 35z"/><glyph horiz-adv-x="394"/><glyph unicode="" horiz-adv-x="370" d="M144 656v18l2 18q52 90 132 162t178 108h4q16 0 25-15t9-29q-28-40-62-72t-68-62-66-61-54-65q4-34 33-77t67-86 76-84 62-67q2-2 2-4t2-2q0-14-11-26t-25-12q-6 0-34 21t-60 48-60 52-34 33q-16 20-36 38t-36 40q-46 56-46 124z"/><glyph unicode="" horiz-adv-x="392" d="M122 930q0 12 11 26t25 14q2-2 4-2 96-36 176-108t132-160q2-10 3-19t1-19q0-36-13-66t-35-58q-16-20-35-39t-37-39q-6-8-34-33t-60-52-60-48-34-21q-14 0-24 12t-10 26v4q0 2 1 2t1 2q24 26 63 66t77 83 67 86 33 77q-22 36-54 66t-67 60-69 62-60 70q0 2-1 4t-1 4z"/><glyph horiz-adv-x="493"/><glyph unicode="" horiz-adv-x="970" d="M62 552q0 18 17 28t43 14q-24 6-42 19t-18 37q0 20 24 31t55 15 62 4h127q26 98 83 190t137 162 177 112 203 42q28 0 73-6t71-16q18-10 18-28 0-16-7-23t-18-9-24-1-23 1q-98 0-189-32t-168-89-136-135-89-170q14-2 26-2t24-2q8-6 14-15t6-19q0-12-11-20t-25-12-30-6-24-4l-4-18q20 0 38-1t36-3q8-6 14-15t6-19q0-6-4-14t-10-10q-20-8-43-12t-45-8q-2-16-2-32v-32q0-44 6-94t22-98 42-90 68-66q22-14 57-20t63-6q80 0 156 35t128 95q14 16 23 31t21 31q10 14 22 14t23-8 11-22q0-2-1-4t-1-6q-26-56-67-102t-94-79-112-51T650-4q-30 0-77 8t-75 24q-60 36-99 90t-61 119-29 134-5 133q-32-4-65-8t-67-4q-14 0-33 2t-36 9-29 19-12 30z"/><glyph unicode="" horiz-adv-x="960" d="M0 0v960h960V0H0z"/><glyph unicode="" horiz-adv-x="1288" d="M-1024-746q0 12 9 20t21 8q14 0 26-14 16-22 32-43t34-41q76-82 175-137t213-55q90 0 164 44t135 116 110 164 86 187 65 186 48 159q40 142 80 282t90 278q40 108 75 217t75 217q-66-6-132-10t-132-4q-8 0-16 13t-8 21q0 18 18 26 22 6 43 9t43 7q56 10 111 20t113 20q40 100 99 209t137 206 173 170 207 101q16 4 31 6t31 2q108 0 163-64t55-168q0-34-6-73t-20-73q-6-24-30-24-12 0-21 10t-9 22q0 22 6 49t6 55q0 32-6 63t-20 55-40 38-64 14q-30 0-52-8-88-24-166-87t-144-144-118-171-88-168q40 8 81 14t81 6q20 0 55-3t51-11q8-4 13-16t5-20q0-6-3-13t-11-11q-70-32-156-39t-162-15q-48-120-88-240t-84-240q-52-138-92-277t-82-279q-24-80-56-177T55-555t-97-196-123-169-153-119-186-45q-82 0-157 25t-141 68-121 102-97 127q-4 8-4 16zM902 78v72q0 52 11 108t23 108q18 78 42 168t55 179 71 172 90 145q6 10 18 10 14 0 25-9t11-23v-4q-34-108-77-225t-82-237-66-240-27-232q0-12 1-34t13-28q46 8 95 46t92 80 74 76 43 34 23-10 11-20q0-4-2-8l-4-8q-38-46-73-91t-75-83-88-65-110-39q-52 24-73 63t-21 95z"/><glyph unicode="" horiz-adv-x="1350" d="M-1024-746q0 28 28 28 16 0 30-18 16-22 31-43t33-41q72-78 175-133t213-55q88 0 161 41t132 108 106 154 84 177 65 176 48 154q82 262 158 523t178 517q-68-6-135-10t-135-4q-8 0-15 13t-7 21q0 18 18 26 20 4 41 8t43 8q58 10 116 21t116 21q38 90 88 196t114 205 143 178 177 117q62 26 120 26 56 0 94-19t61-52 33-76 10-91q0-92-18-179t-45-171-58-167-59-167q-26-78-55-166t-54-178-42-180-17-170q0-18 2-38t10-38 22-29 38-11q42 0 94 23t105 56 102 69 83 60q16 8 24 8 12 0 21-8t9-20q0-16-16-28-34-34-87-77t-112-81-118-65-107-27q-46 0-78 19t-52 49-29 69-9 79q0 92 15 183t38 181 52 178 57 176q26 78 58 159t59 163 45 165 18 167q0 26-3 49t-13 41-29 29-49 11q-62 0-119-31t-108-81-96-114-82-131-67-130-52-113q40 8 80 14t80 6q20 0 55-3t53-11q6-4 12-16t6-20q0-6-4-13t-10-11q-70-32-157-39t-161-15Q422 590 338 320T166-224q-34-102-69-206T15-633-94-821t-148-161q-58-48-129-73t-147-25q-74 0-147 26t-139 69-121 100-93 119q-6 8-6 20z"/></font>
</defs>
</svg>
